<svg viewBox="0 0 96 96">
<path d="M48 8C37.3913 8 27.2172 12.2143 19.7157 19.7157C12.2142 27.2172 8 37.3913 8 48C8 58.6087 12.2142 68.7828 19.7157 76.2843C27.2172 83.7857 37.3913 88 48 88C58.6087 88 68.7828 83.7857 76.2842 76.2843C83.7857 68.7828 88 58.6087 88 48C88 42.7471 86.9654 37.5457 84.9552 32.6927C82.945 27.8396 79.9986 23.4301 76.2842 19.7157C72.5699 16.0014 68.1603 13.055 63.3073 11.0448C58.4543 9.03463 53.2529 8 48 8ZM44.68 24.68H51.36V31.36C57.56 31.36 61.24 34.6 61.24 39.64C61.2433 41.3509 60.6373 43.0071 59.5305 44.3118C58.4237 45.6164 56.8886 46.4844 55.2 46.76V47.16C57.2587 47.2527 59.2023 48.1364 60.6255 49.6267C62.0488 51.1171 62.8421 53.0992 62.84 55.16C62.84 61 58.44 64.68 51.36 64.72V71.36H44.68V64.68H36.36V31.32H44.68V24.68ZM43.32 36.68V45.16H48.56C52.32 45.16 54.4 43.6 54.4 40.92C54.4 38.24 52.48 36.68 49.16 36.68H43.32ZM43.32 49.88V59.32H49.68C53.68 59.32 55.88 57.64 55.88 54.52C55.88 51.4 53.64 49.88 49.52 49.88H43.32Z" fill="currentColor"/>
</svg>
