<svg viewBox="0 0 40 40">
<path d="M29.3334 20.925V22.925H26.8334V20.925H13.1668V22.925H10.6668V20.925H2.56677V30.0583C2.56677 31.0087 2.94429 31.9201 3.6163 32.5921C4.2883 33.2642 5.19974 33.6417 6.1501 33.6417H33.8501C34.8005 33.6417 35.7119 33.2642 36.3839 32.5921C37.0559 31.9201 37.4334 31.0087 37.4334 30.0583V20.925H29.3334Z" fill="currentColor"/>
<path d="M10.6168 18.425V16.9583H13.1168V18.425H26.7835V16.9583H29.3335V18.425H37.4335V13.675C37.4335 13.2044 37.3408 12.7385 37.1607 12.3037C36.9806 11.869 36.7167 11.4739 36.3839 11.1412C36.0512 10.8084 35.6562 10.5445 35.2214 10.3644C34.7867 10.1843 34.3207 10.0916 33.8501 10.0916H27.1001V9.44165C27.1001 8.6239 26.7753 7.83964 26.197 7.2614C25.6188 6.68316 24.8345 6.35831 24.0168 6.35831H16.0001C15.1824 6.35831 14.3981 6.68316 13.8199 7.2614C13.2416 7.83964 12.9168 8.6239 12.9168 9.44165V10.0916H6.1668C5.69623 10.0916 5.23027 10.1843 4.79552 10.3644C4.36077 10.5445 3.96575 10.8084 3.63301 11.1412C3.30026 11.4739 3.03631 11.869 2.85623 12.3037C2.67615 12.7385 2.58346 13.2044 2.58346 13.675V18.425H10.6168ZM15.3501 9.44165C15.3472 9.35771 15.3624 9.27412 15.3947 9.19659C15.427 9.11907 15.4757 9.04945 15.5374 8.99248C15.5991 8.93551 15.6724 8.89255 15.7523 8.86652C15.8322 8.84049 15.9167 8.832 16.0001 8.84165H24.0335C24.1882 8.84165 24.3365 8.9031 24.4459 9.0125C24.5553 9.12189 24.6168 9.27028 24.6168 9.42499V10.075H15.4168L15.3501 9.44165Z" fill="currentColor"/>
</svg>
