<svg viewBox="0 0 40 40">
<path d="M33.2206 30.0166L31.7539 27.5166C30.488 25.3221 29.8212 22.8334 29.8206 20.3V17.5999C29.8126 15.2067 28.9364 12.8976 27.3548 11.1015C25.7732 9.30528 23.5936 8.14403 21.2206 7.83328V5.16663H18.7872V7.83328C16.4128 8.14064 14.2311 9.30093 12.6488 11.0978C11.0666 12.8948 10.1917 15.2057 10.1872 17.5999V20.3C10.1807 22.8348 9.50826 25.3234 8.23723 27.5166L6.78724 30.0166C6.68069 30.2077 6.62476 30.4228 6.62476 30.6416C6.62476 30.8604 6.68069 31.0755 6.78724 31.2666C6.89595 31.4583 7.05341 31.6179 7.24367 31.7291C7.43392 31.8403 7.65018 31.8992 7.87056 31.8999H16.0706C16.3355 32.7462 16.8625 33.4863 17.5755 34.0136C18.2884 34.5408 19.1505 34.8279 20.0372 34.8333C20.924 34.8279 21.786 34.5408 22.499 34.0136C23.212 33.4863 23.7389 32.7462 24.0039 31.8999H32.1206C32.3406 31.8976 32.5562 31.8379 32.7462 31.7269C32.9361 31.6158 33.0939 31.4572 33.2039 31.2666C33.313 31.077 33.3718 30.8626 33.3747 30.6438C33.3776 30.425 33.3246 30.2091 33.2206 30.0166Z" fill="currentColor"/>
</svg>
