<svg viewBox="0 0 97 96">
<path d="M92.6528 36.3026C92.2432 36.0337 91.7747 35.8678 91.2872 35.8191C90.7997 35.7703 90.3076 35.8402 89.8528 36.0226C78.2528 40.7026 69.8528 34.3026 60.1728 26.9426C50.4928 19.5826 40.1728 11.8226 25.8928 14.3426C8.61283 17.3826 3.57283 35.3826 3.37283 36.1426C3.24892 36.5838 3.22776 37.0476 3.31096 37.4983C3.39417 37.949 3.57954 38.3747 3.85283 38.7426C4.12385 39.1144 4.4789 39.4169 4.88902 39.6254C5.29914 39.834 5.75273 39.9426 6.21283 39.9426C9.81283 39.9426 12.6528 45.7426 15.9328 52.4226C22.0928 64.9826 30.4928 82.1426 53.7328 82.1426H55.0928C93.7728 81.0226 93.9728 39.3026 93.9728 38.8626C93.9816 38.36 93.8656 37.8631 93.6353 37.4163C93.4049 36.9696 93.0673 36.5869 92.6528 36.3026ZM26.2128 37.8626C25.5189 37.9117 24.8258 37.7565 24.2191 37.4161C23.6125 37.0756 23.1188 36.5649 22.7992 35.947C22.4796 35.3292 22.348 34.6311 22.4208 33.9393C22.4935 33.2474 22.7673 32.5921 23.2084 32.0542C23.6495 31.5162 24.2386 31.1193 24.9028 30.9125C25.5669 30.7056 26.2772 30.6979 26.9457 30.8903C27.6143 31.0827 28.2118 31.4667 28.6645 31.995C29.1171 32.5232 29.4051 33.1725 29.4928 33.8626C29.5539 34.3429 29.5163 34.8306 29.3824 35.296C29.2485 35.7613 29.0211 36.1944 28.7141 36.5688C28.4071 36.9432 28.0269 37.2511 27.5968 37.4735C27.1667 37.696 26.6958 37.8284 26.2128 37.8626ZM68.5328 65.8626C64.8277 67.794 60.7111 68.8025 56.5328 68.8025C52.3545 68.8025 48.2379 67.794 44.5328 65.8626C42.8642 64.8948 41.4204 63.5831 40.2976 62.0146C39.1747 60.4461 38.3983 58.6567 38.02 56.7651C37.6417 54.8736 37.6701 52.9232 38.1033 51.0435C38.5366 49.1638 39.3647 47.3977 40.5328 45.8626C42.8716 43.0336 46.2149 41.2201 49.8616 40.8025C53.5083 40.3848 57.1751 41.3955 60.0928 43.6226C63.1386 45.9 65.6332 48.8332 67.3919 52.2052C69.1506 55.5772 70.1283 59.3015 70.2528 63.1026C70.2522 63.6824 70.0813 64.2493 69.7613 64.7329C69.4413 65.2164 68.9863 65.5953 68.4528 65.8226L68.5328 65.8626Z" fill="currentColor"/>
</svg>
