<svg viewBox="0 0 41 40">
<path d="M37.0285 6.66676C35.7742 6.6637 34.5547 7.07804 33.5619 7.8445C32.5691 8.61095 31.8596 9.68595 31.5451 10.9001L31.2951 11.8834H4.34512C4.1557 11.8864 3.96929 11.9313 3.79928 12.0149C3.62926 12.0984 3.47986 12.2186 3.36179 12.3668C3.24648 12.5161 3.16698 12.69 3.12942 12.8749C3.09186 13.0598 3.09723 13.2509 3.14512 13.4334L6.76179 28.2501C6.82826 28.519 6.98219 28.7583 7.19939 28.9302C7.4166 29.1022 7.68477 29.1971 7.96179 29.2001H28.3951C28.6728 29.2018 28.9431 29.1109 29.1634 28.9419C29.3837 28.7729 29.5415 28.5354 29.6118 28.2668L33.9618 11.5334C34.1363 10.8537 34.5328 10.2517 35.0883 9.82299C35.6439 9.39424 36.3267 9.16329 37.0285 9.16676H38.1451V6.66676H37.0285Z" fill="currentColor"/>
<path d="M10.195 35.1501C11.3732 35.1501 12.3284 34.195 12.3284 33.0168C12.3284 31.8386 11.3732 30.8835 10.195 30.8835C9.01683 30.8835 8.06171 31.8386 8.06171 33.0168C8.06171 34.195 9.01683 35.1501 10.195 35.1501Z" fill="currentColor"/>
<path d="M26.5617 35.1501C27.7399 35.1501 28.6951 34.195 28.6951 33.0168C28.6951 31.8386 27.7399 30.8835 26.5617 30.8835C25.3835 30.8835 24.4284 31.8386 24.4284 33.0168C24.4284 34.195 25.3835 35.1501 26.5617 35.1501Z" fill="currentColor"/>
</svg>
