<svg viewBox="0 0 40 40">
<path d="M8.50814 5.81668H11.0081V7.83333H28.9915V5.81668H31.4915V7.83333H33.7083C34.6943 7.83333 35.6395 8.22492 36.3365 8.92195C37.0335 9.61892 37.425 10.5642 37.425 11.55V14.1333L2.54175 14.1666V11.55C2.54175 10.5642 2.93319 9.61892 3.63021 8.92195C4.32723 8.22492 5.27287 7.83333 6.25838 7.83333H8.50814V5.81668Z" fill="currentColor"/>
<path fill-rule="evenodd" clip-rule="evenodd" d="M2.54175 30.4666V16.6333H37.4583V30.4666C37.4583 31.4524 37.0669 32.3977 36.3699 33.0947C35.6729 33.7917 34.7276 34.1833 33.7417 34.1833H6.25838C5.27287 34.1833 4.32723 33.7917 3.63021 33.0947C2.93319 32.3977 2.54175 31.4524 2.54175 30.4666ZM7.95842 27.8666H12.9584V25.3666H7.95842V27.8666ZM7.95842 22.2834H12.9584V19.7834H7.95842V22.2834ZM17.475 27.8666H22.475V25.3666H17.475V27.8666ZM17.475 22.2834H22.475V19.7834H17.475V22.2834ZM26.9749 27.8666H31.9749V25.3666H26.9749V27.8666ZM26.9749 22.2834H31.9749V19.7834H26.9749V22.2834Z" fill="currentColor"/>
</svg>
