<svg viewBox="0 0 97 97">
<path d="M89.4209 70.244C89.1409 68.604 87.9009 64.844 81.4209 65.244C79.2598 65.377 77.0956 65.0379 75.0787 64.2505C73.0617 63.4631 71.2403 62.2461 69.7409 60.684L64.4209 55.124C68.6609 45.004 64.4209 30.164 53.1009 18.884C40.3009 6.08401 25.3409 4.56401 14.9009 14.884C12.5471 17.162 10.7245 19.931 9.56295 22.9939C8.40143 26.0567 7.92956 29.338 8.18094 32.604C9.15603 40.4658 12.9168 47.7177 18.7809 53.044C26.0742 60.8459 36.1145 65.5074 46.7809 66.044C49.6739 66.0485 52.5402 65.4915 55.2209 64.404L63.2209 72.404C65.3875 74.6618 66.7872 77.5451 67.2209 80.644C67.278 82.0783 67.6225 83.4865 68.234 84.7852C68.8455 86.0838 69.7116 87.2464 70.7809 88.204C71.7584 88.9446 72.9547 89.3387 74.1809 89.324C74.4998 89.3625 74.8221 89.3625 75.1409 89.324C77.161 88.8918 78.9633 87.7596 80.2295 86.1274C81.4957 84.4952 82.1444 82.4681 82.0609 80.404C82.1769 80.0885 82.3691 79.8066 82.6203 79.5833C82.8715 79.36 83.174 79.2022 83.5009 79.124C85.4076 78.6319 87.0658 77.4539 88.1581 75.8154C89.2504 74.177 89.7 72.1933 89.4209 70.244ZM81.1809 73.444C79.8323 73.9892 78.6577 74.8918 77.7838 76.0547C76.9098 77.2177 76.3695 78.5969 76.2209 80.044C76.2209 81.284 75.7009 83.444 74.4609 83.684C74.4609 83.684 73.701 83.084 73.2609 80.124C72.6132 75.7096 70.5498 71.6249 67.3809 68.484L60.1809 61.284L60.7009 60.884L61.1009 60.404L65.4209 64.844C67.53 67.0137 70.0854 68.699 72.9102 69.7834C75.7351 70.8677 78.7618 71.3251 81.7809 71.124H82.3809C83.0609 71.124 83.4209 71.124 83.5009 71.124C83.5409 72.044 82.7809 72.764 81.1809 73.444Z" fill="currentColor"/>
</svg>
