<svg viewBox="0 0 97 97">
<path d="M87.9088 32.9814H65.0288V20.2614H59.0288V32.9814H51.7888V20.2614H45.7888V32.9814H38.5888V20.2614H32.5888V32.9814H9.70878C8.91313 32.9814 8.15006 33.2975 7.58746 33.8601C7.02485 34.4227 6.70877 35.1858 6.70877 35.9814V84.9414C6.70339 85.3369 6.77731 85.7294 6.92617 86.0958C7.07503 86.4622 7.29581 86.7951 7.57546 87.0747C7.85512 87.3544 8.18798 87.5752 8.55439 87.724C8.9208 87.8729 9.31332 87.9468 9.70878 87.9414H87.9088C88.7044 87.9414 89.4675 87.6253 90.0301 87.0627C90.5927 86.5001 90.9088 85.7371 90.9088 84.9414V35.9814C90.8984 35.189 90.579 34.4319 90.0186 33.8716C89.4583 33.3112 88.7012 32.9918 87.9088 32.9814ZM84.9088 38.9814V53.6214C82.9534 53.0719 81.2803 51.7991 80.2288 50.0614C79.9413 49.6488 79.5584 49.3118 79.1127 49.0791C78.667 48.8464 78.1716 48.7249 77.6688 48.7249C77.1659 48.7249 76.6706 48.8464 76.2248 49.0791C75.7791 49.3118 75.3962 49.6488 75.1088 50.0614C74.4211 51.2532 73.4377 52.2475 72.2535 52.9482C71.0693 53.6489 69.7244 54.0323 68.3488 54.0614C66.9731 54.0323 65.6282 53.6489 64.4441 52.9482C63.2599 52.2475 62.2764 51.2532 61.5888 50.0614C61.3013 49.6488 60.9184 49.3118 60.4727 49.0791C60.027 48.8464 59.5316 48.7249 59.0288 48.7249C58.5259 48.7249 58.0306 48.8464 57.5848 49.0791C57.1391 49.3118 56.7562 49.6488 56.4688 50.0614C55.7811 51.2532 54.7977 52.2475 53.6135 52.9482C52.4293 53.6489 51.0844 54.0323 49.7088 54.0614C48.3195 54.046 46.9581 53.6691 45.7588 52.9677C44.5594 52.2663 43.5634 51.2647 42.8688 50.0614C42.6105 49.6138 42.2366 49.2439 41.7861 48.9905C41.3357 48.7372 40.8254 48.6097 40.3088 48.6214C39.7996 48.6209 39.2992 48.7535 38.8572 49.0061C38.4151 49.2587 38.0468 49.6225 37.7888 50.0614C37.1011 51.2532 36.1177 52.2475 34.9335 52.9482C33.7493 53.6489 32.4044 54.0323 31.0288 54.0614C29.3778 54.0689 27.765 53.5656 26.4115 52.6202C25.058 51.6749 24.0301 50.334 23.4688 48.7814C23.2586 48.2023 22.8751 47.7019 22.3706 47.3483C21.8661 46.9946 21.2649 46.8049 20.6488 46.8049C20.0326 46.8049 19.4315 46.9946 18.9269 47.3483C18.4224 47.7019 18.039 48.2023 17.8288 48.7814C17.3802 49.9355 16.6698 50.9698 15.7536 51.8027C14.8374 52.6356 13.7403 53.2445 12.5488 53.5814V38.9814H84.9088Z" fill="currentColor"/>
<path d="M38.5483 9.5014H32.5483V15.1814H38.5483V9.5014Z" fill="currentColor"/>
<path d="M51.7495 9.5014H45.7495V15.1814H51.7495V9.5014Z" fill="currentColor"/>
<path d="M64.9897 9.5014H58.9897V15.1814H64.9897V9.5014Z" fill="currentColor"/>
</svg>
