<svg viewBox="0 0 40 40">
<path d="M29 11.4084H26.25V9.09169C26.25 8.14133 25.8724 7.2299 25.2004 6.55789C24.5284 5.88589 23.617 5.50836 22.6666 5.50836H11C10.0496 5.50836 9.13817 5.88589 8.46616 6.55789C7.79416 7.2299 7.41663 8.14133 7.41663 9.09169V25.0417C7.42956 25.9792 7.80773 26.8746 8.4707 27.5376C9.13367 28.2006 10.0291 28.5788 10.9666 28.5917H13.7166V30.8917C13.7166 31.3645 13.8097 31.8326 13.9907 32.2694C14.1716 32.7061 14.4368 33.103 14.771 33.4373C15.1053 33.7716 15.5022 34.0367 15.939 34.2177C16.3757 34.3986 16.8439 34.4917 17.3166 34.4917H28.9833C29.9381 34.4917 30.8537 34.1124 31.5289 33.4373C32.204 32.7621 32.5833 31.8465 32.5833 30.8917V14.9584C32.5702 14.0151 32.1874 13.1148 31.5173 12.4509C30.8472 11.787 29.9433 11.4126 29 11.4084ZM10.9666 26.1417C10.6778 26.1373 10.4023 26.0195 10.1996 25.8137C9.99686 25.6079 9.88326 25.3306 9.88329 25.0417V9.09169C9.88329 8.80437 9.99743 8.52883 10.2006 8.32566C10.4038 8.1225 10.6793 8.00836 10.9666 8.00836H22.6333C22.9206 8.00836 23.1962 8.1225 23.3993 8.32566C23.6025 8.52883 23.7166 8.80437 23.7166 9.09169V11.4084H17.2833C17.0392 11.3912 16.7941 11.3912 16.55 11.4084C15.7412 11.5829 15.0163 12.0283 14.4951 12.6707C13.9738 13.3132 13.6874 14.1144 13.6833 14.9417V26.075L10.9666 26.1417Z" fill="currentColor"/>
</svg>
