<svg viewBox="0 0 97 97">
<path d="M75.1216 16.8415V10.8415H57.5616C56.8665 10.8367 56.1914 11.0734 55.6515 11.5112C55.1117 11.9489 54.7405 12.5605 54.6016 13.2415L49.8016 36.6015H25.5216C25.0897 36.6034 24.6632 36.6973 24.2705 36.877C23.8778 37.0566 23.5278 37.3179 23.244 37.6434C22.9601 37.9689 22.7489 38.3511 22.6243 38.7646C22.4998 39.1781 22.4647 39.6134 22.5216 40.0415L28.7616 84.0415C28.8678 84.7587 29.2303 85.4131 29.7818 85.8837C30.3333 86.3544 31.0366 86.6093 31.7616 86.6015H61.8016C62.522 86.6081 63.2201 86.3517 63.765 85.8805C64.3099 85.4092 64.6642 84.7553 64.7616 84.0415L71.0015 40.0415C71.0672 39.6131 71.0366 39.1755 70.9121 38.7603C70.7875 38.3452 70.5721 37.963 70.2815 37.6415C70.0017 37.3211 69.6578 37.0629 69.2719 36.8838C68.8861 36.7046 68.4669 36.6085 68.0415 36.6015H56.0415L60.0415 16.8415H75.1216ZM63.8816 47.6015H29.6816L28.9616 42.6015H64.5616L63.8816 47.6015Z" fill="currentColor"/>
</svg>
