<svg viewBox="0 0 40 40">
<path d="M16.025 4.89172H7.60836C6.18162 4.89172 5.02502 6.04831 5.02502 7.47505V15.8917C5.02502 17.3185 6.18162 18.475 7.60836 18.475H16.025C17.4518 18.475 18.6084 17.3185 18.6084 15.8917V7.47505C18.6084 6.04831 17.4518 4.89172 16.025 4.89172Z" fill="currentColor"/>
<path d="M16.025 21.525H7.60836C6.18162 21.525 5.02502 22.6816 5.02502 24.1084V32.525C5.02502 33.9518 6.18162 35.1084 7.60836 35.1084H16.025C17.4518 35.1084 18.6084 33.9518 18.6084 32.525V24.1084C18.6084 22.6816 17.4518 21.525 16.025 21.525Z" fill="currentColor"/>
<path d="M32.3918 4.89172H23.9751C22.5484 4.89172 21.3918 6.04831 21.3918 7.47505V15.8917C21.3918 17.3185 22.5484 18.475 23.9751 18.475H32.3918C33.8185 18.475 34.9751 17.3185 34.9751 15.8917V7.47505C34.9751 6.04831 33.8185 4.89172 32.3918 4.89172Z" fill="currentColor"/>
<path d="M32.3918 21.525H23.9751C22.5484 21.525 21.3918 22.6816 21.3918 24.1084V32.525C21.3918 33.9518 22.5484 35.1084 23.9751 35.1084H32.3918C33.8185 35.1084 34.9751 33.9518 34.9751 32.525V24.1084C34.9751 22.6816 33.8185 21.525 32.3918 21.525Z" fill="currentColor"/>
</svg>
