<svg viewBox="0 0 97 97">
<path d="M77.6253 25.2607C72.1756 21.484 65.8635 19.1919 59.2928 18.6038C58.9357 18.5861 58.5816 18.6771 58.2757 18.8651C57.9697 19.0531 57.7259 19.3296 57.5754 19.6591C57.5754 19.6591 57.3357 20.2274 57.0561 21.1204C62.4485 21.9511 67.6304 23.8399 72.3132 26.6814C72.7083 26.9256 72.9927 27.3182 73.1049 27.7741C73.217 28.23 73.1478 28.7125 72.9123 29.1169C72.7497 29.3643 72.5301 29.5676 72.2725 29.7091C72.015 29.8505 71.7273 29.9259 71.4346 29.9287C71.1127 29.9307 70.7959 29.8467 70.5159 29.6852C63.8634 25.9018 56.3719 23.904 48.7486 23.8806C41.1378 23.902 33.6586 25.9001 27.0212 29.6852C26.828 29.8108 26.6121 29.8959 26.386 29.9354C26.1599 29.9748 25.9284 29.9679 25.705 29.9149C25.4817 29.8619 25.271 29.764 25.0855 29.627C24.8999 29.4899 24.7433 29.3165 24.6248 29.1169C24.5012 28.9206 24.4174 28.7011 24.3786 28.4713C24.3398 28.2416 24.3466 28.0062 24.3987 27.7792C24.4509 27.5522 24.5472 27.3381 24.6821 27.1496C24.8169 26.961 24.9876 26.8018 25.184 26.6814C29.8698 23.8464 35.0504 21.9581 40.4411 21.1204C40.1615 20.2274 39.9219 19.6997 39.9219 19.6591C39.7806 19.3224 39.5388 19.0393 39.2306 18.85C38.9224 18.6606 38.5634 18.5744 38.2044 18.6038C31.5988 19.2025 25.2569 21.5233 19.7921 25.3419C16.1176 28.7516 8.80856 48.8848 8.80856 66.2579C8.80692 66.5594 8.89006 66.8551 9.04819 67.1103C14.0806 76.1621 27.86 78.5164 31.0152 78.5976C31.2898 78.6047 31.5618 78.5416 31.8061 78.4139C32.0504 78.2862 32.2591 78.0981 32.4131 77.867L35.6083 73.4425C30.8077 72.3358 26.2985 70.1898 22.3882 67.1509C22.2275 66.9887 22.1001 66.7958 22.0131 66.5833C21.9261 66.3708 21.8814 66.143 21.8814 65.9128C21.8814 65.6827 21.9261 65.4549 22.0131 65.2424C22.1001 65.0299 22.2275 64.837 22.3882 64.6748C22.5478 64.5116 22.7376 64.382 22.9466 64.2936C23.1557 64.2052 23.3799 64.1597 23.6063 64.1597C23.8328 64.1597 24.057 64.2052 24.266 64.2936C24.4751 64.382 24.6649 64.5116 24.8245 64.6748C31.826 69.6501 40.2555 72.1202 48.7885 71.6971C57.3212 72.1171 65.7498 69.6473 72.7526 64.6748C73.0818 64.3427 73.5269 64.1563 73.9907 64.1563C74.4546 64.1563 74.8997 64.3427 75.2289 64.6748C75.5437 65.0075 75.7196 65.4512 75.7196 65.9128C75.7196 66.3745 75.5437 66.8182 75.2289 67.1509C71.3186 70.1898 66.8093 72.3358 62.0087 73.4425L65.2039 77.867C65.3579 78.0981 65.5667 78.2862 65.811 78.4139C66.0553 78.5416 66.3272 78.6047 66.6018 78.5976C69.7571 78.5976 83.5364 76.1621 88.5689 67.1103C88.727 66.8551 88.8101 66.5594 88.8085 66.2579C88.6887 48.8848 81.3796 28.7516 77.6253 25.2607ZM37.4456 59.195C35.7214 59.07 34.1158 58.2575 32.9786 56.9345C31.8414 55.6115 31.2649 53.8853 31.3747 52.1321C31.2649 50.379 31.8414 48.6528 32.9786 47.3298C34.1158 46.0068 35.7214 45.1942 37.4456 45.0692C39.1769 45.184 40.7926 45.9921 41.9383 47.3163C43.0839 48.6404 43.6659 50.3724 43.5564 52.1321C43.6659 53.8918 43.0839 55.6238 41.9383 56.948C40.7926 58.2721 39.1769 59.0802 37.4456 59.195ZM60.0516 59.195C58.3275 59.07 56.7219 58.2575 55.5847 56.9345C54.4475 55.6115 53.871 53.8853 53.9808 52.1321C53.871 50.379 54.4475 48.6528 55.5847 47.3298C56.7219 46.0068 58.3275 45.1942 60.0516 45.0692C61.7758 45.1942 63.3814 46.0068 64.5186 47.3298C65.6558 48.6528 66.2323 50.379 66.1225 52.1321C66.2323 53.8853 65.6558 55.6115 64.5186 56.9345C63.3814 58.2575 61.7758 59.07 60.0516 59.195Z" fill="currentColor"/>
</svg>
