<svg viewBox="0 0 96 96">
<path d="M23.8636 46.6182L47.2611 60.8727C47.5625 61.049 47.9086 61.1373 48.2591 61.1272C48.5976 61.1343 48.931 61.046 49.2201 60.8727L72.1371 46.6182C72.3461 46.489 72.526 46.3191 72.6659 46.119C72.8057 45.9189 72.9025 45.6928 72.9503 45.4545C73.0626 44.9831 72.983 44.4872 72.7285 44.0727L49.8115 8.98182C49.666 8.6963 49.4451 8.45452 49.172 8.28179C48.8988 8.10906 48.5835 8.01173 48.2591 8C47.9499 8.00051 47.6457 8.07734 47.3745 8.22346C47.1033 8.36958 46.8736 8.58031 46.7066 8.83636L23.3091 44.0727C23.1689 44.2718 23.0734 44.498 23.0287 44.7363C22.9841 44.9745 22.9915 45.2193 23.0504 45.4545C23.1585 45.9312 23.4499 46.3481 23.8636 46.6182ZM50.1072 38.1454L67.2211 45.4182L50.1072 56V38.1454ZM46.4109 34.1818L29.7037 41.0909L46.4109 16.0364V34.1818Z" fill="currentColor"/>
<path d="M72.5068 52.9818C72.2083 52.6812 71.8132 52.4916 71.3887 52.4451C70.9641 52.3987 70.5364 52.4984 70.1781 52.7273L48.0004 66.6546L25.8226 52.7273C25.4644 52.4984 25.0366 52.3987 24.6121 52.4451C24.1875 52.4916 23.7924 52.6812 23.494 52.9818C23.2239 53.3115 23.0767 53.7221 23.0767 54.1455C23.0767 54.5688 23.2239 54.9795 23.494 55.3091L46.6327 87.0909C46.7735 87.3363 46.9703 87.5462 47.2077 87.704C47.445 87.8618 47.7164 87.9631 48.0004 88C48.4811 87.9955 48.9427 87.8138 49.2941 87.4909L49.5528 87.2L72.6546 55.2727C72.895 54.93 73.0111 54.5176 72.9843 54.1021C72.9575 53.6865 72.7892 53.2919 72.5068 52.9818ZM46.1892 69.8182V80.4364L31.9215 60.8364L46.1892 69.8182Z" fill="currentColor"/>
</svg>
