<svg viewBox="0 0 40 40">
<path d="M35.6063 19.1917C33.6933 16.9245 31.4451 14.963 28.9396 13.375L32.5396 9.77505L30.1896 7.42505L25.8396 11.775C23.9917 10.975 22.0031 10.5501 19.9896 10.525C11.4063 10.525 4.65626 18.8584 4.37293 19.1917C4.19438 19.4137 4.09705 19.6901 4.09705 19.975C4.09705 20.26 4.19438 20.5363 4.37293 20.7584C6.28588 23.0255 8.53406 24.9871 11.0396 26.575L7.4396 30.2084L9.80626 32.575L14.1396 28.225C15.9886 29.0198 17.9771 29.439 19.9896 29.4584C28.5896 29.4584 35.3229 21.125 35.6063 20.8084C35.7977 20.5826 35.9028 20.2961 35.9028 20C35.9028 19.704 35.7977 19.4175 35.6063 19.1917ZM13.1563 19.975C13.1563 18.1612 13.8757 16.4214 15.1567 15.1372C16.4377 13.8531 18.1758 13.1295 19.9896 13.125C21.2255 13.1341 22.4355 13.4798 23.4896 14.125L22.2563 15.3417C21.5525 14.988 20.7772 14.7999 19.9896 14.7917C18.6178 14.7961 17.3037 15.3442 16.3352 16.3158C15.3667 17.2873 14.8229 18.6032 14.8229 19.975C14.8097 20.7575 14.975 21.5327 15.3063 22.2417L14.1396 23.5417C13.4819 22.4694 13.141 21.2329 13.1563 19.975ZM19.9896 26.8084C18.7552 26.8052 17.5451 26.4652 16.4896 25.825L17.7229 24.5917C18.4246 24.9512 19.2012 25.1396 19.9896 25.1417C21.3614 25.1417 22.6773 24.5979 23.6489 23.6294C24.6205 22.661 25.1685 21.3469 25.1729 19.975C25.1648 19.1874 24.9766 18.4121 24.6229 17.7084L25.8396 16.475C26.4848 17.5292 26.8305 18.7392 26.8396 19.975C26.8462 20.8788 26.6739 21.7749 26.3326 22.6118C25.9913 23.4486 25.4878 24.2097 24.851 24.8511C24.2143 25.4925 23.4569 26.0015 22.6226 26.3489C21.7882 26.6962 20.8934 26.8751 19.9896 26.875V26.8084Z" fill="currentColor"/>
</svg>
