<svg viewBox="0 0 40 40">
<path d="M28.0253 29.4334C28.0253 29.518 28.0084 29.6017 27.9755 29.6797C27.9426 29.7576 27.8945 29.8282 27.8339 29.8872C27.7733 29.9463 27.7015 29.9926 27.6228 30.0234C27.544 30.0542 27.4598 30.069 27.3753 30.0667H10.7086C10.5406 30.0667 10.3795 30 10.2608 29.8812C10.142 29.7625 10.0753 29.6014 10.0753 29.4334V12.7667C10.0731 12.6822 10.0878 12.598 10.1186 12.5192C10.1494 12.4405 10.1957 12.3687 10.2548 12.3081C10.3138 12.2475 10.3844 12.1994 10.4623 12.1665C10.5403 12.1336 10.624 12.1167 10.7086 12.1168H22.1919V8.78343H10.7086C9.65504 8.78784 8.64615 9.20942 7.90273 9.95596C7.15931 10.7025 6.74193 11.7132 6.74194 12.7667V29.4334C6.74633 30.4841 7.16566 31.4905 7.9086 32.2334C8.65155 32.9764 9.65792 33.3957 10.7086 33.4001H27.3753C28.4288 33.4001 29.4395 32.9827 30.186 32.2393C30.9326 31.4959 31.3542 30.487 31.3586 29.4334V17.2501H28.0253V29.4334Z" fill="currentColor"/>
<path d="M33.1253 7.63347C32.9562 7.22622 32.6325 6.90258 32.2253 6.73346C32.0249 6.64806 31.8098 6.60273 31.592 6.6001H26.5086C26.0666 6.6001 25.6427 6.77572 25.3301 7.08828C25.0176 7.40084 24.842 7.82474 24.842 8.26676C24.842 8.70879 25.0176 9.13274 25.3301 9.4453C25.6427 9.75786 26.0666 9.93343 26.5086 9.93343H27.5753L20.2586 17.2501C20.1024 17.4051 19.9784 17.5894 19.8938 17.7925C19.8092 17.9956 19.7656 18.2134 19.7656 18.4334C19.7656 18.6535 19.8092 18.8713 19.8938 19.0744C19.9784 19.2775 20.1024 19.4619 20.2586 19.6168C20.5691 19.9247 20.9881 20.0983 21.4253 20.1001C21.6446 20.1014 21.8621 20.0594 22.0651 19.9764C22.2682 19.8935 22.4529 19.7713 22.6086 19.6168L29.9253 12.3001V13.3501C29.9253 13.7922 30.1009 14.2161 30.4135 14.5286C30.726 14.8412 31.1499 15.0168 31.592 15.0168C32.034 15.0168 32.4579 14.8412 32.7705 14.5286C33.083 14.2161 33.2586 13.7922 33.2586 13.3501V8.26676C33.256 8.04897 33.2107 7.83384 33.1253 7.63347Z" fill="currentColor"/>
</svg>
