<svg viewBox="0 0 40 40">
<path d="M34.6508 11.3169C33.2256 8.9384 31.165 7.00477 28.7008 5.73354C26.0266 4.38178 23.0635 3.70109 20.0675 3.75021C16.9823 3.69287 13.9325 4.41519 11.2008 5.85022C8.69482 7.18631 6.61119 9.1949 5.18413 11.6502C3.74346 14.1884 3.00696 17.0653 3.0508 19.9836C3.01538 22.8986 3.74523 25.772 5.16747 28.3169C6.57395 30.7793 8.64053 32.7997 11.1341 34.1502C13.8434 35.5811 16.8706 36.3035 19.9341 36.2502C21.3339 36.2437 22.7296 36.0985 24.1008 35.8169C25.3865 35.5753 26.632 35.1546 27.8008 34.5669L28.1175 34.4002L26.9175 30.8336L26.4841 31.0502C25.4738 31.55 24.4041 31.9196 23.3008 32.1502C22.2063 32.395 21.089 32.5234 19.9675 32.5336C17.6134 32.5516 15.2925 31.9785 13.2175 30.8669C11.3208 29.8412 9.75452 28.298 8.7008 26.4169C7.61812 24.4002 7.07285 22.1387 7.11747 19.8502C7.09927 17.5756 7.67367 15.3354 8.78414 13.3502C9.84789 11.4637 11.4336 9.92428 13.3508 8.91688C15.447 7.79777 17.7914 7.22459 20.1675 7.25022C22.5125 7.20104 24.8344 7.72148 26.9341 8.76689C28.812 9.71782 30.3833 11.1794 31.4675 12.9836C32.5906 14.8848 33.1673 17.059 33.1341 19.2669C33.2096 20.7989 32.9713 22.3302 32.4341 23.7669C32.311 24.1521 32.0721 24.49 31.75 24.7346C31.4279 24.9792 31.0383 25.1185 30.6341 25.1336C30.4496 25.1411 30.2658 25.1076 30.0957 25.0355C29.9257 24.9635 29.7737 24.8547 29.6508 24.7169C29.3359 24.2712 29.1938 23.7263 29.2508 23.1835V10.9669H24.5675V12.6336C23.9941 12.1417 23.3474 11.7424 22.6508 11.4502C21.5516 10.9979 20.3727 10.7712 19.1841 10.7835C17.6049 10.7655 16.0502 11.1743 14.6841 11.9669C13.3492 12.7639 12.2638 13.9186 11.5508 15.3002C10.7803 16.7573 10.3905 18.3855 10.4175 20.0335C10.3941 21.6918 10.7836 23.3299 11.5508 24.8002C12.2638 26.1819 13.3492 27.3365 14.6841 28.1336C16.0502 28.9261 17.6049 29.335 19.1841 29.3169C20.3368 29.3777 21.4881 29.1752 22.5508 28.7247C23.6136 28.2742 24.5597 27.5876 25.3175 26.7169C25.6491 27.3984 26.1624 27.9751 26.8008 28.3836C27.7006 28.9717 28.7597 29.2685 29.8341 29.2336C30.8698 29.2642 31.8961 29.0291 32.8151 28.5506C33.7341 28.0721 34.5153 27.3662 35.0841 26.5002C36.4218 24.3087 37.0666 21.7643 36.9341 19.2002C36.896 16.4149 36.1072 13.6914 34.6508 11.3169ZM23.1508 23.8669C22.7167 24.3074 22.197 24.6544 21.6237 24.8866C21.0505 25.1187 20.4358 25.2311 19.8175 25.2169C19.1977 25.231 18.5817 25.1169 18.008 24.8817C17.4344 24.6465 16.9156 24.2953 16.4841 23.8502C15.5814 22.8357 15.1144 21.5065 15.1841 20.1502C15.1448 19.4832 15.2396 18.815 15.4629 18.1853C15.6862 17.5555 16.0334 16.9769 16.4841 16.4836C16.9189 16.0438 17.4387 15.6974 18.0118 15.4652C18.5849 15.2331 19.1993 15.1203 19.8175 15.1336C20.4492 15.1118 21.0786 15.2204 21.6664 15.4527C22.2543 15.6849 22.7879 16.0359 23.2341 16.4836C23.6878 16.9755 24.0381 17.5535 24.2643 18.1834C24.4904 18.8132 24.5879 19.482 24.5508 20.1502C24.5867 20.8272 24.4873 21.5047 24.2584 22.1428C24.0295 22.781 23.6756 23.3671 23.2175 23.8669H23.1508Z" fill="currentColor"/>
</svg>
