<svg viewBox="0 0 40 40">
<path d="M35.625 19.225C35.3417 18.875 28.5917 10.5583 19.9917 10.5583C11.3917 10.5583 4.65835 18.8917 4.37501 19.225C4.19646 19.4471 4.09912 19.7234 4.09912 20.0084C4.09912 20.2933 4.19646 20.5697 4.37501 20.7917C4.65835 21.1417 11.4083 29.4417 19.9917 29.4417C28.575 29.4417 35.3417 21.1084 35.625 20.7917C35.8036 20.5697 35.9009 20.2933 35.9009 20.0084C35.9009 19.7234 35.8036 19.4471 35.625 19.225ZM19.9917 26.9084C18.1807 26.904 16.4452 26.1826 15.1646 24.9021C13.8841 23.6215 13.1627 21.886 13.1583 20.075C13.1583 18.2612 13.8777 16.5214 15.1588 15.2372C16.4398 13.9531 18.1778 13.2294 19.9917 13.225C21.8084 13.225 23.5507 13.9467 24.8354 15.2313C26.12 16.516 26.8417 18.2583 26.8417 20.075C26.8373 21.8889 26.1136 23.6269 24.8295 24.9079C23.5453 26.189 21.8055 26.9084 19.9917 26.9084Z" fill="currentColor"/>
<path d="M19.9917 14.8251C18.6199 14.8295 17.3058 15.3775 16.3373 16.3491C15.3688 17.3207 14.825 18.6366 14.825 20.0084C14.825 20.6869 14.9587 21.3587 15.2183 21.9856C15.478 22.6124 15.8585 23.182 16.3383 23.6618C16.8181 24.1416 17.3877 24.5221 18.0145 24.7818C18.6414 25.0414 19.3132 25.1751 19.9917 25.1751C20.6716 25.1773 21.3452 25.0452 21.974 24.7866C22.6028 24.5279 23.1743 24.1477 23.6559 23.6677C24.1374 23.1877 24.5195 22.6174 24.7802 21.9895C25.0408 21.3615 25.175 20.6883 25.175 20.0084C25.175 18.6337 24.6289 17.3153 23.6569 16.3432C22.6848 15.3712 21.3664 14.8251 19.9917 14.8251Z" fill="currentColor"/>
</svg>
