<svg viewBox="0 0 40 40">
<path d="M9.55004 16.1941C8.8574 16.1955 8.1788 16.3895 7.59012 16.7545C7.00145 17.1194 6.52592 17.641 6.21671 18.2608H3.33337V21.5941H6.21671C6.51895 22.2215 6.9921 22.7508 7.58176 23.1212C8.17143 23.4917 8.85367 23.6882 9.55004 23.6882C10.2464 23.6882 10.9286 23.4917 11.5183 23.1212C12.108 22.7508 12.5811 22.2215 12.8834 21.5941H35.6167V18.2608H12.8667C12.5588 17.6435 12.0858 17.1236 11.5004 16.7588C10.9149 16.394 10.2398 16.1985 9.55004 16.1941Z" fill="currentColor"/>
<path d="M20.7167 27.3608C20.0232 27.3583 19.343 27.5507 18.7537 27.9161C18.1643 28.2815 17.6895 28.8052 17.3834 29.4274H3.33337V32.7608H17.4C17.7062 33.383 18.181 33.9067 18.7703 34.2721C19.3597 34.6375 20.0399 34.8299 20.7334 34.8274C21.426 34.8261 22.1046 34.6321 22.6933 34.2671C23.282 33.9021 23.7575 33.3806 24.0667 32.7608H35.7334V29.4274H24.0667C23.7562 28.8051 23.2781 28.2819 22.6862 27.9167C22.0943 27.5516 21.4122 27.359 20.7167 27.3608Z" fill="currentColor"/>
<path d="M31.5334 7.09411C31.2311 6.46675 30.758 5.93741 30.1683 5.56697C29.5786 5.19652 28.8964 5 28.2 5C27.5037 5 26.8214 5.19652 26.2318 5.56697C25.6421 5.93741 25.1689 6.46675 24.8667 7.09411H3.33337V10.4274H24.8667C25.1689 11.0548 25.6421 11.5841 26.2318 11.9546C26.8214 12.325 27.5037 12.5215 28.2 12.5215C28.8964 12.5215 29.5786 12.325 30.1683 11.9546C30.758 11.5841 31.2311 11.0548 31.5334 10.4274H35.6667V7.09411H31.5334Z" fill="currentColor"/>
</svg>
