<svg viewBox="0 0 40 40">
<path fill-rule="evenodd" clip-rule="evenodd" d="M8 5.99976C6.89543 5.99976 6 6.89519 6 7.99976V31.9998C6 33.1043 6.89543 33.9998 8 33.9998H32C33.1046 33.9998 34 33.1043 34 31.9998V7.99976C34 6.89519 33.1046 5.99976 32 5.99976H8ZM30.0824 13.5702H27.8451C26.0896 13.5702 25.7548 14.4357 25.7548 15.6932V18.6898H29.7068L29.1679 23.0419H25.7548V33.9998H21.3945V23.0419H17.8345V18.6898H21.3945V15.2604C21.3945 11.5289 23.5992 9.50391 26.8244 9.50391C28.3677 9.50391 29.6986 9.62638 30.0824 9.67538V13.5702Z" fill="currentColor"/>
</svg>
