<svg viewBox="0 0 40 40">
<path d="M20.4915 20C20.4915 18.8043 20.9665 17.6575 21.812 16.812C22.6575 15.9665 23.8043 15.4915 25 15.4915C26.1957 15.4915 27.3425 15.9665 28.188 16.812C29.0335 17.6575 29.5085 18.8043 29.5085 20C29.5085 21.1957 29.0335 22.3425 28.188 23.188C27.3425 24.0335 26.1957 24.5085 25 24.5085C23.8043 24.5085 22.6575 24.0335 21.812 23.188C20.9665 22.3425 20.4915 21.1957 20.4915 20Z" fill="currentColor"/>
<path d="M11 29.4915C11 28.2958 11.475 27.1491 12.3205 26.3036C13.166 25.458 14.3128 24.9831 15.5085 24.9831H20.0169V29.4915C20.0169 30.6872 19.542 31.834 18.6964 32.6795C17.8509 33.525 16.7042 34 15.5085 34C14.3128 34 13.166 33.525 12.3205 32.6795C11.475 31.834 11 30.6872 11 29.4915Z" fill="currentColor"/>
<path d="M20.4915 6V15.0169H25C26.1957 15.0169 27.3425 14.542 28.188 13.6964C29.0335 12.8509 29.5085 11.7042 29.5085 10.5085C29.5085 9.31275 29.0335 8.166 28.188 7.3205C27.3425 6.475 26.1957 6 25 6H20.4915Z" fill="currentColor"/>
<path d="M11 10.5085C11 11.7042 11.475 12.8509 12.3205 13.6964C13.166 14.542 14.3128 15.0169 15.5085 15.0169H20.0169V6H15.5085C14.3128 6 13.166 6.475 12.3205 7.3205C11.475 8.166 11 9.31275 11 10.5085Z" fill="currentColor"/>
<path d="M11 20C11 21.1957 11.475 22.3425 12.3205 23.188C13.166 24.0335 14.3128 24.5085 15.5085 24.5085H20.0169V15.4915H15.5085C14.3128 15.4915 13.166 15.9665 12.3205 16.812C11.475 17.6575 11 18.8043 11 20Z" fill="currentColor"/>
</svg>
