<svg viewBox="0 0 41 40">
<path fill-rule="evenodd" clip-rule="evenodd" d="M20.0217 3.30666C15.942 3.27535 11.9859 4.7051 8.8688 7.3373C5.75172 9.96949 3.67956 13.6303 3.02714 17.6576C2.37472 21.6849 3.18512 25.8127 5.31175 29.2944C7.43838 32.776 10.7408 35.3817 14.6217 36.64C15.4717 36.8067 15.7884 36.2733 15.7884 35.8233C15.7884 35.3733 15.7884 34.34 15.7884 32.9067C11.005 33.9067 10.0217 30.59 10.0217 30.59C9.70121 29.5596 9.02867 28.6747 8.12171 28.09C6.57171 27.0233 8.23838 27.0567 8.23838 27.0567C8.7764 27.1311 9.2903 27.3275 9.74089 27.6308C10.1915 27.9341 10.5669 28.3362 10.8384 28.8067C11.0698 29.2318 11.3835 29.6066 11.7612 29.9094C12.1389 30.2121 12.573 30.4367 13.0383 30.5701C13.5036 30.7035 13.9908 30.743 14.4715 30.6863C14.9522 30.6297 15.4169 30.4779 15.8384 30.24C15.9151 29.369 16.2991 28.5538 16.9217 27.94C13.1217 27.5233 9.13838 26.0567 9.13838 19.5067C9.12604 17.8314 9.74487 16.213 10.8717 14.9733C10.3624 13.4939 10.4218 11.878 11.0384 10.44C11.0384 10.44 12.4884 9.98999 15.7384 12.1067C18.5439 11.3509 21.4995 11.3509 24.305 12.1067C27.555 9.90666 28.9884 10.44 28.9884 10.44C29.6152 11.8748 29.6806 13.4926 29.1717 14.9733C30.3164 16.2231 30.9422 17.862 30.9217 19.5567C30.9217 26.1233 26.9217 27.5567 23.1217 27.99C23.5294 28.4044 23.8432 28.9017 24.0416 29.4481C24.24 29.9945 24.3185 30.5772 24.2717 31.1567C24.2717 33.44 24.2717 35.2733 24.2717 35.84C24.2717 36.4067 24.5884 36.8233 25.455 36.6567C29.33 35.3873 32.6238 32.7752 34.7424 29.2913C36.861 25.8074 37.665 21.6811 37.0094 17.6566C36.3537 13.6322 34.2816 9.97448 31.1667 7.34323C28.0518 4.71198 24.0991 3.28038 20.0217 3.30666Z" fill="currentColor"/>
</svg>
