<svg viewBox="0 0 40 40">
<path d="M33.9477 21.7416L32.3861 16.9216L29.2786 7.36615C29.2429 7.25949 29.1746 7.16676 29.0833 7.10105C28.992 7.03535 28.8823 7 28.7699 7C28.6574 7 28.5477 7.03535 28.4564 7.10105C28.3651 7.16676 28.2968 7.25949 28.2611 7.36615L25.1578 16.9216H14.8485L11.736 7.36615C11.7003 7.25949 11.632 7.16676 11.5407 7.10105C11.4494 7.03535 11.3397 7 11.2273 7C11.1148 7 11.0051 7.03535 10.9138 7.10105C10.8225 7.16676 10.7542 7.25949 10.7185 7.36615L7.62345 16.9216L6.05272 21.7416C5.98273 21.9559 5.98242 22.187 6.05185 22.4015C6.12128 22.616 6.25687 22.8031 6.43918 22.9358L19.9994 32.7881L33.5613 22.9358C33.7433 22.8028 33.8786 22.6158 33.948 22.4013C34.0174 22.1869 34.0173 21.956 33.9477 21.7416Z" fill="currentColor"/>
</svg>
