<svg viewBox="0 0 40 40">
<path d="M33.3832 14.3322L23.5832 6.51556C22.565 5.69721 21.2979 5.25111 19.9916 5.25111C18.6852 5.25111 17.4181 5.69721 16.3999 6.51556L6.59988 14.3322C5.92575 14.8719 5.38224 15.557 5.00995 16.3362C4.63767 17.1154 4.44621 17.9686 4.44988 18.8322V31.7489C4.44987 32.5416 4.76365 33.3022 5.32266 33.8643C5.88167 34.4265 6.64046 34.7445 7.43322 34.7489H15.6666V26.8989C15.6666 26.2491 15.9247 25.6259 16.3841 25.1665C16.8436 24.707 17.4668 24.4489 18.1166 24.4489H21.8666C22.5163 24.4489 23.1395 24.707 23.599 25.1665C24.0584 25.6259 24.3166 26.2491 24.3166 26.8989V34.7489H32.5499C33.3442 34.7445 34.1047 34.427 34.6664 33.8654C35.228 33.3037 35.5455 32.5432 35.5499 31.7489V18.8489C35.5529 17.9813 35.3595 17.1244 34.9843 16.3422C34.609 15.56 34.0617 14.8728 33.3832 14.3322Z" fill="currentColor"/>
</svg>
