<svg viewBox="0 0 40 40">
<path d="M20 2.96667C15.4838 2.97109 11.1539 4.76708 7.96049 7.96049C4.76708 11.1539 2.97109 15.4838 2.96667 20C2.97548 24.5148 4.77289 28.8422 7.96535 32.0347C11.1578 35.2271 15.4852 37.0245 20 37.0333C24.5148 37.0245 28.8422 35.2271 32.0347 32.0347C35.2271 28.8422 37.0245 24.5148 37.0333 20C37.0289 15.4838 35.2329 11.1539 32.0395 7.96049C28.8461 4.76708 24.5162 2.97109 20 2.96667ZM18.75 10.8667H21.25V22.5333H18.75V10.8667ZM20 29.2C19.5182 29.2 19.0561 29.0086 18.7154 28.6679C18.3748 28.3272 18.1833 27.8652 18.1833 27.3833C18.1833 27.1456 18.2305 26.9101 18.3219 26.6906C18.4134 26.4712 18.5475 26.272 18.7164 26.1046C18.8854 25.9373 19.0858 25.805 19.3061 25.7155C19.5264 25.6261 19.7622 25.5811 20 25.5833C20.2378 25.5811 20.4737 25.6261 20.694 25.7155C20.9143 25.805 21.1147 25.9373 21.2836 26.1046C21.4525 26.272 21.5866 26.4712 21.6781 26.6906C21.7696 26.9101 21.8167 27.1456 21.8167 27.3833C21.7994 27.8535 21.6004 28.2986 21.2616 28.625C20.9227 28.9514 20.4705 29.1337 20 29.1333V29.2Z" fill="currentColor"/>
</svg>
