<svg viewBox="0 0 40 40">
<path d="M20.0038 23.2777C18.1919 23.2777 16.7222 21.8079 16.7222 19.9961C16.7222 18.1842 18.1919 16.7145 20.0038 16.7145C21.8156 16.7145 23.2854 18.1842 23.2854 19.9961C23.2854 21.8079 21.8156 23.2777 20.0038 23.2777Z" fill="currentColor"/>
<path fill-rule="evenodd" clip-rule="evenodd" d="M28.5343 23.9308C28.5343 26.4659 26.4736 28.5266 23.9386 28.5266H16.0612C13.5261 28.5266 11.4654 26.4659 11.4654 23.9308V16.0612C11.4654 13.5262 13.5261 11.4654 16.0612 11.4654H23.9386C26.4736 11.4654 28.5343 13.5262 28.5343 16.0612V23.9308ZM20.0038 14.7471C17.1032 14.7471 14.7548 17.0955 14.7548 19.9961C14.7548 22.8966 17.1032 25.2451 20.0038 25.2451C22.9043 25.2451 25.2528 22.8966 25.2528 19.9961C25.2528 17.0955 22.9043 14.7471 20.0038 14.7471ZM26.3493 14.3503C26.3493 14.7369 26.0359 15.0502 25.6494 15.0502C25.2629 15.0502 24.9495 14.7369 24.9495 14.3503C24.9495 13.9638 25.2629 13.6505 25.6494 13.6505C26.0359 13.6505 26.3493 13.9638 26.3493 14.3503Z" fill="currentColor"/>
<path fill-rule="evenodd" clip-rule="evenodd" d="M14.5349 6.53491C10.1166 6.53491 6.53491 10.1166 6.53491 14.5349V25.4649C6.53491 29.8831 10.1166 33.4649 14.5349 33.4649H25.4649C29.8831 33.4649 33.4649 29.8831 33.4649 25.4649V14.5349C33.4649 10.1166 29.8831 6.53491 25.4649 6.53491H14.5349ZM23.9386 9.49805H16.0612C12.4375 9.49805 9.49805 12.4375 9.49805 16.0612V23.9386C9.49805 27.5623 12.4375 30.5017 16.0612 30.5017H23.9386C27.5623 30.5017 30.5017 27.5623 30.5017 23.9386V16.0612C30.5017 12.4375 27.5623 9.49805 23.9386 9.49805Z" fill="currentColor"/>
</svg>
