<svg viewBox="0 0 40 40">
<path d="M19.9834 2.96671C15.4672 2.97112 11.1373 4.76711 7.94389 7.96053C4.75048 11.1539 2.95449 15.4839 2.95007 20C2.95449 24.5162 4.75048 28.8461 7.94389 32.0396C11.1373 35.233 15.4672 37.029 19.9834 37.0334C22.2224 37.0356 24.44 36.5967 26.5094 35.7419C28.5789 34.8871 30.4597 33.633 32.0445 32.0513C33.6292 30.4696 34.887 28.5913 35.7458 26.5235C36.6047 24.4558 37.0479 22.2391 37.0501 20C37.0501 17.7604 36.6084 15.5427 35.7503 13.474C34.8922 11.4052 33.6346 9.52598 32.0493 7.94386C30.4641 6.36173 28.5824 5.10776 26.512 4.25372C24.4416 3.39967 22.223 2.96232 19.9834 2.96671ZM18.7167 12.2667C18.8981 12.0793 19.1159 11.931 19.3566 11.8307C19.5973 11.7304 19.856 11.6802 20.1167 11.6834C20.38 11.6799 20.6413 11.7298 20.8848 11.8301C21.1282 11.9303 21.3489 12.0789 21.5334 12.2667C21.7178 12.4495 21.863 12.6679 21.9605 12.9085C22.0579 13.1492 22.1054 13.4071 22.1001 13.6667C22.1073 13.928 22.059 14.1879 21.9585 14.4292C21.8579 14.6706 21.7074 14.8878 21.5167 15.0667C21.3378 15.2573 21.1206 15.4079 20.8793 15.5084C20.6379 15.609 20.3781 15.6572 20.1167 15.65C19.8558 15.6542 19.5969 15.6045 19.356 15.5041C19.1151 15.4038 18.8975 15.2549 18.7167 15.0667C18.5294 14.8853 18.381 14.6676 18.2807 14.4269C18.1804 14.1861 18.1303 13.9275 18.1334 13.6667C18.1312 13.4061 18.1818 13.1477 18.2821 12.9071C18.3823 12.6665 18.5302 12.4487 18.7167 12.2667ZM23.5834 28.3167H16.5334V25.6834H18.2001V19.55H16.5334V16.9H21.9001V25.65H23.5667L23.5834 28.3167Z" fill="currentColor"/>
</svg>
