<svg viewBox="0 0 40 40">
<path fill-rule="evenodd" clip-rule="evenodd" d="M32.0402 11.3275C33.2522 12.1735 34.4354 13.5444 34.8515 15.7455H34.8508C35.8167 20.8565 31.9822 24.6975 26.5472 24.3948C26.5769 25.7974 26.297 28.3163 23.5891 28.9948C23.3735 29.0472 23.1525 29.074 22.9307 29.0746C18.1818 29.1036 8.27896 29.1327 8.27896 29.1327C8.27896 29.1327 5.24576 29.1327 5.04101 26.0994C4.97385 20.964 5.0094 11.3492 5.0094 11.3492V11.1079C5.01204 10.738 5.30173 10.0001 6.05624 10.0001H27.756C29.2861 9.993 30.7814 10.4563 32.0402 11.3275ZM26.6453 20.7694C27.3447 20.8328 28.0488 20.8207 28.7456 20.7332C30.0861 20.298 31.3172 19.355 31.3172 16.9614C31.3172 15.9822 30.9709 15.2733 30.5384 14.7695C30.2307 14.4182 29.8512 14.1374 29.4255 13.9461C28.9998 13.7548 28.538 13.6576 28.0714 13.6611H26.6453V20.7694ZM15.8366 25.1893C15.7672 25.1945 15.698 25.1779 15.6384 25.1419L15.6378 25.1406C15.59 25.1065 15.5449 25.0688 15.5028 25.0279C15.3671 24.893 15.0453 24.5953 14.6245 24.206C13.3279 23.0067 11.0914 20.9381 10.4641 20.0824C9.57861 18.875 9.1658 16.7055 10.3509 15.4415C11.536 14.1774 14.1037 14.0831 15.8004 15.9505C15.8004 15.9505 17.7558 13.7218 20.1326 14.7458C22.5093 15.7699 22.4178 18.511 21.0352 20.1377C19.4788 21.9557 16.0255 25.1129 16.0255 25.1129C15.972 25.1574 15.906 25.1841 15.8366 25.1893Z" fill="currentColor"/>
</svg>
