<svg viewBox="0 0 40 40">
<path fill-rule="evenodd" clip-rule="evenodd" d="M10.5 7.5C8.84315 7.5 7.5 8.84315 7.5 10.5V29.5C7.5 31.1569 8.84315 32.5 10.5 32.5H29.5C31.1569 32.5 32.5 31.1569 32.5 29.5V10.5C32.5 8.84315 31.1569 7.5 29.5 7.5H10.5ZM13.3299 11.1978C12.0389 11.1978 11.1978 12.0845 11.1978 13.2508C11.1978 14.3899 12.0193 15.3039 13.2842 15.3039H13.3103C14.6274 15.3039 15.4424 14.3899 15.4424 13.2508C15.4163 12.0845 14.6209 11.1978 13.3299 11.1978ZM11.4194 16.9204H15.1946V28.7954H11.4194V16.9204ZM21.0563 18.6393C21.0563 18.6393 22.4256 16.6408 24.4599 16.6408C26.9376 16.6408 28.8024 18.3392 28.8024 21.9952V28.8024H25.0271V22.4453C25.0271 20.8493 24.4794 19.7579 23.1167 19.7579C22.0735 19.7579 21.454 20.4946 21.1802 21.2039C21.0824 21.4563 21.0563 21.811 21.0563 22.1657V28.7955H17.2811V16.9136H21.0563V18.6393Z" fill="currentColor"/>
</svg>
