<svg viewBox="0 0 40 40">
<path d="M12.05 4.8418H5.86666C5.40642 4.8418 5.03333 5.21489 5.03333 5.67513V11.8585C5.03333 12.3187 5.40642 12.6918 5.86666 12.6918H12.05C12.5102 12.6918 12.8833 12.3187 12.8833 11.8585V5.67513C12.8833 5.21489 12.5102 4.8418 12.05 4.8418Z" fill="currentColor"/>
<path d="M12.05 16.0751H5.86666C5.40642 16.0751 5.03333 16.4482 5.03333 16.9084V23.0918C5.03333 23.552 5.40642 23.9251 5.86666 23.9251H12.05C12.5102 23.9251 12.8833 23.552 12.8833 23.0918V16.9084C12.8833 16.4482 12.5102 16.0751 12.05 16.0751Z" fill="currentColor"/>
<path d="M12.05 27.3084H5.86666C5.40642 27.3084 5.03333 27.6815 5.03333 28.1418V34.3251C5.03333 34.7853 5.40642 35.1584 5.86666 35.1584H12.05C12.5102 35.1584 12.8833 34.7853 12.8833 34.3251V28.1418C12.8833 27.6815 12.5102 27.3084 12.05 27.3084Z" fill="currentColor"/>
<path d="M34.9665 7.09176H16.5999V10.4251H34.9665V7.09176Z" fill="currentColor"/>
<path d="M34.9665 18.3418H16.5999V21.6751H34.9665V18.3418Z" fill="currentColor"/>
<path d="M34.9665 29.5751H16.5999V32.9084H34.9665V29.5751Z" fill="currentColor"/>
</svg>
