<svg viewBox="0 0 40 40">
<path d="M20 2.21655C16.58 2.22096 13.3014 3.58148 10.8832 5.99975C8.4649 8.41801 7.10439 11.6966 7.09998 15.1166C7.09998 27.4332 18.7666 37.0999 19.2166 37.4999C19.4363 37.6836 19.7137 37.7839 20 37.7832C20.303 37.7877 20.5959 37.6742 20.8166 37.4666C21.3166 37.0332 32.9 26.7666 32.9 15.1166C32.8956 11.6966 31.535 8.41801 29.1168 5.99975C26.6985 3.58148 23.4199 2.22096 20 2.21655ZM20 21.2499C18.6617 21.2499 17.3534 20.853 16.2406 20.1095C15.1278 19.366 14.2605 18.3092 13.7484 17.0727C13.2362 15.8363 13.1022 14.4757 13.3633 13.1631C13.6244 11.8505 14.2689 10.6448 15.2152 9.69846C16.1616 8.75213 17.3673 8.10767 18.6799 7.84657C19.9925 7.58548 21.353 7.71948 22.5895 8.23163C23.8259 8.74379 24.8827 9.61109 25.6263 10.7239C26.3698 11.8366 26.7666 13.1449 26.7666 14.4832C26.7666 16.2779 26.0537 17.999 24.7847 19.268C23.5157 20.537 21.7946 21.2499 20 21.2499Z" fill="currentColor"/>
</svg>
