<svg viewBox="0 0 97 97">
<path d="M48.8085 8.606C38.8128 8.40264 29.1445 12.1555 21.9262 19.0406C14.7079 25.9257 10.5296 35.3804 10.3085 45.3289C10.3329 50.5335 11.4931 55.6706 13.709 60.3848C15.9249 65.0989 19.1434 69.2776 23.1419 72.6316V88.5981L38.6622 80.8943C41.9739 81.7628 45.3838 82.2055 48.8085 82.2115C58.8043 82.4149 68.4726 78.6621 75.6909 71.7769C82.9092 64.8918 87.0875 55.4371 87.3085 45.4886C87.2199 40.5489 86.153 35.6751 84.1691 31.1465C82.1851 26.6178 79.323 22.5231 75.7467 19.097C72.1704 15.671 67.9501 12.9808 63.3276 11.1806C58.7052 9.38034 53.7712 8.50546 48.8085 8.606ZM45.159 35.3099L54.6236 44.7302L71.5476 35.3099L52.458 55.8668L43.2341 45.9676L25.8689 55.6273L45.159 35.3099Z" fill="currentColor"/>
</svg>
