<svg viewBox="0 0 40 40">
<path d="M26.3334 9.30827L26.3333 9.27772C26.3258 5.78821 23.4988 2.95825 20.0083 2.95825C16.5132 2.95825 13.6833 5.79571 13.6833 9.29158V22.8249L13.6834 22.8555C13.6908 26.345 16.5178 29.1749 20.0084 29.1749C23.5035 29.1749 26.3334 26.3375 26.3334 22.8416V9.30827Z" fill="currentColor"/>
<path d="M14.1545 28.637C12.6042 27.0867 11.7333 24.984 11.7333 22.7916H9.23328C9.23328 25.6471 10.3676 28.3856 12.3868 30.4048C14.109 32.127 16.3547 33.2055 18.7499 33.4855V34.5416H14.75V37.0416H25.2667V34.5416H21.2499V33.4855C23.6451 33.2056 25.8908 32.1271 27.6131 30.4048C29.6323 28.3856 30.7666 25.6471 30.7666 22.7916H28.2666C28.2666 24.984 27.3957 27.0867 25.8454 28.637C24.2951 30.1873 22.1924 31.0582 19.9999 31.0582C17.8075 31.0582 15.7048 30.1873 14.1545 28.637Z" fill="currentColor"/>
</svg>
