<svg viewBox="0 0 40 40">
<path d="M19.6331 20.6833C19.7339 20.7735 19.8645 20.8233 19.9998 20.8233C20.135 20.8233 20.2656 20.7735 20.3664 20.6833L34.3664 9.26662C33.9232 9.05828 33.4395 8.95015 32.9498 8.94995H7.04975C6.56 8.95015 6.07632 9.05828 5.6331 9.26662L19.6331 20.6833Z" fill="currentColor"/>
<path d="M21.9499 22.6166C21.4014 23.0704 20.7116 23.318 19.9999 23.3166C19.2886 23.3152 18.5997 23.0679 18.0499 22.6166L3.89985 11.0667C3.72685 11.4784 3.63625 11.9201 3.63318 12.3666V27.6333C3.63318 28.5394 3.99315 29.4085 4.6339 30.0492C5.27465 30.69 6.14369 31.05 7.04985 31.05H32.9499C33.856 31.05 34.725 30.69 35.3658 30.0492C36.0065 29.4085 36.3665 28.5394 36.3665 27.6333V12.3666C36.3709 11.921 36.2859 11.4789 36.1165 11.0667L21.9499 22.6166Z" fill="currentColor"/>
</svg>
