<svg viewBox="0 0 40 40">
<path d="M16.0498 16.5583C16.0476 16.8464 16.1025 17.1321 16.2112 17.399C16.32 17.6658 16.4804 17.9085 16.6834 18.113C16.8864 18.3175 17.1278 18.4798 17.3938 18.5906C17.6598 18.7013 17.945 18.7583 18.2332 18.7583H18.8165V14.3917H18.2998C18.009 14.3828 17.7192 14.4321 17.4477 14.5368C17.1761 14.6415 16.9283 14.7994 16.7187 15.0013C16.509 15.2031 16.3419 15.4449 16.227 15.7123C16.1122 15.9797 16.0519 16.2673 16.0498 16.5583Z" fill="currentColor"/>
<path d="M21.7666 21.2583H21.25V25.6083H21.7666C22.3428 25.6039 22.8939 25.372 23.2997 24.963C23.7056 24.554 23.9333 24.0012 23.9333 23.425C23.9333 22.8504 23.705 22.2993 23.2987 21.8929C22.8924 21.4866 22.3413 21.2583 21.7666 21.2583Z" fill="currentColor"/>
<path d="M20 2.97498C15.4854 2.97498 11.1554 4.76728 7.96151 7.95805C4.76762 11.1488 2.97109 15.477 2.96667 19.9917C2.97109 24.5078 4.76708 28.8378 7.96049 32.0312C11.1539 35.2246 15.4838 37.0206 20 37.025C24.5162 37.0206 28.8461 35.2246 32.0395 32.0312C35.2329 28.8378 37.0289 24.5078 37.0333 19.9917C37.0245 15.4784 35.2266 11.1527 32.0336 7.9629C28.8407 4.77309 24.5133 2.97939 20 2.97498ZM21.7667 28.1083H21.25V30.0417H18.8167V28.1083H14.8V25.6083H18.8167V21.2583H18.3C17.0608 21.2583 15.8721 20.7672 14.9943 19.8925C14.1165 19.0178 13.6211 17.8309 13.6167 16.5917C13.6145 15.9752 13.734 15.3644 13.9684 14.7943C14.2028 14.2242 14.5474 13.7059 14.9825 13.2693C15.4176 12.8326 15.9346 12.4861 16.5039 12.2497C17.0732 12.0133 17.6836 11.8917 18.3 11.8917H18.8167V9.94166H21.3167V11.8917H25.25V14.3917H21.3167V18.8417H21.8333C23.071 18.8417 24.258 19.3333 25.1332 20.2085C26.0084 21.0837 26.5 22.2707 26.5 23.5083C26.4913 24.1212 26.362 24.7263 26.1194 25.2892C25.8768 25.852 25.5257 26.3616 25.0862 26.7888C24.6466 27.2159 24.1272 27.5523 23.5577 27.7787C22.9881 28.0051 22.3795 28.1171 21.7667 28.1083Z" fill="currentColor"/>
</svg>
