<svg viewBox="0 0 40 40">
<path d="M36.1237 19.1334V18.9334C36.1092 18.655 36.0007 18.3898 35.8161 18.1809C35.6315 17.9721 35.3815 17.832 35.1071 17.7834C34.8351 17.7418 34.557 17.7912 34.3159 17.9238C34.0749 18.0564 33.8843 18.2648 33.7737 18.5167C33.0214 20.0799 31.8363 21.3945 30.3592 22.3044C28.8821 23.2143 27.175 23.6813 25.4404 23.65C23.0092 23.65 20.6777 22.6843 18.9586 20.9652C17.2395 19.2461 16.2737 16.9145 16.2737 14.4834C16.2724 12.7574 16.7602 11.0664 17.6805 9.60626C18.6008 8.14613 19.916 6.97667 21.4737 6.23337C21.7266 6.11792 21.9323 5.91934 22.0567 5.67068C22.181 5.42203 22.2164 5.13829 22.157 4.8667C22.0998 4.5978 21.9567 4.3548 21.7493 4.17441C21.5418 3.99401 21.2813 3.886 21.007 3.8667H20.8237H19.9904C15.7129 3.87111 11.6119 5.57229 8.58726 8.59692C5.56262 11.6215 3.86147 15.7226 3.85706 20C3.86147 24.2775 5.56262 28.3785 8.58726 31.4032C11.6119 34.4278 15.7129 36.129 19.9904 36.1334C24.2678 36.129 28.3689 34.4278 31.3935 31.4032C34.4181 28.3785 36.1193 24.2775 36.1237 20C36.1571 19.6667 36.1404 19.4 36.1237 19.1334Z" fill="currentColor"/>
</svg>
