<svg viewBox="0 0 40 40">
<path d="M20 2.98334C15.4838 2.98775 11.1539 4.78374 7.96049 7.97716C4.76708 11.1706 2.97109 15.5005 2.96667 20.0167C2.9799 24.5271 4.77978 28.8484 7.97224 32.0346C11.1647 35.2209 15.4896 37.0123 20 37.0167C24.5146 37.0167 28.8446 35.2244 32.0385 32.0336C35.2324 28.8428 37.0289 24.5146 37.0333 20C37.0245 15.4867 35.2266 11.1611 32.0336 7.97126C28.8407 4.78145 24.5133 2.98774 20 2.98334ZM27.7333 25.9167L25.9667 27.6833L20.05 21.7833L14.15 27.6833L12.3833 25.9167L18.2833 20.0167L12.3833 14.1L14.15 12.3333L20.05 18.2333L25.9667 12.3333L27.7333 14.1L21.8167 20.0167L27.7333 25.9167Z" fill="currentColor"/>
</svg>
