<svg viewBox="0 0 40 40">
<path fill-rule="evenodd" clip-rule="evenodd" d="M8.44461 8.54636C9.58839 9.4378 10.0175 9.36979 12.1653 9.23231L32.4139 8.06597C32.8434 8.06597 32.4863 7.65499 32.343 7.5867L28.9802 5.25459C28.3358 4.77469 27.4774 4.22511 25.832 4.36259L6.22527 5.73442C5.51021 5.80243 5.3674 6.1454 5.65215 6.42029L8.44461 8.54636ZM9.6603 13.0732V33.5108C9.6603 34.6092 10.2325 35.0201 11.5203 34.9522L33.7735 33.7169C35.062 33.649 35.2055 32.8935 35.2055 32.0012V11.7007C35.2055 10.8099 34.8483 10.3295 34.0596 10.3981L10.8047 11.7007C9.9465 11.7699 9.66023 12.1817 9.66023 13.0732H9.6603ZM31.6286 14.1695C31.7713 14.7873 31.6286 15.4047 30.9833 15.4741L29.9111 15.6791V30.7674C28.9802 31.2474 28.1218 31.5218 27.4064 31.5218C26.2611 31.5218 25.9743 31.1786 25.1164 30.1505L18.1029 19.5885V29.8075L20.3223 30.2879C20.3223 30.2879 20.3223 31.5218 18.5317 31.5218L13.5956 31.7965C13.4522 31.5218 13.5956 30.8366 14.0963 30.6993L15.3844 30.3568V16.8453L13.596 16.7079C13.4525 16.09 13.8097 15.1991 14.8122 15.13L20.1076 14.7876L27.4064 25.487V16.022L25.5455 15.8171C25.4027 15.0618 25.9743 14.5133 26.6899 14.4453L31.6286 14.1695ZM4.57905 3.88276L24.9732 2.44202C27.4777 2.23597 28.122 2.374 29.6961 3.47087L36.2062 7.8602C37.2804 8.615 37.6384 8.82049 37.6384 9.64329V33.7169C37.6384 35.2257 37.0654 36.118 35.0624 36.2545L11.3786 37.6264C9.87488 37.6952 9.15924 37.4896 8.37176 36.5289L3.57765 30.562C2.71869 29.4636 2.36145 28.6419 2.36145 27.6806V6.28233C2.36145 5.04854 2.93457 4.01934 4.57905 3.88276Z" fill="currentColor"/>
</svg>
