<svg viewBox="0 0 40 40">
<path d="M19.975 2.98331C15.4588 2.98772 11.1289 4.78372 7.93547 7.97713C4.74206 11.1705 2.94606 15.5005 2.94165 20.0166C2.95048 24.5284 4.74895 28.8523 7.94236 32.0395C11.1358 35.2266 15.4632 37.0166 19.975 37.0166C24.494 37.0255 28.8318 35.2399 32.035 32.0523C35.2383 28.8647 37.0451 24.5357 37.0583 20.0166C37.0561 17.7762 36.6124 15.5581 35.7525 13.4893C34.8926 11.4204 33.6334 9.54136 32.0468 7.95945C30.4603 6.37755 28.5775 5.12382 26.5061 4.26998C24.4348 3.41614 22.2154 2.97893 19.975 2.98331ZM17.2417 27.6666L12.2417 22.4167L14.0583 20.75L17.0917 23.95L25.7917 13.4833L27.725 15.15L17.2417 27.6666Z" fill="currentColor"/>
</svg>
