<svg viewBox="0 0 96 96">
<path d="M8 12V84H24V12H8ZM60 12C54.4621 12 49.0486 13.6422 44.444 16.7189C39.8395 19.7955 36.2506 24.1685 34.1314 29.2849C32.0121 34.4012 31.4576 40.0311 32.538 45.4625C33.6184 50.894 36.2851 55.8831 40.201 59.799C44.1169 63.7149 49.106 66.3816 54.5375 67.462C59.9689 68.5424 65.5988 67.9879 70.7151 65.8686C75.8315 63.7494 80.2045 60.1605 83.2812 55.556C86.3578 50.9514 88 45.5379 88 40C88 32.5739 85.05 25.452 79.799 20.201C74.548 14.95 67.4261 12 60 12Z" fill="currentColor"/>
</svg>
