<svg viewBox="0 0 97 96">
<path d="M62.8969 56.44C65.106 56.44 66.8969 54.6491 66.8969 52.44C66.8969 50.2309 65.106 48.44 62.8969 48.44C60.6877 48.44 58.8969 50.2309 58.8969 52.44C58.8969 54.6491 60.6877 56.44 62.8969 56.44Z" fill="currentColor"/>
<path d="M34.2969 56.44C36.506 56.44 38.2969 54.6491 38.2969 52.44C38.2969 50.2309 36.506 48.44 34.2969 48.44C32.0878 48.44 30.2969 50.2309 30.2969 52.44C30.2969 54.6491 32.0878 56.44 34.2969 56.44Z" fill="currentColor"/>
<path d="M90.2969 31.56C90.2863 27.6699 88.7363 23.9421 85.9856 21.1913C83.2348 18.4406 79.507 16.8906 75.6169 16.88C73.0152 16.894 70.4636 17.5973 68.2222 18.9183C65.9807 20.2392 64.1295 22.1307 62.8569 24.4C58.5091 22.3262 53.754 21.2468 48.9369 21.24C43.934 21.2453 39.002 22.4235 34.5369 24.68C33.2978 22.3352 31.4451 20.371 29.1766 18.9972C26.908 17.6234 24.3089 16.8916 21.6569 16.88C17.7598 16.88 14.0218 18.4254 11.2624 21.1772C8.50301 23.9291 6.94748 27.663 6.93689 31.56C6.93719 34.7344 7.9721 37.8223 9.88483 40.3558C11.7976 42.8892 14.4839 44.7303 17.5369 45.6C16.8541 48.2121 16.5047 50.9001 16.4969 53.6C16.4969 69.84 28.2969 79.12 48.9369 79.12C69.5769 79.12 81.4169 69.84 81.4169 53.6C81.4146 50.8024 81.0379 48.0177 80.2969 45.32C83.1957 44.3641 85.7208 42.5213 87.5152 40.0522C89.3097 37.583 90.2827 34.6123 90.2969 31.56ZM18.0169 39.56C16.4753 38.8725 15.1689 37.7484 14.259 36.3267C13.3491 34.905 12.8755 33.2478 12.8969 31.56C12.9075 29.2543 13.8308 27.0466 15.465 25.4199C17.0992 23.7932 19.3111 22.88 21.6169 22.88C23.0082 22.8903 24.3768 23.2333 25.6085 23.8804C26.8402 24.5276 27.8991 25.4601 28.6969 26.6C24.1113 29.9279 20.4383 34.3576 18.0169 39.48V39.56ZM30.4169 65.92C29.0825 65.4855 27.8473 64.7913 26.7824 63.8774C25.7174 62.9635 24.8438 61.848 24.2117 60.5951C23.5797 59.3421 23.2017 57.9766 23.0997 56.577C22.9976 55.1774 23.1734 53.7714 23.6169 52.44C24.2889 49.7158 26.0137 47.3692 28.4131 45.9146C30.8125 44.4599 33.6907 44.016 36.4169 44.68C37.7329 45.1184 38.9496 45.8118 39.9976 46.7205C41.0456 47.6292 41.9043 48.7355 42.5246 49.9762C43.1449 51.2168 43.5147 52.5675 43.6129 53.9511C43.7111 55.3348 43.5358 56.7242 43.0969 58.04C42.4232 60.7401 40.7185 63.0688 38.3482 64.5269C35.9779 65.9849 33.1306 66.4563 30.4169 65.84V65.92ZM48.8969 71.2C47.3586 71.2 45.8834 70.5889 44.7957 69.5012C43.708 68.4135 43.0969 66.9383 43.0969 65.4L45.6569 64.64C47.7832 64.0006 50.0506 64.0006 52.1769 64.64L54.7369 65.4C54.7158 66.9313 54.0899 68.3921 52.9959 69.4637C51.9018 70.5353 50.4283 71.1307 48.8969 71.12V71.2ZM66.7369 65.92C64.0116 66.5599 61.1439 66.1 58.7554 64.6399C56.3669 63.1799 54.65 60.8373 53.9769 58.12C53.538 56.8042 53.3626 55.4148 53.4608 54.0312C53.559 52.6475 53.9289 51.2968 54.5492 50.0562C55.1695 48.8155 56.0282 47.7092 57.0762 46.8005C58.1242 45.8918 59.3409 45.1984 60.6569 44.76C62.0043 44.4317 63.4031 44.3719 64.7735 44.5842C66.144 44.7965 67.4592 45.2767 68.6441 45.9973C69.829 46.7178 70.8603 47.6648 71.6792 48.7839C72.4982 49.9031 73.0886 51.1726 73.4169 52.52C74.28 55.1725 74.0628 58.0584 72.8124 60.5518C71.5619 63.0453 69.379 64.9454 66.7369 65.84V65.92ZM79.1769 39.56C76.7425 34.4459 73.0719 30.0191 68.4969 26.68C69.2897 25.5198 70.3511 24.5684 71.5908 23.9067C72.8305 23.2451 74.2117 22.8928 75.6169 22.88C77.9157 22.8905 80.1174 23.8084 81.743 25.4339C83.3685 27.0595 84.2864 29.2612 84.2969 31.56C84.3026 33.2343 83.8218 34.8741 82.9128 36.2802C82.0038 37.6862 80.7059 38.7979 79.1769 39.48V39.56Z" fill="currentColor"/>
</svg>
