<svg viewBox="0 0 96 96">
<path d="M27.5076 12C26.3685 12.0124 25.2668 12.4063 24.3804 13.1181C23.4941 13.83 22.8748 14.8182 22.6226 15.9233L12.0928 65.7378C11.9567 66.4091 11.9705 67.1019 12.133 67.7674C12.2956 68.4328 12.603 69.0547 13.0336 69.589C13.4696 70.1266 14.0207 70.5606 14.6466 70.8595C15.2726 71.1583 15.9577 71.3145 16.6521 71.3167H24.649L34.0571 27.3331C34.4586 25.5263 35.4648 23.9086 36.9109 22.7447C38.3571 21.5809 40.1576 20.9397 42.0178 20.9263H67.3473C66.8583 19.9836 66.2765 19.0914 65.6104 18.2628C64.015 16.3175 62.0068 14.7472 59.7297 13.6645C57.4526 12.5817 54.963 12.0133 52.4391 12H27.5076ZM41.9816 26.3973C41.3659 26.4059 40.7709 26.6199 40.2919 27.005C39.813 27.39 39.4778 27.9238 39.3401 28.5208L34.9617 48.893H47.1561C52.0774 48.8924 56.8524 47.2287 60.6985 44.1747C64.5446 41.1207 67.2334 36.8576 68.3243 32.0842L69.4099 26.3973H41.9816ZM74.8376 26.3973L73.3902 33.056C72.0926 39.0182 68.782 44.3588 64.0092 48.1895C59.2363 52.0203 53.2889 54.1103 47.1561 54.112H33.8038L28.376 79.3072C28.1949 79.8721 28.157 80.4727 28.2654 81.0558C28.3739 81.6388 28.6256 82.1861 28.9979 82.6492C29.3703 83.1122 29.8519 83.4765 30.4 83.7098C30.948 83.943 31.5455 84.038 32.1393 83.9863H45.1297C45.7567 83.9838 46.364 83.7684 46.851 83.3756C47.338 82.9828 47.6754 82.4363 47.8074 81.8267L51.7154 63.2902H62.5709C67.4264 63.2922 72.1361 61.6395 75.9153 58.6072C79.6946 55.5749 82.3154 51.3462 83.3411 46.6254L83.5582 45.6896C84.3427 42.2236 84.0783 38.6043 82.7983 35.2876C81.2885 31.5467 78.4932 28.4602 74.91 26.5772L74.8376 26.3973Z" fill="currentColor"/>
</svg>
