<svg viewBox="0 0 40 40">
<path d="M28.6584 33.6121C29.2037 33.6078 29.7251 33.3881 30.109 33.001C30.493 32.6139 30.7085 32.0907 30.7085 31.5455V29.6622C30.7173 27.5214 30.0878 25.4266 28.9003 23.6454C27.7128 21.8641 26.0213 20.4774 24.0418 19.6622C24.0105 19.6449 23.9845 19.6195 23.9663 19.5887C23.9482 19.5579 23.9386 19.5229 23.9386 19.4872C23.9386 19.4514 23.9482 19.4164 23.9663 19.3856C23.9845 19.3548 24.0105 19.3295 24.0418 19.3122C25.2633 18.4897 26.2018 17.3109 26.7297 15.9362C27.2575 14.5614 27.349 13.0574 26.9918 11.6288C26.6585 10.3895 25.9986 9.26247 25.081 8.36535C24.1633 7.46823 23.0216 6.83398 21.7751 6.52883C20.7157 6.26875 19.6111 6.25277 18.5447 6.48211C17.4782 6.71145 16.4778 7.18011 15.619 7.85271C14.7602 8.5253 14.0655 9.38425 13.5872 10.3647C13.109 11.3451 12.8598 12.4213 12.8584 13.5122C12.8598 14.6683 13.1427 15.8067 13.6829 16.8289C14.223 17.8511 15.0041 18.7263 15.9584 19.3788C15.9897 19.3961 16.0158 19.4215 16.0339 19.4522C16.052 19.483 16.0616 19.5181 16.0616 19.5538C16.0616 19.5895 16.052 19.6246 16.0339 19.6554C16.0158 19.6862 15.9897 19.7115 15.9584 19.7288C13.9776 20.5422 12.2849 21.9285 11.0971 23.7101C9.90932 25.4918 9.28068 27.5876 9.29177 29.7288V31.6122C9.29177 32.1603 9.50951 32.6859 9.89709 33.0735C10.2847 33.4611 10.8103 33.6788 11.3584 33.6788L28.6584 33.6121Z" fill="currentColor"/>
</svg>
