<svg viewBox="0 0 40 40">
<path d="M29.883 34.4907C30.4974 34.4907 31.0866 34.2467 31.5211 33.8122C31.9555 33.3777 32.1996 32.7885 32.1996 32.1741V28.8407C32.1959 27.4771 31.793 26.1445 31.0407 25.0072C30.2885 23.8699 29.2197 22.9777 27.9663 22.4407C27.9381 22.4271 27.9143 22.4058 27.8977 22.3792C27.8811 22.3527 27.8723 22.3221 27.8723 22.2907C27.8723 22.2594 27.8811 22.2287 27.8977 22.2022C27.9143 22.1757 27.9381 22.1544 27.9663 22.1407C28.6922 21.6284 29.2535 20.9161 29.582 20.0905C29.9104 19.2649 29.9918 18.3617 29.8163 17.4908C29.6381 16.5791 29.1901 15.7421 28.5303 15.0882C27.8706 14.4344 27.0295 13.9939 26.1163 13.8241C25.4452 13.6963 24.7541 13.7185 24.0926 13.8891C23.431 14.0597 22.8154 14.3745 22.2898 14.8109C21.7642 15.2473 21.3416 15.7945 21.0522 16.4134C20.7629 17.0323 20.614 17.7075 20.6163 18.3907C20.616 19.1247 20.7913 19.8481 21.1277 20.5005C21.464 21.1528 21.9516 21.7153 22.5496 22.1407C22.5778 22.1544 22.6016 22.1757 22.6182 22.2022C22.6348 22.2287 22.6436 22.2594 22.6436 22.2907C22.6436 22.3221 22.6348 22.3527 22.6182 22.3792C22.6016 22.4058 22.5778 22.4271 22.5496 22.4407C21.2962 22.9777 20.2274 23.8699 19.4751 25.0072C18.7229 26.1445 18.32 27.4771 18.3163 28.8407V34.5574L29.883 34.4907Z" fill="currentColor"/>
<path d="M17.0832 28.7741C17.0836 27.5589 17.3563 26.3592 17.8812 25.2632C18.4061 24.1672 19.17 23.2028 20.1166 22.4408C20.2759 22.3183 20.382 22.1393 20.413 21.9407C20.444 21.7422 20.3976 21.5394 20.2832 21.3741C19.7142 20.4588 19.4139 19.4019 19.4166 18.3241C19.4162 17.6599 19.5289 17.0005 19.7499 16.3741C19.8095 16.2358 19.8271 16.0831 19.8004 15.9349C19.7737 15.7867 19.704 15.6496 19.5999 15.5408C18.9979 14.9495 18.2915 14.4748 17.5166 14.1408C17.4884 14.1271 17.4646 14.1058 17.448 14.0793C17.4314 14.0528 17.4226 14.0221 17.4226 13.9908C17.4226 13.9595 17.4314 13.9288 17.448 13.9022C17.4646 13.8757 17.4884 13.8544 17.5166 13.8408C18.2362 13.3228 18.7927 12.6098 19.1205 11.7859C19.4483 10.962 19.5336 10.0616 19.3666 9.19078C19.1884 8.27914 18.7404 7.44207 18.0806 6.78823C17.4209 6.1344 16.5798 5.69397 15.6666 5.52409C14.9947 5.39662 14.3028 5.41898 13.6405 5.5895C12.9782 5.76003 12.3616 6.07456 11.8348 6.51068C11.3079 6.94679 10.8838 7.49377 10.5926 8.11259C10.3013 8.73142 10.1502 9.40686 10.1499 10.0908C10.1496 10.8248 10.325 11.5481 10.6613 12.2005C10.9976 12.8528 11.4852 13.4153 12.0832 13.8408C12.1114 13.8544 12.1352 13.8757 12.1518 13.9022C12.1684 13.9288 12.1773 13.9595 12.1773 13.9908C12.1773 14.0221 12.1684 14.0528 12.1518 14.0793C12.1352 14.1058 12.1114 14.1271 12.0832 14.1408C10.8192 14.6683 9.7387 15.5568 8.97686 16.6951C8.21503 17.8334 7.80567 19.1711 7.79993 20.5408V32.2074C7.79993 32.8219 8.044 33.4111 8.47846 33.8456C8.91292 34.28 9.50217 34.5241 10.1166 34.5241H17.0832V28.7741Z" fill="currentColor"/>
</svg>
