<svg viewBox="0 0 97 97">
<path d="M84.5283 31.7556C79.6697 23.1813 72.0731 16.4865 62.9562 12.744C53.8393 9.00147 43.73 8.42804 34.2483 11.1156C33.7833 11.2144 33.35 11.4269 32.987 11.734C32.6241 12.0411 32.3428 12.4333 32.1683 12.8756L12.5283 60.8756L84.5283 31.7556Z" fill="currentColor"/>
<path d="M85.4879 44.2755V35.6755L12.1279 65.3155V74.9155L85.4879 44.2755Z" fill="currentColor"/>
<path d="M12.169 79.2755V84.9955C12.1664 85.4859 12.2856 85.9692 12.516 86.4021C12.7464 86.8349 13.0808 87.2038 13.489 87.4755C13.9894 87.8023 14.5714 87.9825 15.169 87.9955C15.5547 87.9924 15.9358 87.9107 16.289 87.7555L83.649 59.7555C84.1963 59.5318 84.664 59.1494 84.9919 58.6574C85.3199 58.1655 85.493 57.5867 85.489 56.9955V48.9955L12.169 79.2755Z" fill="currentColor"/>
</svg>
