<svg viewBox="0 0 40 40">
<path d="M19.9834 2.98331C15.4672 2.98772 11.1373 4.78372 7.94389 7.97713C4.75048 11.1705 2.95449 15.5005 2.95007 20.0166C2.9589 24.5284 4.75737 28.8523 7.95079 32.0395C11.1442 35.2266 15.4716 37.0166 19.9834 37.0166C22.2202 37.021 24.4361 36.5848 26.5043 35.7328C28.5726 34.8809 30.4528 33.6299 32.0376 32.0513C33.6223 30.4727 34.8807 28.5974 35.7407 26.5325C36.6008 24.4676 37.0457 22.2535 37.0501 20.0166C37.0501 17.777 36.6084 15.5593 35.7503 13.4906C34.8922 11.4218 33.6346 9.54257 32.0493 7.96045C30.4641 6.37832 28.5824 5.12435 26.512 4.27031C24.4416 3.41627 22.223 2.97893 19.9834 2.98331ZM21.4167 30.6833C21.2262 30.8839 20.9958 31.0423 20.7403 31.1485C20.4848 31.2547 20.21 31.3063 19.9334 31.3C19.6595 31.305 19.3875 31.2528 19.1349 31.1466C18.8824 31.0404 18.6548 30.8826 18.4667 30.6833C18.2675 30.4953 18.1097 30.2677 18.0035 30.0151C17.8973 29.7626 17.845 29.4906 17.8501 29.2167C17.8437 28.9401 17.8953 28.6652 18.0015 28.4097C18.1077 28.1543 18.2662 27.9239 18.4667 27.7333C18.658 27.5394 18.8866 27.3863 19.1387 27.2832C19.3907 27.1801 19.6611 27.1291 19.9334 27.1333C20.2085 27.1268 20.482 27.1767 20.7371 27.2799C20.9922 27.3831 21.2235 27.5374 21.4167 27.7333C21.6126 27.9265 21.767 28.1578 21.8701 28.4129C21.9733 28.668 22.0232 28.9416 22.0167 29.2167C22.0209 29.489 21.97 29.7593 21.8668 30.0114C21.7637 30.2635 21.6106 30.492 21.4167 30.6833ZM25.5834 17C24.9319 18.0559 24.1161 19.0011 23.1667 19.8C22.6638 20.1819 22.2446 20.6629 21.9349 21.2133C21.6253 21.7638 21.4319 22.3718 21.3667 23V24.3166H18.5001V22.8833C18.4862 22.1096 18.6576 21.3439 19.0001 20.65C19.5144 19.7827 20.1675 19.0057 20.9334 18.35C21.6427 17.7299 22.2851 17.0373 22.8501 16.2833C23.1853 15.7619 23.3592 15.1531 23.3501 14.5333C23.3717 14.109 23.301 13.6851 23.1427 13.2909C22.9844 12.8966 22.7424 12.5415 22.4334 12.25C21.7472 11.6683 20.8651 11.3703 19.9667 11.4166C19.115 11.4013 18.2851 11.6872 17.6235 12.2238C16.9619 12.7604 16.5109 13.5134 16.3501 14.35L13.7167 13.25C14.1707 11.931 14.9988 10.7728 16.1001 9.91665C17.2137 9.0809 18.5746 8.64097 19.9667 8.66665C21.6313 8.6167 23.2503 9.21413 24.4834 10.3333C25.0415 10.8729 25.4787 11.5248 25.766 12.246C26.0533 12.9671 26.1842 13.7411 26.1501 14.5166C26.1817 15.3851 25.9863 16.2467 25.5834 17.0166V17Z" fill="currentColor"/>
</svg>
