<svg viewBox="0 0 40 40">
<path d="M33.1 6.95834H6.89999C5.45485 6.95834 4.28333 8.12987 4.28333 9.57501V10.6083C4.28333 12.0535 5.45485 13.225 6.89999 13.225H33.1C34.5451 13.225 35.7167 12.0535 35.7167 10.6083V9.57501C35.7167 8.12987 34.5451 6.95834 33.1 6.95834Z" fill="currentColor"/>
<path d="M33.1 16.875H6.89999C5.45485 16.875 4.28333 18.0465 4.28333 19.4917V20.525C4.28333 21.9702 5.45485 23.1417 6.89999 23.1417H33.1C34.5451 23.1417 35.7167 21.9702 35.7167 20.525V19.4917C35.7167 18.0465 34.5451 16.875 33.1 16.875Z" fill="currentColor"/>
<path d="M33.1 26.775H6.89999C5.45485 26.775 4.28333 27.9465 4.28333 29.3917V30.425C4.28333 31.8702 5.45485 33.0417 6.89999 33.0417H33.1C34.5451 33.0417 35.7167 31.8702 35.7167 30.425V29.3917C35.7167 27.9465 34.5451 26.775 33.1 26.775Z" fill="currentColor"/>
</svg>
