<svg viewBox="0 0 97 96">
<path fill-rule="evenodd" clip-rule="evenodd" d="M32.3286 88L25.6886 81.36L42.1686 64.88L31.9286 54.64L15.4486 71.12L8.80859 64.48L25.2886 48L8.80859 31.52L15.4486 24.88L31.9286 41.36L42.1686 31.12L25.6886 14.64L32.3286 8L48.8086 24.48L65.2886 8L71.9286 14.64L55.4486 31.12L65.6886 41.36L82.1686 24.88L88.8086 31.52L72.3286 48L88.8086 64.48L82.1686 71.12L65.6886 54.64L55.4486 64.88L71.9286 81.36L65.2886 88L48.8086 71.52L32.3286 88ZM48.8086 37.72L59.0886 48L48.8086 58.28L38.5286 48L48.8086 37.72Z" fill="currentColor"/>
</svg>
