<svg viewBox="0 0 97 97">
<path d="M48.7284 34.5616C56.7284 34.5616 62.8484 32.2816 62.8484 29.4416C62.8484 26.6016 56.7284 24.2816 48.7284 24.2816C40.7284 24.2816 34.6084 26.6016 34.6084 29.4416C34.6084 32.2816 41.0884 34.5616 48.7284 34.5616Z" fill="currentColor"/>
<path d="M48.7285 12.6416C28.3685 12.6416 7.72852 18.4016 7.72852 29.4416C7.75152 29.9951 7.83195 30.5447 7.96852 31.0816H7.72852V68.0016C7.72852 79.0416 28.3685 84.8016 48.7285 84.8016C69.0885 84.8016 89.8885 78.9216 89.8885 68.0016V29.4416C89.8885 18.4016 69.2485 12.6416 48.7285 12.6416ZM48.7285 18.6416C70.0885 18.6416 83.7285 25.0416 83.7285 29.4416C83.7285 33.8416 70.0885 40.2416 48.7285 40.2416C28.0485 40.2416 15.1685 34.3616 13.8485 30.1216C13.8133 29.8963 13.8133 29.6669 13.8485 29.4416C13.8885 25.0416 27.5285 18.6416 48.7285 18.6416Z" fill="currentColor"/>
</svg>
