<svg viewBox="0 0 41 40">
<path d="M19.5333 19.1123L34.2167 10.4957L20.1667 2.16233C19.9726 2.05583 19.7547 2 19.5333 2C19.3119 2 19.0941 2.05583 18.9 2.16233L4.83333 10.4957L19.5333 19.1123Z" fill="currentColor"/>
<path d="M20.3668 20.5621V37.8121L34.4335 29.4788C34.6209 29.3667 34.7762 29.2081 34.8843 29.0183C34.9923 28.8284 35.0495 28.6139 35.0501 28.3955V11.9455L20.3668 20.5621Z" fill="currentColor"/>
<path d="M18.7 20.5623L4 11.929V28.4623C4.00066 28.6807 4.05779 28.8953 4.16584 29.0851C4.2739 29.2749 4.4292 29.4336 4.61666 29.5457L18.7 37.879V20.5623Z" fill="currentColor"/>
</svg>
