<svg viewBox="0 0 40 40">
<path d="M35.75 16.1251H32.4166C32.2232 15.364 31.961 14.622 31.6333 13.9084L33.9166 11.6084C34.0336 11.4877 34.0993 11.3264 34.1 11.1584C34.1002 11.0775 34.084 10.9975 34.0525 10.923C34.021 10.8485 33.9748 10.7812 33.9166 10.725L29.3 6.0917C29.1776 5.97926 29.016 5.91945 28.85 5.92507C28.7702 5.92171 28.6905 5.93475 28.616 5.96342C28.5415 5.99209 28.4736 6.03573 28.4166 6.0917L26.3666 8.1584C25.586 7.70924 24.7589 7.34602 23.9 7.07507V4.22504C23.9 4.14263 23.8835 4.06109 23.8515 3.98517C23.8195 3.90925 23.7725 3.84048 23.7135 3.78299C23.6545 3.7255 23.5845 3.68043 23.5077 3.65044C23.431 3.62045 23.349 3.60615 23.2666 3.60838H16.7C16.6176 3.60615 16.5356 3.62045 16.4589 3.65044C16.3821 3.68043 16.3121 3.7255 16.2531 3.78299C16.1941 3.84048 16.1471 3.90925 16.1151 3.98517C16.0831 4.06109 16.0666 4.14263 16.0666 4.22504V7.07507C15.2077 7.34602 14.3806 7.70924 13.6 8.1584L11.55 6.0917C11.4298 5.98042 11.2721 5.91861 11.1083 5.91861C10.9445 5.91861 10.7868 5.98042 10.6666 6.0917L6.04996 10.725C5.991 10.7825 5.94414 10.8512 5.91214 10.9271C5.88014 11.0029 5.86365 11.0844 5.86365 11.1667C5.86365 11.249 5.88014 11.3305 5.91214 11.4064C5.94414 11.4822 5.991 11.5509 6.04996 11.6084L8.36663 13.9251C8.03155 14.6357 7.7691 15.3783 7.5833 16.1417H4.24996C4.16756 16.1417 4.08598 16.1582 4.01006 16.1902C3.93413 16.2222 3.8654 16.2692 3.80791 16.3282C3.75043 16.3872 3.70536 16.4572 3.67536 16.5339C3.64537 16.6107 3.63107 16.6927 3.63329 16.775V23.3084C3.63099 23.39 3.64537 23.4712 3.67555 23.5471C3.70573 23.6229 3.75107 23.6918 3.80879 23.7495C3.86652 23.8073 3.93542 23.8526 4.01128 23.8828C4.08714 23.913 4.16836 23.9274 4.24996 23.9251H8.09996C8.33677 24.5002 8.61529 25.0572 8.9333 25.5917L6.1333 28.3917C6.07433 28.4492 6.02747 28.5179 5.99547 28.5937C5.96347 28.6696 5.94699 28.7511 5.94699 28.8334C5.94699 28.9157 5.96347 28.9972 5.99547 29.0731C6.02747 29.1489 6.07433 29.2176 6.1333 29.2751L10.75 33.8917C10.8701 34.003 11.0279 34.0648 11.1916 34.0648C11.3554 34.0648 11.5131 34.003 11.6333 33.8917L14.6666 30.8584C15.1484 31.0789 15.6439 31.2682 16.15 31.4251V35.7751C16.1543 35.9401 16.2229 36.097 16.3413 36.2121C16.4596 36.3273 16.6182 36.3918 16.7833 36.3917H23.3166C23.4818 36.3918 23.6404 36.3273 23.7587 36.2121C23.877 36.097 23.9456 35.9401 23.95 35.7751V31.4251C24.4506 31.2682 24.9405 31.0789 25.4166 30.8584L28.3666 33.9251C28.4241 33.984 28.4928 34.0309 28.5686 34.0629C28.6445 34.0949 28.726 34.1114 28.8083 34.1114C28.8906 34.1114 28.9721 34.0949 29.048 34.0629C29.1238 34.0309 29.1925 33.984 29.25 33.9251L33.8666 29.3084C33.9256 29.2509 33.9725 29.1823 34.0045 29.1064C34.0365 29.0305 34.0529 28.949 34.0529 28.8667C34.0529 28.7844 34.0365 28.7029 34.0045 28.627C33.9725 28.5512 33.9256 28.4825 33.8666 28.425L31.0666 25.5917C31.3827 25.0587 31.6558 24.5014 31.8833 23.9251H35.75C35.9135 23.9251 36.0704 23.8601 36.186 23.7444C36.3017 23.6288 36.3666 23.4719 36.3666 23.3084V16.775C36.3688 16.6919 36.3547 16.6091 36.3249 16.5314C36.2951 16.4537 36.2502 16.3826 36.193 16.3223C36.1357 16.2619 36.0671 16.2134 35.9911 16.1796C35.9151 16.1457 35.8331 16.1272 35.75 16.1251ZM26.0666 20.0251C26.058 21.6272 25.4212 23.162 24.293 24.2995C23.1648 25.4371 21.6353 26.0866 20.0333 26.1084C18.4168 26.1084 16.866 25.4685 15.7199 24.3286C14.5738 23.1887 13.9254 21.6415 13.9166 20.0251C13.9254 18.4071 14.5732 16.8581 15.7189 15.7155C16.8645 14.573 18.4153 13.9294 20.0333 13.9251C21.6382 13.9469 23.1701 14.5987 24.2988 15.7398C25.4275 16.881 26.0624 18.42 26.0666 20.0251Z" fill="currentColor"/>
</svg>
