<svg viewBox="0 0 40 40">
<path d="M28.5 26.1333C27.1429 26.1368 25.8335 26.6345 24.8167 27.5333L16.9834 21.45C16.9834 21.45 16.9834 21.35 16.9834 21.3C16.9739 21.1946 16.9739 21.0887 16.9834 20.9833C17.0414 20.6585 17.0749 20.3298 17.0834 20C17.0748 19.6757 17.0414 19.3525 16.9834 19.0333C16.9834 18.9167 16.9834 18.8 16.9 18.6833C16.8167 18.5667 16.9 18.5833 16.9 18.55L24.7334 12.4667C25.7541 13.3589 27.061 13.8556 28.4167 13.8667C29.9211 13.8622 31.3624 13.2615 32.4247 12.1962C33.4869 11.1308 34.0834 9.68776 34.0834 8.18333C34.0834 6.68043 33.4864 5.23909 32.4236 4.17639C31.3609 3.11368 29.9196 2.51666 28.4167 2.51666C26.9123 2.51666 25.4692 3.11314 24.4039 4.17537C23.3385 5.2376 22.7378 6.6789 22.7334 8.18333C22.7459 8.67371 22.8187 9.1607 22.95 9.63332L15.1834 15.7167C14.1626 14.8244 12.8558 14.3277 11.5 14.3167C9.99562 14.3211 8.55432 14.9218 7.49209 15.9871C6.42986 17.0525 5.83337 18.4956 5.83337 20C5.83337 21.5029 6.4304 22.9442 7.4931 24.0069C8.55581 25.0696 9.99715 25.6667 11.5 25.6667C12.8539 25.6617 14.161 25.1708 15.1834 24.2833L23.0334 30.3667C22.902 30.8336 22.8292 31.3151 22.8167 31.8C22.8167 33.3073 23.4155 34.7529 24.4813 35.8187C25.5472 36.8845 26.9927 37.4833 28.5 37.4833C30.0045 37.4789 31.4458 36.8782 32.508 35.8128C33.5702 34.7475 34.1667 33.3044 34.1667 31.8C34.1667 30.2971 33.5697 28.8558 32.507 27.793C31.4443 26.7303 30.0029 26.1333 28.5 26.1333Z" fill="currentColor"/>
</svg>
