<svg viewBox="0 0 40 40">
<path d="M34.5333 18.575C31.0587 18.5706 27.7275 17.1896 25.2691 14.7343C22.8107 12.279 21.4254 8.94954 21.4166 5.47503C21.4166 5.0993 21.2673 4.73896 21.0017 4.47329C20.736 4.20761 20.3756 4.05835 19.9999 4.05835C19.6242 4.05835 19.2639 4.20761 18.9982 4.47329C18.7325 4.73896 18.5833 5.0993 18.5833 5.47503C18.5744 8.94954 17.1891 12.279 14.7307 14.7343C12.2723 17.1896 8.9411 18.5706 5.46658 18.575C5.09085 18.575 4.73054 18.7243 4.46486 18.9899C4.19919 19.2556 4.04993 19.616 4.04993 19.9917C4.04993 20.3674 4.19919 20.7277 4.46486 20.9934C4.73054 21.2591 5.09085 21.4084 5.46658 21.4084C8.94398 21.4128 12.2777 22.7961 14.7366 25.255C17.1955 27.7139 18.5789 31.0476 18.5833 34.525C18.5833 34.9007 18.7325 35.2611 18.9982 35.5268C19.2639 35.7924 19.6242 35.9417 19.9999 35.9417C20.3756 35.9417 20.736 35.7924 21.0017 35.5268C21.2673 35.2611 21.4166 34.9007 21.4166 34.525C21.421 31.0476 22.8043 27.7139 25.2632 25.255C27.7221 22.7961 31.0558 21.4128 34.5333 21.4084C34.909 21.4084 35.2693 21.2591 35.535 20.9934C35.8007 20.7277 35.9499 20.3674 35.9499 19.9917C35.9499 19.616 35.8007 19.2556 35.535 18.9899C35.2693 18.7243 34.909 18.575 34.5333 18.575Z" fill="currentColor"/>
</svg>
