<svg viewBox="0 0 40 40">
<path d="M36.2689 34.2619L29.7689 27.7452C32.16 24.7493 33.3135 20.9516 32.9925 17.1319C32.6714 13.3122 30.9003 9.76035 28.0426 7.20556C25.185 4.65077 21.4577 3.28693 17.626 3.39405C13.7943 3.50117 10.149 5.07113 7.43857 7.78159C4.72811 10.492 3.15815 14.1373 3.05103 17.969C2.94391 21.8007 4.30775 25.528 6.86255 28.3856C9.41734 31.2433 12.9692 33.0145 16.7889 33.3355C20.6086 33.6565 24.4063 32.5031 27.4022 30.1119L33.9189 36.6119L36.2689 34.2619ZM18.0189 30.0786C15.7114 30.0786 13.4558 29.3943 11.5372 28.1124C9.61866 26.8304 8.12332 25.0084 7.2403 22.8765C6.35727 20.7447 6.12624 18.399 6.5764 16.1359C7.02656 13.8727 8.1377 11.7939 9.76931 10.1623C11.4009 8.53072 13.4797 7.41957 15.7428 6.96941C18.0059 6.51925 20.3517 6.75029 22.4835 7.63331C24.6153 8.51634 26.4374 10.0117 27.7194 11.9303C29.0013 13.8488 29.6856 16.1045 29.6856 18.4119C29.6856 21.5061 28.4564 24.4736 26.2685 26.6615C24.0805 28.8494 21.1131 30.0786 18.0189 30.0786Z" fill="currentColor"/>
</svg>
