<svg viewBox="0 0 40 40">
<path d="M19.9916 9.73333C17.27 9.73773 14.6612 10.8208 12.7368 12.7452C10.8124 14.6697 9.7293 17.2785 9.72489 20C9.74245 22.7144 10.8308 25.3121 12.7533 27.2284C14.6759 29.1447 17.2771 30.2246 19.9916 30.2333C22.7131 30.2289 25.3219 29.1458 27.2463 27.2214C29.1708 25.297 30.2538 22.6882 30.2582 19.9667C30.2494 17.2496 29.1638 14.6467 27.2394 12.7286C25.315 10.8104 22.7087 9.73331 19.9916 9.73333Z" fill="currentColor"/>
<path d="M21.2585 3.09998H18.7585V7.6H21.2585V3.09998Z" fill="currentColor"/>
<path d="M21.2585 32.4H18.7585V36.9H21.2585V32.4Z" fill="currentColor"/>
<path d="M36.8917 18.75H32.3917V21.25H36.8917V18.75Z" fill="currentColor"/>
<path d="M7.6083 18.75H3.10828V21.25H7.6083V18.75Z" fill="currentColor"/>
<path d="M31.0603 7.16035L27.8784 10.3423L29.6461 12.1101L32.8281 8.92811L31.0603 7.16035Z" fill="currentColor"/>
<path d="M10.3316 27.8866L7.14962 31.0686L8.91738 32.8364L12.0994 29.6544L10.3316 27.8866Z" fill="currentColor"/>
<path d="M29.6753 27.8863L27.9073 29.6537L31.0887 32.8363L32.8568 31.0688L29.6753 27.8863Z" fill="currentColor"/>
<path d="M8.93041 7.15924L7.16264 8.927L10.3446 12.109L12.1124 10.3412L8.93041 7.15924Z" fill="currentColor"/>
</svg>
