<svg viewBox="0 0 40 40">
<path d="M31.4999 5.24268H8.51661C7.13685 5.24267 5.81328 5.78927 4.83559 6.76284C3.8579 7.73642 3.30572 9.05768 3.29993 10.4374V24.1093L3.29994 24.1146C3.3057 25.4949 3.85661 26.8171 4.8327 27.7932C5.80879 28.7693 7.13099 29.3202 8.51138 29.326L8.51659 29.326H9.24993V34.7573L18.1189 29.326H31.4999L31.5052 29.326C32.8849 29.3202 34.2062 28.768 35.1798 27.7903C36.1533 26.8127 36.6999 25.4891 36.6999 24.1093V10.4427C36.6999 9.06355 36.1521 7.74091 35.1769 6.76572C34.2017 5.79053 32.879 5.24268 31.4999 5.24268Z" fill="currentColor"/>
</svg>
