<svg viewBox="0 0 96 96">
<path d="M48 8C37.3913 8 27.2172 12.2143 19.7157 19.7157C12.2142 27.2172 8 37.3913 8 48C8 58.6087 12.2142 68.7828 19.7157 76.2843C27.2172 83.7857 37.3913 88 48 88C58.6087 88 68.7828 83.7857 76.2842 76.2843C83.7857 68.7828 88 58.6087 88 48C88 42.7471 86.9653 37.5457 84.9551 32.6927C82.945 27.8396 79.9986 23.4301 76.2842 19.7157C72.5699 16.0014 68.1603 13.055 63.3073 11.0448C58.4543 9.03463 53.2529 8 48 8ZM29.8 29.8H66.2V37.08H51.64V40.84C59.64 41.24 69.8 43.04 69.8 48C69.8 52.96 59.64 54.76 51.64 55.16V69.8H44.36V55.16C36.36 54.76 26.2 52.96 26.2 48C26.2 43.04 36.36 41.24 44.36 40.84V37.08H29.8V29.8ZM44.36 44.48C35.56 44.92 30.24 46.92 29.8 48.08C30.32 49.2 37 51.64 48 51.64C59 51.64 65.4 49.32 66.16 48C65.52 46.84 60.24 44.92 51.64 44.48V48H44.36V44.48Z" fill="currentColor"/>
</svg>
