<svg viewBox="0 0 40 40">
<path d="M29.9251 7.11676H24.8251V5.35009C24.8251 5.01857 24.6934 4.70063 24.459 4.46621C24.2246 4.23178 23.9066 4.10009 23.5751 4.10009H16.3084C16.1437 4.09785 15.9801 4.12865 15.8274 4.19068C15.6748 4.2527 15.5361 4.34469 15.4196 4.46121C15.303 4.57773 15.211 4.71642 15.149 4.86909C15.087 5.02176 15.0562 5.18532 15.0584 5.35009V7.11676H6.7251V9.61676H8.75843V30.0668C8.76285 31.6154 9.38113 33.0991 10.4777 34.1926C11.5744 35.286 13.0598 35.9001 14.6084 35.9001H25.4251C26.9722 35.9001 28.4559 35.2855 29.5499 34.1915C30.6439 33.0976 31.2584 31.6139 31.2584 30.0668V9.61676H33.2751V7.11676H29.9251ZM17.5584 29.2668H15.0584V15.9334H17.5584V29.2668ZM17.5584 6.60009H22.3251V7.11676H17.5584V6.60009ZM24.8251 29.2668H22.3251V15.9334H24.8251V29.2668Z" fill="currentColor"/>
</svg>
