<svg viewBox="0 0 40 40">
<path d="M35.1336 7.66647C35.1336 6.90618 34.8315 6.17704 34.2939 5.63943C33.7563 5.10183 33.0272 4.7998 32.2669 4.7998H19.9502C19.1894 4.80009 18.4591 5.09938 17.9169 5.63314L5.63356 17.9165C5.09915 18.4617 4.7998 19.1947 4.7998 19.9581C4.7998 20.7216 5.09915 21.4546 5.63356 21.9998L18.0002 34.3665C18.5454 34.9009 19.2785 35.2002 20.0419 35.2002C20.8053 35.2002 21.5384 34.9009 22.0836 34.3665L34.3502 22.0831C34.6203 21.8145 34.8345 21.4951 34.9804 21.1432C35.1262 20.7913 35.201 20.414 35.2002 20.0331L35.1336 7.66647ZM28.1669 14.1665C27.6889 14.1665 27.2217 14.0247 26.8243 13.7592C26.4268 13.4936 26.1171 13.1162 25.9342 12.6746C25.7513 12.233 25.7034 11.7471 25.7967 11.2783C25.8899 10.8095 26.1201 10.3789 26.4581 10.041C26.796 9.70299 27.2266 9.47282 27.6954 9.37957C28.1642 9.28633 28.6501 9.33418 29.0917 9.5171C29.5333 9.70001 29.9107 10.0098 30.1763 10.4072C30.4418 10.8046 30.5836 11.2718 30.5836 11.7498C30.5836 12.3907 30.3289 13.0054 29.8757 13.4586C29.4225 13.9119 28.8078 14.1665 28.1669 14.1665Z" fill="currentColor"/>
</svg>
