<svg viewBox="0 0 97 97">
<path d="M87.3578 13.6111C86.5322 13.0354 85.5644 12.691 84.5569 12.6145C83.5494 12.5379 82.5397 12.7319 81.6347 13.1761C79.2735 14.1253 15.5995 41.0964 13.0381 42.2037C12.5578 42.2037 8.43564 43.9042 8.83585 47.2657C9.07284 48.2813 9.56316 49.2222 10.2622 50.0027C10.9612 50.7832 11.8466 51.3786 12.838 51.7345L28.8465 57.192C29.9271 60.7513 33.8892 73.7622 34.7697 76.5701C35.33 78.3102 36.2105 80.5248 37.7713 81.0389C38.3766 81.245 39.025 81.295 39.6553 81.1843C40.2856 81.0736 40.8769 80.8057 41.3732 80.4062L51.2585 71.3499L67.267 83.649L67.6272 83.8863C68.6056 84.3377 69.6693 84.5802 70.7489 84.5981C71.5042 84.5951 72.2517 84.4473 72.9501 84.1631C74.5061 83.4816 75.7381 82.2359 76.3919 80.683L88.3983 19.385C88.7942 18.4237 88.9065 17.3713 88.7224 16.3495C88.5382 15.3277 88.0651 14.3783 87.3578 13.6111ZM43.3343 59.4067L37.8914 73.8018L32.6486 55.8079L74.5109 25.238L43.3343 59.4067Z" fill="currentColor"/>
</svg>
