<svg viewBox="0 0 40 40">
<path fill-rule="evenodd" clip-rule="evenodd" d="M10.5 6.5C8.29086 6.5 6.5 8.29086 6.5 10.5V29.5C6.5 31.7091 8.29086 33.5 10.5 33.5H29.5C31.7091 33.5 33.5 31.7091 33.5 29.5V10.5C33.5 8.29086 31.7091 6.5 29.5 6.5H10.5ZM27.6342 15.4181C28.4007 15.3222 29.1412 15.1238 29.8363 14.8231C29.3166 15.5845 28.68 16.2435 27.9265 16.7682C27.933 16.9282 27.9395 17.0881 27.9395 17.2545C27.9395 22.2325 24.0939 27.9719 17.0587 27.9719C14.8956 27.9719 12.8883 27.3576 11.1929 26.2827C11.4917 26.3211 11.797 26.3339 12.1088 26.3339C13.8952 26.3339 15.5517 25.7324 16.8509 24.7279C15.1814 24.6959 13.7718 23.5953 13.2781 22.1045C13.5054 22.1557 13.7523 22.1685 13.9991 22.1685C14.3499 22.1685 14.6877 22.1301 14.9995 22.0469C13.2586 21.7014 11.9334 20.1786 11.9334 18.3486V18.3102C12.4466 18.5918 13.0442 18.7645 13.6613 18.7773C12.648 18.1119 11.9659 16.9538 11.9659 15.6485C11.9659 14.9511 12.1608 14.3048 12.4921 13.7418C14.3824 16.0324 17.1951 17.5296 20.3717 17.6832C20.3067 17.4145 20.2807 17.1265 20.2807 16.8258C20.2807 14.7527 21.9827 13.0571 24.1004 13.0571C25.1917 13.0571 26.192 13.5114 26.8936 14.2472C27.7641 14.0809 28.5761 13.7738 29.3166 13.3387C29.0308 14.2216 28.4267 14.9511 27.6342 15.4181Z" fill="currentColor"/>
</svg>
