<svg viewBox="0 0 96 97">
<path d="M78 30.2815C75.7631 31.2494 73.3798 31.8877 70.9129 32.1966C73.4634 30.6934 75.4077 28.3459 76.3276 25.5042C73.9443 26.9045 71.331 27.8929 68.5296 28.4283C66.2718 26.0602 63.0523 24.5981 59.5401 24.5981C52.7248 24.5981 47.2474 30.055 47.2474 36.7268C47.2474 37.6947 47.331 38.6213 47.5401 39.4862C37.3171 38.992 28.2648 34.1734 22.1812 26.8015C21.115 28.6136 20.4878 30.6934 20.4878 32.9379C20.4878 37.1387 22.6829 40.8658 25.9442 43.0074C23.9582 42.9662 22.0348 42.4102 20.3832 41.5042C20.3832 41.5454 20.3832 41.5866 20.3832 41.6277C20.3832 47.5171 24.6481 52.418 30.2508 53.5299C29.2474 53.7976 28.1603 53.9212 27.0314 53.9212C26.237 53.9212 25.4425 53.88 24.7108 53.7153C26.2996 58.5132 30.8362 62.055 36.2091 62.158C32.0279 65.3909 26.6969 67.3266 20.9477 67.3266C19.9443 67.3266 18.9617 67.2854 18 67.1618C23.4564 70.6213 29.9164 72.5981 36.8781 72.5981C59.5192 72.5981 71.8955 54.1271 71.8955 38.1065C71.8955 37.5711 71.8746 37.0563 71.8537 36.5415C74.2788 34.853 76.3275 32.732 78 30.2815Z" fill="currentColor"/>
</svg>
