<svg viewBox="0 0 97 97">
<path d="M48.7686 8.59822C38.1705 8.59822 28.0065 12.8125 20.5126 20.3139C13.0186 27.8154 8.80857 37.9895 8.80857 48.5982C8.7992 55.8277 10.7611 62.9226 14.4829 69.1182L9.16821 88.5982L29.1482 83.3582C35.1443 86.7992 41.937 88.606 48.8485 88.5982C59.4466 88.5982 69.6106 84.3839 77.1045 76.8825C84.5985 69.381 88.8085 59.2069 88.8085 48.5982C88.8085 43.3386 87.7723 38.1306 85.7591 33.2724C83.7459 28.4141 80.7954 24.001 77.0763 20.2856C73.3572 16.5702 68.9426 13.6255 64.0852 11.62C59.2278 9.61457 54.0229 8.58771 48.7686 8.59822ZM35.2621 29.9582H37.1402C37.8595 29.9582 38.6187 29.9582 39.378 31.6782C40.1372 33.3982 42.1752 38.5182 42.4149 39.0382C42.5658 39.2997 42.6452 39.5963 42.6452 39.8982C42.6452 40.2001 42.5658 40.4967 42.4149 40.7582C42.174 41.3597 41.8513 41.9251 41.4559 42.4382C40.9364 42.9982 40.4169 43.7182 39.9374 44.1582C39.4579 44.5982 38.9384 45.1982 39.4979 46.1582C41.0043 48.6992 42.8607 51.0153 45.0124 53.0382C47.3806 55.1169 50.0826 56.7803 53.0044 57.9582C54.0034 58.4382 54.6028 58.3582 55.1622 57.6782C56.2712 56.4011 57.3116 55.0659 58.2791 53.6782C58.9584 52.6782 59.5978 52.8382 60.5168 53.1582C61.4359 53.4782 66.2711 55.8782 67.2701 56.3982C68.2691 56.9182 68.9084 57.1182 69.1882 57.5182C69.4516 59.1164 69.2433 60.7568 68.5887 62.2382C67.8776 63.4563 66.914 64.5078 65.763 65.3219C64.6119 66.1361 63.2999 66.694 61.9154 66.9582C60.1172 66.9582 58.3989 67.7582 49.9274 64.4782C42.9819 61.209 37.1165 56.0178 33.0243 49.5182C30.7113 46.5748 29.3208 43.0117 29.0283 39.2782C29.0053 37.7362 29.2984 36.2059 29.8895 34.7817C30.4805 33.3576 31.3571 32.0699 32.4649 30.9982C32.8354 30.6428 33.2748 30.3671 33.7559 30.1883C34.237 30.0094 34.7496 29.9311 35.2621 29.9582Z" fill="currentColor"/>
</svg>
