<svg viewBox="0 0 97 97">
<path d="M72.2881 28.7017V12.7017C72.2778 11.9092 71.9584 11.1522 71.398 10.5918C70.8376 10.0314 70.0806 9.71202 69.2881 9.70166H28.3281C27.5357 9.71202 26.7786 10.0314 26.2183 10.5918C25.6579 11.1522 25.3385 11.9092 25.3281 12.7017V28.7017C25.3397 34.4012 27.4239 39.9019 31.1922 44.1779C34.9604 48.454 40.1553 51.2135 45.8081 51.9417V81.7417H32.0881V87.7417H65.5281V81.7417H51.8081V52.0617C57.4814 51.3308 62.6928 48.5541 66.4637 44.2529C70.2347 39.9517 72.3058 34.4218 72.2881 28.7017ZM66.2881 15.4217V20.7017H31.3281V15.5417L66.2881 15.4217Z" fill="currentColor"/>
</svg>
