<svg width="40" height="40" viewBox="0 0 40 40" fill="none" xmlns="http://www.w3.org/2000/svg">
<path d="M27.1519 18.4393H26.7448C26.0035 18.4389 25.274 18.2535 24.6222 17.9C23.9703 17.5466 23.4166 17.036 23.011 16.4145V23.2902C23.011 24.2969 22.7129 25.281 22.1546 26.1181C21.5962 26.9551 20.8026 27.6075 19.8741 27.9927C18.9456 28.378 17.9239 28.4788 16.9382 28.2824C15.9525 28.086 15.0471 27.6012 14.3364 26.8894C13.6258 26.1775 13.1418 25.2706 12.9458 24.2832C12.7497 23.2959 12.8503 22.2724 13.2349 21.3424C13.6195 20.4123 14.2708 19.6173 15.1065 19.058C15.9421 18.4987 16.9245 18.2002 17.9295 18.2002H18.2384V20.703H17.9295C17.5734 20.6768 17.2157 20.7243 16.8787 20.8428C16.5418 20.9613 16.2328 21.1481 15.9712 21.3915C15.7096 21.635 15.5009 21.9299 15.3582 22.2578C15.2155 22.5857 15.1419 22.9395 15.1419 23.2972C15.1419 23.6549 15.2155 24.0088 15.3582 24.3367C15.5009 24.6646 15.7096 24.9595 15.9712 25.203C16.2328 25.4464 16.5418 25.6332 16.8787 25.7517C17.2157 25.8702 17.5734 25.9177 17.9295 25.8915C18.6237 25.903 19.2947 25.6414 19.7986 25.163C20.3025 24.6846 20.599 24.0274 20.6246 23.3324V11.6339H23.011C23.121 12.6814 23.5968 13.6564 24.3544 14.387C25.1119 15.1175 26.1027 15.5567 27.1519 15.6271V18.4393ZM29.5241 7.51406H10.4759C9.68903 7.51405 8.93424 7.82618 8.37656 8.38216C7.81888 8.93815 7.50371 9.69273 7.5 10.4809V29.5613C7.51107 30.3446 7.82947 31.092 8.38636 31.6419C8.94325 32.1918 9.69385 32.5001 10.4759 32.5H29.5241C29.9149 32.5 30.3019 32.4229 30.663 32.2731C31.024 32.1233 31.3521 31.9037 31.6284 31.6269C31.9047 31.3501 32.1239 31.0215 32.2735 30.6599C32.423 30.2982 32.5 29.9106 32.5 29.5191V10.4809C32.5 10.0894 32.423 9.7018 32.2735 9.34014C32.1239 8.97848 31.9047 8.64988 31.6284 8.37308C31.3521 8.09628 31.024 7.87671 30.663 7.72691C30.3019 7.5771 29.9149 7.5 29.5241 7.5" fill="#FF0000"/>
</svg>
