<svg viewBox="0 0 40 40">
<path d="M33.175 7.10839H24.8417V5.34173C24.8417 5.01021 24.71 4.69227 24.4756 4.45785C24.2412 4.22343 23.9232 4.09173 23.5917 4.09173H16.325C16.1603 4.08949 15.9967 4.12029 15.844 4.18231C15.6914 4.24434 15.5527 4.33633 15.4361 4.45285C15.3196 4.56938 15.2276 4.70806 15.1656 4.86073C15.1036 5.0134 15.0728 5.17696 15.075 5.34173V7.10839H6.7417V9.62506H8.74169V30.0751C8.74611 31.6237 9.36439 33.1074 10.461 34.2009C11.5576 35.2944 13.0431 35.9084 14.5917 35.9084H25.4084C26.9555 35.9084 28.4392 35.2938 29.5332 34.1998C30.6271 33.1059 31.2417 31.6222 31.2417 30.0751V9.62506H33.2584L33.175 7.10839ZM17.5417 6.59173H22.3084V7.10839H17.5417V6.59173ZM28.7417 30.0584C28.7417 30.9425 28.3905 31.7903 27.7654 32.4154C27.1403 33.0405 26.2924 33.3917 25.4084 33.3917H14.525C13.641 33.3917 12.7931 33.0405 12.168 32.4154C11.5429 31.7903 11.1917 30.9425 11.1917 30.0584V9.62506H28.7417V30.0584Z" fill="currentColor"/>
<path d="M17.5417 15.925H15.0417V29.275H17.5417V15.925Z" fill="currentColor"/>
<path d="M24.8081 15.925H22.3081V29.275H24.8081V15.925Z" fill="currentColor"/>
</svg>
