<svg viewBox="0 0 40 40">
<path d="M21.2688 15.5167H18.7688V24.45H21.2688V15.5167Z" fill="currentColor"/>
<path d="M20.019 26.75C19.6506 26.7499 19.297 26.8952 19.0349 27.1541C18.7728 27.4131 18.6234 27.7649 18.619 28.1333C18.6233 28.5033 18.7722 28.8568 19.0339 29.1185C19.2955 29.3801 19.6491 29.529 20.019 29.5333C20.3874 29.5289 20.7393 29.3795 20.9982 29.1174C21.2572 28.8553 21.4024 28.5017 21.4023 28.1333C21.4023 27.7664 21.2566 27.4146 20.9972 27.1551C20.7378 26.8957 20.3859 26.75 20.019 26.75Z" fill="currentColor"/>
<path d="M34.8691 29.5L22.3357 7.8333C22.1059 7.42142 21.7696 7.07884 21.3621 6.84136C20.9546 6.60388 20.4907 6.48022 20.0191 6.4833C19.5453 6.48075 19.0793 6.60447 18.6692 6.84174C18.2591 7.07902 17.9197 7.42128 17.6857 7.8333L5.16906 29.5C4.9233 29.9043 4.79333 30.3684 4.79333 30.8416C4.79333 31.3148 4.9233 31.7789 5.16906 32.1833C5.40241 32.5909 5.7399 32.9292 6.14697 33.1634C6.55404 33.3977 7.01606 33.5196 7.48572 33.5166H32.4857C32.9579 33.5208 33.4227 33.3996 33.8326 33.1654C34.2426 32.9311 34.583 32.5922 34.8191 32.1833C35.0639 31.7804 35.1975 31.3198 35.2062 30.8484C35.215 30.377 35.0987 29.9117 34.8691 29.5ZM32.7024 30.9333C32.6766 30.9465 32.648 30.9533 32.6191 30.9533C32.5901 30.9533 32.5615 30.9465 32.5357 30.9333H7.53572C7.50957 30.9453 7.48117 30.9515 7.45241 30.9515C7.42365 30.9515 7.39522 30.9453 7.36907 30.9333C7.35567 30.9046 7.34872 30.8733 7.34872 30.8416C7.34872 30.81 7.35567 30.7787 7.36907 30.75L19.9024 9.0833C19.9024 9.0833 20.2024 9.0833 20.2191 9.0833L32.7524 30.75C32.7591 30.7873 32.7529 30.8259 32.7347 30.8592C32.7165 30.8926 32.6875 30.9187 32.6524 30.9333H32.7024Z" fill="currentColor"/>
</svg>
