<svg  viewBox="0 0 40 40" >
<path d="M33.7834 10.0917H27.0335V9.44167C27.0335 8.62391 26.7086 7.83965 26.1304 7.26141C25.5521 6.68318 24.7679 6.35832 23.9501 6.35832H15.9834C15.1657 6.35832 14.3814 6.68318 13.8032 7.26141C13.225 7.83965 12.9001 8.62391 12.9001 9.44167V10.0917H6.15012C5.19976 10.0917 4.28833 10.4692 3.61632 11.1412C2.94432 11.8132 2.56677 12.7246 2.56677 13.675V30.0583C2.56677 31.0087 2.94432 31.9201 3.61632 32.5921C4.28833 33.2641 5.19976 33.6417 6.15012 33.6417H33.8501C34.8005 33.6417 35.7119 33.2641 36.3839 32.5921C37.0559 31.9201 37.4334 31.0087 37.4334 30.0583V13.675C37.4335 13.1988 37.3387 12.7273 37.1545 12.2881C36.9702 11.849 36.7003 11.451 36.3604 11.1173C36.0206 10.7837 35.6177 10.5212 35.1752 10.3451C34.7327 10.169 34.2596 10.0828 33.7834 10.0917ZM15.3334 9.44167C15.3334 9.28696 15.3949 9.13859 15.5043 9.02919C15.6137 8.9198 15.7621 8.85832 15.9168 8.85832H23.9501C24.1048 8.85832 24.2532 8.9198 24.3626 9.02919C24.472 9.13859 24.5335 9.28696 24.5335 9.44167V10.0917H15.3334V9.44167ZM6.08344 12.5917H33.7834C34.0694 12.596 34.3425 12.7115 34.5447 12.9137C34.747 13.116 34.8625 13.389 34.8668 13.675V18.425H29.3168V16.9583H26.8168V18.425H13.1501V16.9583H10.6501V18.425H5.05012V13.675C5.05381 13.3973 5.16238 13.1313 5.35404 12.9304C5.54571 12.7295 5.80627 12.6085 6.08344 12.5917ZM33.7834 31.1417H6.08344C5.79612 31.1417 5.52059 31.0275 5.31742 30.8244C5.11426 30.6212 5.00012 30.3456 5.00012 30.0583V20.925H10.6001V22.925H13.1001V20.925H26.7668V22.925H29.3168V20.925H34.9168V30.0583C34.9169 30.2049 34.8873 30.35 34.8298 30.4848C34.7723 30.6196 34.688 30.7413 34.582 30.8426C34.476 30.9439 34.3507 31.0226 34.2134 31.074C34.0761 31.1254 33.9298 31.1484 33.7834 31.1417Z" fill="currentColor"/>
</svg>
