<svg  viewBox="0 0 40 40" >
<path d="M33.223 30.0333L31.7563 27.5333C30.4904 25.3388 29.8237 22.8501 29.823 20.3166V17.6166C29.815 15.2234 28.9389 12.9143 27.3573 11.1181C25.7757 9.32197 23.596 8.16071 21.223 7.84996V5.16663H18.7897V7.8333C16.4152 8.14067 14.2336 9.30093 12.6513 11.0978C11.069 12.8948 10.1941 15.2057 10.1897 17.6V20.3C10.1831 22.8348 9.5107 25.3235 8.23967 27.5166L6.78968 30.0166C6.68313 30.2077 6.6272 30.4229 6.6272 30.6416C6.6272 30.8604 6.68313 31.0756 6.78968 31.2666C6.8984 31.4583 7.05586 31.6179 7.24611 31.7291C7.43636 31.8403 7.65263 31.8992 7.873 31.8999H16.073C16.338 32.7462 16.8649 33.4864 17.5779 34.0136C18.2909 34.5408 19.153 34.8279 20.0397 34.8333C20.9264 34.8279 21.7885 34.5408 22.5014 34.0136C23.2144 33.4864 23.7414 32.7462 24.0063 31.8999H32.123C32.343 31.8976 32.5587 31.8379 32.7486 31.7269C32.9386 31.6158 33.0963 31.4572 33.2063 31.2666C33.3125 31.079 33.3696 30.8676 33.3726 30.6521C33.3755 30.4365 33.324 30.2237 33.223 30.0333ZM19.8897 32.35C19.4824 32.3448 19.0911 32.1906 18.7897 31.9166H20.9897C20.7099 32.1725 20.3513 32.3253 19.973 32.35H19.8897ZM9.88968 29.4166L10.2563 28.7833C11.7462 26.2099 12.5336 23.2902 12.5397 20.3166V17.6166C12.5441 15.6686 13.3199 13.8017 14.6973 12.4243C16.0747 11.0468 17.9417 10.271 19.8897 10.2666C21.8377 10.271 23.7046 11.0468 25.082 12.4243C26.4595 13.8017 27.2353 15.6686 27.2397 17.6166V20.3166C27.2378 23.2912 28.0258 26.213 29.523 28.7833L29.8897 29.4166H9.88968Z" fill="currentColor"/>
</svg>
