<svg viewBox="0 0 96 96">
<path d="M48 8C37.3913 8 27.2172 12.2143 19.7157 19.7157C12.2142 27.2172 8 37.3913 8 48C8 58.6087 12.2142 68.7828 19.7157 76.2843C27.2172 83.7857 37.3913 88 48 88C58.6087 88 68.7828 83.7857 76.2842 76.2843C83.7857 68.7828 88 58.6087 88 48C88 37.3913 83.7857 27.2172 76.2842 19.7157C68.7828 12.2143 58.6087 8 48 8ZM48 16C56.4869 16 64.6262 19.3714 70.6274 25.3726C76.6285 31.3737 80 39.5131 80 48C80 56.4869 76.6285 64.6263 70.6274 70.6274C64.6262 76.6286 56.4869 80 48 80C39.5131 80 31.3737 76.6286 25.3726 70.6274C19.3714 64.6263 16 56.4869 16 48C16 39.5131 19.3714 31.3737 25.3726 25.3726C31.3737 19.3714 39.5131 16 48 16ZM45.6 20.52V28.12H37.2V68.12H45.6V75.48H50.76V68.08C53.9818 68.257 57.152 67.2145 59.64 65.16C60.7557 64.006 61.6142 62.6286 62.1589 61.1187C62.7036 59.6087 62.9221 58.0005 62.8 56.4C62.8098 55.4592 62.716 54.5202 62.52 53.6C62.3335 52.7024 62.0097 51.8389 61.56 51.04C61.1086 50.2543 60.527 49.5509 59.84 48.96C59.0762 48.3414 58.1901 47.8915 57.24 47.64C58.0647 47.2764 58.822 46.776 59.48 46.16C60.1087 45.6012 60.6365 44.9381 61.04 44.2C61.4458 43.4557 61.755 42.6626 61.96 41.84C62.1562 40.974 62.2502 40.0879 62.24 39.2C62.284 37.5432 61.9844 35.8953 61.36 34.36C60.8205 33.0428 59.9695 31.8761 58.88 30.96C57.6918 30.0358 56.3323 29.356 54.88 28.96C53.5725 28.6149 52.2312 28.4137 50.88 28.36V20.72L45.6 20.52ZM45.24 34.8H49.68C50.321 34.7427 50.967 34.8159 51.5789 35.0153C52.1907 35.2146 52.7558 35.536 53.24 35.96C54.0837 37.1132 54.4686 38.5389 54.32 39.96C54.4052 41.2761 53.9909 42.5759 53.16 43.6C52.6878 44.0464 52.1265 44.3877 51.5129 44.6014C50.8993 44.8152 50.2473 44.8965 49.6 44.84H45.4L45.24 34.8ZM45.24 50.8H50.68C51.2904 50.7467 51.9041 50.8554 52.4589 51.1153C53.0138 51.3752 53.4902 51.777 53.84 52.28C54.5336 53.495 54.8667 54.8825 54.8 56.28C54.8037 56.9673 54.7232 57.6524 54.56 58.32C54.4006 58.9128 54.1291 59.4695 53.76 59.96C53.3912 60.4153 52.9269 60.7839 52.4 61.04C51.764 61.2924 51.084 61.4148 50.4 61.4H45.24V50.8Z" fill="currentColor"/>
</svg>
