<svg viewBox="0 0 97 97">
<path d="M89.4604 70.2041C89.1804 68.5641 87.8604 64.8041 81.4604 65.2041C79.2993 65.3371 77.1351 64.9981 75.1182 64.2106C73.1012 63.4232 71.2798 62.2062 69.7804 60.6441L64.4604 55.1241C68.7004 45.0041 64.4604 30.1641 53.1404 18.8841C40.3404 6.08413 25.3804 4.56414 14.9404 14.8841C4.50042 25.2041 6.06042 40.2841 18.9404 53.0441C26.2378 60.8347 36.2787 65.4822 46.9404 66.0041C49.8308 66.0223 52.6972 65.4789 55.3804 64.4041L63.3804 72.4041C65.547 74.6619 66.9467 77.5452 67.3804 80.6441C67.4374 82.0784 67.7819 83.4867 68.3935 84.7853C69.005 86.0839 69.8711 87.2465 70.9404 88.2041C71.9302 88.9505 73.141 89.3447 74.3804 89.3241C74.6859 89.3622 74.9949 89.3622 75.3004 89.3241C77.3205 88.8919 79.1228 87.7597 80.389 86.1275C81.6552 84.4954 82.3039 82.4682 82.2204 80.4041C82.3249 80.1023 82.4988 79.8293 82.728 79.607C82.9573 79.3847 83.2356 79.2193 83.5404 79.1241C85.4549 78.6315 87.1192 77.4475 88.2124 75.8003C89.3055 74.1532 89.7501 72.1597 89.4604 70.2041ZM23.0604 48.9641C12.7004 38.6041 11.0604 27.2441 19.0604 19.2841C20.572 17.6928 22.389 16.4227 24.4028 15.5499C26.4165 14.677 28.5857 14.2193 30.7804 14.2041C34.2393 14.4247 37.6205 15.3262 40.7301 16.8569C43.8396 18.3877 46.6162 20.5175 48.9004 23.1241C60.0204 34.2441 63.5004 49.5641 56.5004 56.5641C49.5004 63.5641 34.1804 60.0841 23.0604 48.9641ZM81.2204 73.4041C79.8717 73.9493 78.6972 74.8519 77.8233 76.0149C76.9493 77.1778 76.409 78.557 76.2604 80.0041C76.2604 81.5241 75.6604 83.4041 74.5004 83.6441C74.5004 83.6441 73.7404 83.0441 73.3004 80.0841C72.6527 75.6698 70.5892 71.585 67.4204 68.4441L60.2204 61.2441L60.7404 60.8441L61.1404 60.3641L65.4604 64.8041C67.5659 66.981 70.1197 68.6738 72.9447 69.7651C75.7697 70.8564 78.7983 71.3202 81.8204 71.1241H82.4204C82.7933 71.0989 83.1675 71.0989 83.5404 71.1241C83.5804 72.0041 82.8204 72.7241 81.2204 73.4041Z" fill="currentColor"/>
</svg>
