<svg  viewBox="0 0 40 40" >
<path d="M33.7418 7.79999H31.5084V5.81665H29.0084V7.79999H10.9918V5.81665H8.49176V7.79999H6.25841C5.27269 7.79999 4.32735 8.19157 3.63034 8.88858C2.93333 9.58559 2.54175 10.5309 2.54175 11.5166V30.4667C2.54175 31.4524 2.93333 32.3977 3.63034 33.0947C4.32735 33.7917 5.27269 34.1833 6.25841 34.1833H33.7418C34.7275 34.1833 35.6728 33.7917 36.3698 33.0947C37.0668 32.3977 37.4584 31.4524 37.4584 30.4667V11.5166C37.4584 10.5309 37.0668 9.58559 36.3698 8.88858C35.6728 8.19157 34.7275 7.79999 33.7418 7.79999ZM8.52508 10.3V11.05H11.0251V10.3H29.0084V11.05H31.5084V10.3H33.7418C34.0644 10.3 34.3739 10.4282 34.6021 10.6563C34.8302 10.8845 34.9584 11.194 34.9584 11.5166V14.1333H5.04175V11.5166C5.04175 11.194 5.16992 10.8845 5.39809 10.6563C5.62626 10.4282 5.93573 10.3 6.25841 10.3H8.52508ZM33.7418 31.6833H6.25841C5.93573 31.6833 5.62626 31.5551 5.39809 31.327C5.16992 31.0988 5.04175 30.7893 5.04175 30.4667V16.6333H34.9251V30.4667C34.9252 30.7837 34.8016 31.0882 34.5806 31.3154C34.3596 31.5426 34.0586 31.6746 33.7418 31.6833Z" fill="currentColor"/>
<path d="M12.9585 19.8H8.00846V22.3H12.9585V19.8Z" fill="currentColor"/>
<path d="M22.4751 19.8H17.5251V22.3H22.4751V19.8Z" fill="currentColor"/>
<path d="M31.975 19.8H27.025V22.3H31.975V19.8Z" fill="currentColor"/>
<path d="M12.9585 25.3666H8.00846V27.8666H12.9585V25.3666Z" fill="currentColor"/>
<path d="M22.4751 25.3666H17.5251V27.8666H22.4751V25.3666Z" fill="currentColor"/>
<path d="M31.975 25.3666H27.025V27.8666H31.975V25.3666Z" fill="currentColor"/>
</svg>
