<svg viewBox="0 0 41 40">
<path d="M37.0308 6.66675C35.7751 6.6675 34.5553 7.08531 33.5628 7.85456C32.5703 8.62381 31.8614 9.70093 31.5475 10.9167L31.2642 11.8834H4.36417C4.17367 11.8801 3.98512 11.9222 3.81412 12.0063C3.64313 12.0903 3.4946 12.2139 3.38084 12.3667C3.25789 12.512 3.17236 12.6852 3.13169 12.8711C3.09102 13.057 3.09645 13.2501 3.14751 13.4334L6.74751 28.2501C6.81146 28.5249 6.96648 28.7699 7.18738 28.9454C7.40827 29.1209 7.68205 29.2166 7.96417 29.2167H28.3975C28.6766 29.2146 28.9473 29.1203 29.1673 28.9485C29.3873 28.7767 29.5444 28.537 29.6142 28.2667L33.9642 11.6001C34.1438 10.9232 34.5417 10.3245 35.0961 9.8966C35.6505 9.46874 36.3305 9.23564 37.0308 9.23341H38.1642V6.66675H37.0308ZM27.4308 26.6667H8.94751L5.94751 14.3334H30.6475L27.4308 26.6667Z" fill="currentColor"/>
<path d="M10.2141 30.8835C9.78821 30.8802 9.3709 31.0035 9.01515 31.2377C8.6594 31.472 8.38124 31.8066 8.21595 32.1991C8.05066 32.5917 8.0057 33.0245 8.08677 33.4427C8.16783 33.8608 8.37127 34.2455 8.67128 34.5478C8.97129 34.8502 9.35435 35.0566 9.77185 35.1409C10.1894 35.2252 10.6225 35.1836 11.0163 35.0214C11.4102 34.8592 11.7469 34.5836 11.9839 34.2297C12.2209 33.8758 12.3475 33.4595 12.3475 33.0335C12.3475 32.4662 12.1233 31.9218 11.7236 31.5191C11.324 31.1164 10.7815 30.8879 10.2141 30.8835Z" fill="currentColor"/>
<path d="M26.5641 30.8835C26.1389 30.8835 25.7232 31.0096 25.3697 31.2458C25.0161 31.482 24.7405 31.8178 24.5778 32.2107C24.4151 32.6035 24.3725 33.0358 24.4555 33.4529C24.5384 33.87 24.7432 34.2531 25.0439 34.5537C25.3445 34.8544 25.7276 35.0592 26.1447 35.1421C26.5618 35.2251 26.9941 35.1825 27.3869 35.0198C27.7798 34.8571 28.1156 34.5815 28.3518 34.2279C28.5881 33.8744 28.7141 33.4587 28.7141 33.0335C28.7141 32.4632 28.4876 31.9164 28.0844 31.5132C27.6812 31.11 27.1344 30.8835 26.5641 30.8835Z" fill="currentColor"/>
</svg>
