<svg viewBox="0 0 97 97">
<path d="M87.8878 32.9416H65.0478V20.3016H59.0478V32.9416H51.8078V20.3016H45.8078V32.9416H38.5678V20.3016H32.5678V32.9416H9.72782C9.33237 32.9362 8.93984 33.0101 8.57343 33.159C8.20702 33.3078 7.87416 33.5286 7.5945 33.8083C7.31485 34.0879 7.09407 34.4208 6.94521 34.7872C6.79635 35.1536 6.72243 35.5461 6.72781 35.9416V84.9416C6.72781 85.7372 7.04389 86.5003 7.6065 87.0629C8.16911 87.6255 8.93217 87.9416 9.72782 87.9416H87.8878C88.6835 87.9416 89.4465 87.6255 90.0091 87.0629C90.5717 86.5003 90.8878 85.7372 90.8878 84.9416V35.9816C90.8986 35.5828 90.8287 35.1859 90.6823 34.8148C90.5359 34.4438 90.316 34.1061 90.0358 33.8222C89.7555 33.5382 89.4208 33.3138 89.0517 33.1625C88.6826 33.0112 88.2867 32.936 87.8878 32.9416ZM84.8878 38.9416V53.5816C82.9538 53.0329 81.2973 51.7762 80.2478 50.0616C79.9604 49.649 79.5775 49.312 79.1318 49.0793C78.686 48.8466 78.1906 48.7251 77.6878 48.7251C77.185 48.7251 76.6896 48.8466 76.2439 49.0793C75.7981 49.312 75.4152 49.649 75.1278 50.0616C74.4083 51.2104 73.4086 52.1576 72.2227 52.8142C71.0367 53.4708 69.7034 53.8152 68.3478 53.8152C66.9922 53.8152 65.6589 53.4708 64.473 52.8142C63.287 52.1576 62.2873 51.2104 61.5678 50.0616C61.2804 49.649 60.8975 49.312 60.4518 49.0793C60.006 48.8466 59.5106 48.7251 59.0078 48.7251C58.505 48.7251 58.0096 48.8466 57.5639 49.0793C57.1181 49.312 56.7353 49.649 56.4478 50.0616C55.7602 51.2534 54.7767 52.2476 53.5925 52.9483C52.4084 53.649 51.0635 54.0325 49.6878 54.0616C48.3122 54.0325 46.9673 53.649 45.7831 52.9483C44.5989 52.2476 43.6155 51.2534 42.9278 50.0616C42.6404 49.649 42.2575 49.312 41.8118 49.0793C41.366 48.8466 40.8706 48.7251 40.3678 48.7251C39.865 48.7251 39.3696 48.8466 38.9239 49.0793C38.4781 49.312 38.0953 49.649 37.8078 50.0616C37.0462 51.3489 35.9388 52.397 34.6115 53.0867C33.2842 53.7765 31.7901 54.0803 30.2988 53.9636C28.8076 53.847 27.3789 53.3146 26.1749 52.4269C24.971 51.5392 24.0401 50.3317 23.4878 48.9416C23.2696 48.3762 22.8854 47.8901 22.3856 47.5474C21.8857 47.2047 21.2938 47.0213 20.6878 47.0216C20.0762 47.0188 19.478 47.2005 18.9714 47.5431C18.4647 47.8856 18.0731 48.373 17.8478 48.9416C17.4044 50.1031 16.6963 51.1454 15.7797 51.9855C14.8632 52.8256 13.7635 53.4406 12.5678 53.7816V38.9816L84.8878 38.9416ZM12.8878 81.9016V59.7016C15.9517 59.191 18.7628 57.6871 20.8878 55.4216C22.1078 56.7658 23.581 57.8561 25.223 58.63C26.8651 59.4039 28.6437 59.8463 30.4569 59.9318C32.2702 60.0172 34.0825 59.7441 35.79 59.128C37.4976 58.512 39.0668 57.5651 40.4078 56.3416C43.0105 58.5513 46.3136 59.7644 49.7278 59.7644C53.142 59.7644 56.4452 58.5513 59.0478 56.3416C61.6604 58.5468 64.969 59.7565 68.3878 59.7565C71.8067 59.7565 75.1153 58.5468 77.7278 56.3416C79.7545 58.1384 82.2527 59.3181 84.9278 59.7416V81.9416L12.8878 81.9016Z" fill="currentColor"/>
<path d="M38.5674 9.50153H32.5674V15.1815H38.5674V9.50153Z" fill="currentColor"/>
<path d="M51.8076 9.50153H45.8076V15.1815H51.8076V9.50153Z" fill="currentColor"/>
<path d="M65.0088 9.50153H59.0088V15.1815H65.0088V9.50153Z" fill="currentColor"/>
</svg>
