<svg  viewBox="0 0 40 40" >
<path d="M20 2.97498C15.4838 2.97939 11.1539 4.77538 7.96049 7.9688C4.76708 11.1622 2.97109 15.4921 2.96667 20.0083C2.97109 24.5229 4.76762 28.8511 7.96151 32.0419C11.1554 35.2327 15.4854 37.025 20 37.025C24.5133 37.0206 28.8407 35.2269 32.0336 32.037C35.2266 28.8472 37.0245 24.5216 37.0333 20.0083C37.0289 15.4921 35.2329 11.1622 32.0395 7.9688C28.8461 4.77538 24.5162 2.97939 20 2.97498ZM20 34.525C16.1498 34.5206 12.4582 32.9903 9.73415 30.2693C7.01005 27.5483 5.47549 23.8585 5.46667 20.0083C5.47109 16.1552 7.0037 12.4611 9.72828 9.73655C12.4528 7.01198 16.1469 5.47939 20 5.47498C23.8531 5.47939 27.5472 7.01198 30.2718 9.73655C32.9963 12.4611 34.5289 16.1552 34.5333 20.0083C34.5245 23.8585 32.99 27.5483 30.2659 30.2693C27.5418 32.9903 23.8503 34.5206 20 34.525Z" fill="currentColor"/>
<path d="M21.0335 9.95821H18.5335V23.7915H28.8668V21.2915H21.0335V9.95821Z" fill="currentColor"/>
</svg>
