<svg viewBox="0 0 97 96">
<path d="M25.653 30.7772C24.9629 30.8649 24.3136 31.1529 23.7854 31.6056C23.2571 32.0583 22.8731 32.6558 22.6807 33.3243C22.4883 33.9929 22.496 34.7031 22.7029 35.3673C22.9097 36.0315 23.3066 36.6205 23.8445 37.0616C24.3825 37.5027 25.0379 37.7766 25.7297 37.8493C26.4216 37.922 27.1195 37.7905 27.7374 37.4709C28.3553 37.1512 28.8661 36.6576 29.2065 36.0509C29.5469 35.4443 29.7021 34.7511 29.653 34.0572C29.6132 33.5763 29.4773 33.1083 29.253 32.681C29.0288 32.2536 28.721 31.8758 28.3479 31.5698C27.9747 31.2638 27.5439 31.036 27.0809 30.8998C26.618 30.7637 26.1324 30.722 25.653 30.7772Z" fill="currentColor"/>
<path d="M59.5726 39.6572C55.78 37.4612 51.2704 36.8618 47.0359 37.9907C42.8013 39.1197 39.1886 41.8846 36.9926 45.6772C34.7966 49.4698 34.1972 53.9794 35.3262 58.214C36.4552 62.4486 39.2201 66.0612 43.0126 68.2572C46.9736 70.5929 51.4944 71.8095 56.0926 71.7772C61.6102 71.7023 67.0187 70.2297 71.8126 67.4972C72.2215 67.2486 72.563 66.9034 72.8071 66.4919C73.0513 66.0804 73.1905 65.6152 73.2126 65.1372C73.4362 60.0567 72.2877 55.0097 69.8876 50.5263C67.4875 46.0428 63.9245 42.2884 59.5726 39.6572ZM46.0126 63.0972C44.7959 62.4229 43.7255 61.5131 42.864 60.4209C42.0025 59.3287 41.3671 58.0759 40.9947 56.7355C40.6224 55.3952 40.5207 53.9941 40.6954 52.614C40.8702 51.2339 41.318 49.9024 42.0126 48.6972C42.6869 47.4804 43.5967 46.4101 44.6889 45.5486C45.7812 44.6871 47.034 44.0516 48.3743 43.6793C49.7147 43.307 51.1158 43.2052 52.4958 43.38C53.8759 43.5547 55.2074 44.0025 56.4127 44.6972C59.5816 46.6056 62.2203 49.2796 64.0865 52.4737C65.9526 55.6678 66.9863 59.2795 67.0926 62.9772C63.847 64.6891 60.2367 65.5937 56.5673 65.6146C52.898 65.6355 49.2776 64.772 46.0126 63.0972Z" fill="currentColor"/>
<path d="M92.6523 36.3373C92.2427 36.0684 91.7742 35.9025 91.2867 35.8538C90.7992 35.805 90.3071 35.8748 89.8523 36.0573C78.2523 40.7373 69.8523 34.3373 60.1723 26.9373C50.4923 19.5373 40.4523 11.8573 25.8923 14.2173C8.61234 17.2573 3.57234 35.2573 3.37234 36.0173C3.24843 36.4585 3.22727 36.9223 3.31048 37.373C3.39368 37.8237 3.57905 38.2493 3.85235 38.6173C4.12336 38.9891 4.47841 39.2916 4.88853 39.5001C5.29866 39.7086 5.75224 39.8173 6.21234 39.8173C9.81234 39.8173 12.6523 45.6173 15.9323 52.2973C22.0923 65.0173 30.4923 82.2173 53.7323 82.2173H55.0923C93.7723 81.0973 93.9724 39.3373 93.9724 38.9373C93.9878 38.428 93.8751 37.923 93.6444 37.4687C93.4138 37.0143 93.0726 36.6253 92.6523 36.3373ZM54.9323 76.0973C34.4523 76.6173 27.4923 62.4173 21.3323 49.8173C17.9723 43.0573 15.0123 37.0173 10.2523 34.8173C11.6292 31.215 13.8707 28.0066 16.7794 25.4746C19.6881 22.9426 23.1748 21.1646 26.9323 20.2973C38.9323 18.2173 47.4123 24.7773 56.5323 31.7373C65.6523 38.6973 75.1723 45.9373 87.6924 43.0173C86.6524 52.6173 81.3323 75.3373 54.9323 76.0973Z" fill="currentColor"/>
</svg>
