<svg  viewBox="0 0 40 40" >
<path d="M28.9832 11.3833H26.2332V9.08333C26.2332 8.13143 25.8563 7.21827 25.1847 6.54362C24.5132 5.86897 23.6018 5.48774 22.6499 5.48334H10.9832C10.0313 5.48774 9.11995 5.86897 8.44842 6.54362C7.77689 7.21827 7.39989 8.13143 7.3999 9.08333V25.0167C7.39989 25.9686 7.77689 26.8817 8.44842 27.5564C9.11995 28.231 10.0313 28.6123 10.9832 28.6167H13.7332V30.9333C13.7376 31.8852 14.1189 32.7966 14.7935 33.4682C15.4682 34.1397 16.3813 34.5167 17.3332 34.5167H28.9999C29.9518 34.5167 30.865 34.1397 31.5396 33.4682C32.2143 32.7966 32.5955 31.8852 32.5999 30.9333V14.9833C32.5999 14.5092 32.5062 14.0397 32.3243 13.6018C32.1423 13.164 31.8757 12.7663 31.5396 12.4318C31.2035 12.0973 30.8047 11.8325 30.366 11.6526C29.9273 11.4726 29.4574 11.3811 28.9832 11.3833ZM10.9499 26.1167C10.6611 26.1123 10.3855 25.9945 10.1828 25.7887C9.98014 25.5828 9.86654 25.3055 9.86657 25.0167V9.08333C9.86436 8.93967 9.89075 8.797 9.9442 8.66364C9.99765 8.53027 10.0771 8.40887 10.1779 8.30651C10.2787 8.20414 10.3989 8.12284 10.5314 8.06736C10.664 8.01188 10.8062 7.98332 10.9499 7.98334H22.6166C22.7603 7.98332 22.9025 8.01188 23.035 8.06736C23.1676 8.12284 23.2877 8.20414 23.3886 8.30651C23.4894 8.40887 23.5688 8.53027 23.6223 8.66364C23.6757 8.797 23.7021 8.93967 23.6999 9.08333V11.3833H17.2666C17.0228 11.3579 16.777 11.3579 16.5332 11.3833C15.8422 11.5199 15.2088 11.8627 14.7166 12.3667C14.3823 12.6982 14.1173 13.0929 13.9371 13.5278C13.7568 13.9628 13.6649 14.4292 13.6666 14.9V26.0333L10.9499 26.1167ZM30.0499 30.9333C30.0455 31.2222 29.9277 31.4977 29.7219 31.7004C29.5161 31.9031 29.2388 32.0167 28.9499 32.0167H17.2832C17.1396 32.0189 16.9969 31.9925 16.8635 31.939C16.7302 31.8856 16.6088 31.8061 16.5064 31.7053C16.404 31.6045 16.3227 31.4843 16.2673 31.3518C16.2118 31.2193 16.1832 31.077 16.1832 30.9333V27.3667V14.9833C16.1875 14.6929 16.3048 14.4156 16.5102 14.2103C16.7155 14.0049 16.9928 13.8876 17.2832 13.8833H28.9499C29.2403 13.8876 29.5176 14.0049 29.723 14.2103C29.9283 14.4156 30.0456 14.6929 30.0499 14.9833V30.9333Z" fill="currentColor"/>
</svg>
