<svg  viewBox="0 0 40 40" >
<path d="M15.9751 4.47498H7.64172C6.84742 4.47935 6.0869 4.79682 5.52524 5.35848C4.96358 5.92015 4.6461 6.68068 4.64172 7.47498V15.8083C4.64172 16.604 4.95779 17.367 5.5204 17.9296C6.08301 18.4922 6.84607 18.8083 7.64172 18.8083H15.9751C16.3696 18.8105 16.7607 18.7344 17.1257 18.5844C17.4907 18.4345 17.8223 18.2136 18.1013 17.9346C18.3803 17.6555 18.6012 17.324 18.7512 16.959C18.9012 16.594 18.9773 16.2029 18.9751 15.8083V7.47498C18.9751 6.67933 18.659 5.91626 18.0964 5.35365C17.5338 4.79104 16.7707 4.47498 15.9751 4.47498ZM16.4751 15.8917C16.4774 15.9579 16.466 16.024 16.4417 16.0857C16.4174 16.1474 16.3807 16.2035 16.3338 16.2504C16.2869 16.2973 16.2308 16.334 16.1691 16.3583C16.1074 16.3826 16.0413 16.394 15.9751 16.3916H7.64172C7.50912 16.3916 7.38194 16.339 7.28817 16.2452C7.1944 16.1514 7.14172 16.0243 7.14172 15.8917V7.55832C7.14589 7.42703 7.19991 7.30226 7.29279 7.20938C7.38567 7.1165 7.51044 7.06248 7.64172 7.05831H15.9751C16.1077 7.05831 16.2348 7.11098 16.3286 7.20475C16.4224 7.29852 16.4751 7.42571 16.4751 7.55832V15.8917Z" fill="currentColor"/>
<path d="M15.9751 21.1083H7.64172C6.84607 21.1083 6.08301 21.4244 5.5204 21.987C4.95779 22.5496 4.64172 23.3127 4.64172 24.1083V32.525C4.6461 33.3193 4.96358 34.0798 5.52524 34.6415C6.0869 35.2031 6.84742 35.5206 7.64172 35.525H15.9751C16.7707 35.525 17.5338 35.2089 18.0964 34.6463C18.659 34.0837 18.9751 33.3207 18.9751 32.525V24.1083C18.9773 23.7137 18.9012 23.3226 18.7512 22.9577C18.6012 22.5927 18.3803 22.2611 18.1013 21.9821C17.8223 21.7031 17.4907 21.4822 17.1257 21.3322C16.7607 21.1822 16.3696 21.1061 15.9751 21.1083ZM16.4751 32.525C16.4751 32.6576 16.4224 32.7848 16.3286 32.8785C16.2348 32.9723 16.1077 33.025 15.9751 33.025H7.64172C7.51044 33.0208 7.38567 32.9668 7.29279 32.8739C7.19991 32.781 7.14589 32.6563 7.14172 32.525V24.1083C7.14172 23.9757 7.1944 23.8486 7.28817 23.7548C7.38194 23.661 7.50912 23.6083 7.64172 23.6083H15.9751C16.0413 23.606 16.1074 23.6173 16.1691 23.6416C16.2308 23.6659 16.2869 23.7027 16.3338 23.7496C16.3807 23.7965 16.4174 23.8525 16.4417 23.9143C16.466 23.976 16.4774 24.042 16.4751 24.1083V32.525Z" fill="currentColor"/>
<path d="M32.3581 4.47498H23.9414C23.1458 4.47498 22.3827 4.79104 21.8201 5.35365C21.2575 5.91626 20.9414 6.67933 20.9414 7.47498V15.8083C20.9392 16.2029 21.0153 16.594 21.1653 16.959C21.3153 17.324 21.5361 17.6555 21.8152 17.9346C22.0942 18.2136 22.4258 18.4345 22.7908 18.5844C23.1557 18.7344 23.5468 18.8105 23.9414 18.8083H32.3581C33.1537 18.8083 33.9168 18.4922 34.4794 17.9296C35.042 17.367 35.3581 16.604 35.3581 15.8083V7.47498C35.3537 6.68068 35.0362 5.92015 34.4746 5.35848C33.9129 4.79682 33.1524 4.47935 32.3581 4.47498ZM32.8581 15.8917C32.8581 16.0243 32.8054 16.1514 32.7116 16.2452C32.6179 16.339 32.4907 16.3916 32.3581 16.3916H23.9414C23.8751 16.394 23.8091 16.3826 23.7473 16.3583C23.6856 16.334 23.6296 16.2973 23.5827 16.2504C23.5358 16.2035 23.499 16.1474 23.4747 16.0857C23.4504 16.024 23.4391 15.9579 23.4414 15.8917V7.55832C23.4414 7.42571 23.4941 7.29852 23.5879 7.20475C23.6816 7.11098 23.8088 7.05831 23.9414 7.05831H32.3581C32.4894 7.06248 32.6141 7.1165 32.707 7.20938C32.7999 7.30226 32.8539 7.42703 32.8581 7.55832V15.8917Z" fill="currentColor"/>
<path d="M32.3581 21.1083H23.9414C23.5468 21.1061 23.1557 21.1822 22.7908 21.3322C22.4258 21.4822 22.0942 21.7031 21.8152 21.9821C21.5361 22.2611 21.3153 22.5927 21.1653 22.9577C21.0153 23.3226 20.9392 23.7137 20.9414 24.1083V32.525C20.9414 33.3207 21.2575 34.0837 21.8201 34.6463C22.3827 35.2089 23.1458 35.525 23.9414 35.525H32.3581C33.1524 35.5206 33.9129 35.2031 34.4746 34.6415C35.0362 34.0798 35.3537 33.3193 35.3581 32.525V24.1083C35.3581 23.3127 35.042 22.5496 34.4794 21.987C33.9168 21.4244 33.1537 21.1083 32.3581 21.1083ZM32.8581 32.525C32.8539 32.6563 32.7999 32.781 32.707 32.8739C32.6141 32.9668 32.4894 33.0208 32.3581 33.025H23.9414C23.8088 33.025 23.6816 32.9723 23.5879 32.8785C23.4941 32.7848 23.4414 32.6576 23.4414 32.525V24.1083C23.4391 24.042 23.4504 23.976 23.4747 23.9143C23.499 23.8525 23.5358 23.7965 23.5827 23.7496C23.6296 23.7027 23.6856 23.6659 23.7473 23.6416C23.8091 23.6173 23.8751 23.606 23.9414 23.6083H32.3581C32.4907 23.6083 32.6179 23.661 32.7116 23.7548C32.8054 23.8486 32.8581 23.9757 32.8581 24.1083V32.525Z" fill="currentColor"/>
</svg>
