<svg viewBox="0 0 97 97">
<path d="M75.1221 16.8215V10.8215H57.5221C56.8339 10.826 56.1682 11.0669 55.6366 11.5038C55.105 11.9408 54.7397 12.5473 54.6021 13.2215L49.8021 36.5815H25.4821C25.0554 36.5807 24.6337 36.6734 24.2467 36.8531C23.8597 37.0327 23.5168 37.2951 23.2421 37.6215C22.9584 37.9474 22.7475 38.3301 22.6233 38.7439C22.4992 39.1577 22.4647 39.5933 22.5221 40.0215L28.7621 84.0215C28.8586 84.7392 29.2115 85.3977 29.7555 85.8755C30.2995 86.3534 30.998 86.6183 31.7221 86.6215H61.8021C62.5262 86.6183 63.2247 86.3534 63.7687 85.8755C64.3127 85.3977 64.6656 84.7392 64.7621 84.0215L71.0021 40.0215C71.0595 39.5933 71.025 39.1577 70.9009 38.7439C70.7767 38.3301 70.5658 37.9474 70.2821 37.6215C70.0031 37.2898 69.6537 37.0244 69.2593 36.8445C68.865 36.6646 68.4355 36.5748 68.0021 36.5815H56.0021L60.0021 16.8215H75.1221ZM59.1221 80.8215H34.3621L30.3621 53.6615H62.8421L59.1221 80.8215ZM63.8421 47.5815H29.6821L28.9621 42.5415H64.5621L63.8421 47.5815Z" fill="currentColor"/>
</svg>
