<svg viewBox="0 0 97 97">
<path d="M37.7181 42.5041C35.345 42.6559 33.126 43.7356 31.5385 45.5111C29.951 47.2865 29.1218 49.6159 29.2291 51.9982C29.1227 54.3998 29.9679 56.7461 31.5804 58.5248C33.1928 60.3036 35.4415 61.3704 37.8354 61.4924C40.2363 61.3805 42.4949 60.318 44.1157 58.5381C45.7365 56.7582 46.5871 54.4063 46.4809 51.9982C46.5333 50.7964 46.3476 49.596 45.9345 48.4665C45.5214 47.3371 44.8891 46.3009 44.0742 45.4181C43.2594 44.5352 42.2781 43.8231 41.1871 43.3229C40.0961 42.8227 38.917 42.5444 37.7181 42.5041ZM40.965 51.9982C41.036 52.9782 40.7378 53.9491 40.1293 54.7192C39.5209 55.4892 38.6464 56.0022 37.6789 56.1568C36.7186 55.9935 35.8536 55.4767 35.2531 54.7076C34.6526 53.9385 34.3598 52.9724 34.432 51.9982C34.4185 51.0636 34.7381 50.1548 35.3334 49.4356C35.9287 48.7163 36.7604 48.2339 37.6789 48.0751C38.6046 48.2254 39.4456 48.7043 40.0488 49.4244C40.6519 50.1445 40.9771 51.0579 40.965 51.9982Z" fill="currentColor"/>
<path d="M84.8574 40.7387C83.8842 37.4824 82.7217 34.286 81.3758 31.1661C80.538 28.9769 79.2748 26.9765 77.6594 25.2813C72.2389 21.5116 65.9249 19.2385 59.3513 18.6903H58.7254C58.2736 18.7486 57.8448 18.9241 57.4813 19.1992C57.1177 19.4744 56.8319 19.8399 56.6521 20.2596C56.3014 21.0287 56.0263 21.8302 55.8305 22.6527C53.5003 22.2835 51.1476 22.0738 48.789 22.025C46.4582 22.0513 44.1319 22.2348 41.8257 22.5743C41.6428 21.7606 41.3671 20.9708 41.0041 20.2203C40.7948 19.699 40.4221 19.2602 39.9422 18.97C39.4624 18.6799 38.9014 18.5541 38.344 18.6118C31.7724 19.1102 25.4461 21.3287 19.9968 25.0459H19.723C18.2161 26.7425 17.0238 28.6956 16.2022 30.813C14.8431 34.0481 13.6805 37.3627 12.7205 40.7387C10.2535 48.8167 8.93651 57.2036 8.80853 65.651C8.80928 66.131 8.93035 66.6032 9.16061 67.0241C11.9004 71.3323 16.0496 74.5502 20.8966 76.1259C24.2544 77.4947 27.805 78.3287 31.4198 78.5975C31.8575 78.6068 32.2913 78.512 32.6856 78.3211C33.0799 78.1302 33.4236 77.8485 33.6887 77.499L37.6007 72.2812C45.1052 73.8901 52.864 73.8901 60.3684 72.2812L64.2804 77.499C64.5333 77.8424 64.8637 78.1209 65.2444 78.3118C65.6251 78.5027 66.0455 78.6006 66.4711 78.5975C69.9971 78.2757 73.4534 77.4157 76.7205 76.0475C81.5674 74.4718 85.7166 71.2539 88.4565 66.9456C88.682 66.537 88.8029 66.0787 88.8085 65.6117C88.6642 57.1757 87.3341 48.8021 84.8574 40.7387ZM68.3489 69.5742C70.7891 68.5661 73.09 67.2476 75.1948 65.651C75.46 65.3981 75.6711 65.0938 75.8153 64.7566C75.9596 64.4194 76.034 64.0563 76.034 63.6894C76.034 63.3224 75.9596 62.9593 75.8153 62.6221C75.6711 62.2849 75.46 61.9806 75.1948 61.7278C74.9624 61.4411 74.673 61.206 74.3452 61.0374C74.0174 60.8687 73.6582 60.7702 73.2904 60.7481C72.9226 60.726 72.5543 60.7807 72.2087 60.9088C71.8631 61.0369 71.5479 61.2357 71.2829 61.4924C69.6313 62.8175 67.8005 63.9007 65.8452 64.7094C64.2739 65.3958 62.6521 65.9598 60.9944 66.3964C60.4255 66.3941 59.8683 66.5576 59.3904 66.8672C55.9165 67.7026 52.361 68.1499 48.789 68.2011C45.073 68.2194 41.3685 67.7847 37.7572 66.9064C37.2855 66.6677 36.7589 66.5593 36.2315 66.5925C34.5791 66.1072 32.9589 65.5175 31.3807 64.8271C29.4438 64.0222 27.6272 62.9528 25.9821 61.6493C25.6566 61.2967 25.2434 61.0374 24.7849 60.8979C24.3264 60.7584 23.8391 60.7439 23.3732 60.8557C22.9072 60.9675 22.4793 61.2017 22.1334 61.5343C21.7876 61.8668 21.5362 62.2856 21.4051 62.7478C21.2635 63.2458 21.2695 63.7743 21.4223 64.2689C21.5752 64.7635 21.8682 65.2028 22.2657 65.5333C24.3454 67.1466 26.6357 68.4666 29.0726 69.4565L31.8501 70.555L30.0897 72.9089C27.5461 72.5392 25.0525 71.8812 22.6569 70.9473C19.202 69.7715 16.1773 67.5853 13.9723 64.6702C14.2739 57.0101 15.5894 49.4242 17.8843 42.1118C18.7759 39.0947 19.8471 36.1339 21.0922 33.2454C21.6981 31.8558 22.4592 30.5396 23.3611 29.3222C24.9986 28.08 26.8029 27.0762 28.7205 26.3405C27.5476 26.8957 26.4109 27.5247 25.3171 28.2237C24.8388 28.4275 24.4294 28.7654 24.1379 29.1969C23.8465 29.6283 23.6854 30.135 23.6741 30.656C23.6728 31.185 23.8283 31.7023 24.1208 32.1424C24.4134 32.5825 24.8298 32.9254 25.3171 33.1277C25.7386 33.3397 26.2107 33.4299 26.6805 33.3884C27.1502 33.3468 27.5992 33.175 27.9772 32.8923C34.3538 29.3609 41.5052 27.4736 48.789 27.3998C56.0334 27.4897 63.143 29.3767 69.4834 32.8923C69.8783 33.2294 70.363 33.4434 70.8777 33.508C71.3923 33.5725 71.9146 33.4847 72.3802 33.2554C72.8457 33.0261 73.2343 32.6653 73.4981 32.2175C73.7619 31.7696 73.8893 31.2541 73.8648 30.7345C73.872 30.2144 73.7228 29.7042 73.4367 29.2704C73.1506 28.8365 72.7409 28.4991 72.2609 28.3021C71.0914 27.5706 69.8762 26.9153 68.6227 26.3405C70.5791 27.0443 72.4137 28.0503 74.0604 29.3222C74.9811 30.5342 75.7559 31.851 76.3684 33.2454C77.6135 36.1339 78.6847 39.0947 79.5763 42.1118C81.8712 49.4242 83.1867 57.0101 83.4882 64.6702C81.2833 67.5853 78.2586 69.7715 74.8036 70.9473C72.4081 71.8812 69.9145 72.5392 67.3709 72.9089L65.6105 70.555C66.5494 70.3588 67.4882 69.9665 68.3489 69.5742Z" fill="currentColor"/>
<path d="M59.8599 42.5041C57.459 42.616 55.2004 43.6785 53.5796 45.4584C51.9588 47.2383 51.1082 49.5902 51.2144 51.9982C51.1082 54.4063 51.9588 56.7582 53.5796 58.5381C55.2004 60.318 57.459 61.3805 59.8599 61.4924C62.233 61.3406 64.4519 60.2609 66.0394 58.4854C67.6269 56.7099 68.4562 54.3806 68.3489 51.9982C68.4562 49.6159 67.6269 47.2865 66.0394 45.5111C64.4519 43.7356 62.233 42.6559 59.8599 42.5041ZM63.1068 51.9982C63.179 52.9724 62.8862 53.9385 62.2857 54.7076C61.6852 55.4767 60.8202 55.9935 59.8599 56.1568C58.8996 55.9935 58.0346 55.4767 57.4341 54.7076C56.8336 53.9385 56.5408 52.9724 56.6129 51.9982C56.6009 51.0579 56.926 50.1445 57.5292 49.4244C58.1323 48.7043 58.9733 48.2254 59.899 48.0751C60.8103 48.2422 61.6329 48.7282 62.2204 49.4466C62.8078 50.1651 63.1219 51.0693 63.1068 51.9982Z" fill="currentColor"/>
</svg>
