<svg viewBox="0 0 96 96">
<path d="M24.3245 47.3061L46.8262 61.2624C47.2507 61.5318 47.7458 61.6681 48.2481 61.654C48.7492 61.6581 49.2415 61.5225 49.67 61.2624L71.6741 47.3061C72.279 46.9109 72.7112 46.2999 72.8827 45.5972C72.9526 45.2555 72.954 44.9033 72.8868 44.5611C72.8197 44.2188 72.6854 43.8933 72.4917 43.6035L50.4876 9.24692C50.2488 8.86758 49.9185 8.55458 49.5271 8.3368C49.1357 8.11902 48.6959 8.00348 48.2481 8.00083C47.8018 7.98946 47.3604 8.0952 46.9675 8.30755C46.5746 8.5199 46.2441 8.83146 46.0086 9.21132L23.5069 43.5679C23.3107 43.8631 23.1778 44.1959 23.1166 44.5452C23.0554 44.8945 23.0673 45.2527 23.1514 45.5972C23.2213 45.9467 23.3614 46.2784 23.563 46.5721C23.7646 46.8659 24.0237 47.1156 24.3245 47.3061ZM45.6531 54.213L31.5407 45.4904L45.7598 39.616L45.6531 54.213ZM50.9853 39.616L64.6356 45.4904L50.9853 54.1418V39.616ZM50.9853 33.8127V19.7853L63.3915 39.1531L50.9853 33.8127ZM45.6531 33.8127L32.7493 39.1887L45.582 19.6073L45.6531 33.8127Z" fill="currentColor"/>
<path d="M72.208 52.1836C71.7794 51.7353 71.21 51.4481 70.5951 51.3703C69.9803 51.2925 69.3574 51.4288 68.831 51.7564L48 65.143L27.169 51.7564C26.6426 51.4288 26.0197 51.2925 25.4049 51.3703C24.79 51.4481 24.2206 51.7353 23.792 52.1836C23.3245 52.6463 23.0442 53.2657 23.0048 53.9228C22.9654 54.5799 23.1698 55.2285 23.5787 55.7439L45.8316 86.8962C46.0776 87.2414 46.4033 87.522 46.7808 87.7141C47.1583 87.9063 47.5765 88.0043 48 87.9999C48.4234 88.0043 48.8417 87.9063 49.2192 87.7141C49.5967 87.522 49.9224 87.2414 50.1684 86.8962L72.4213 55.7439C72.8302 55.2285 73.0346 54.5799 72.9952 53.9228C72.9558 53.2657 72.6755 52.6463 72.208 52.1836ZM45.3695 69.7713V76.8918L35.9849 63.7545L45.3695 69.7713ZM50.7016 76.8918V69.7713L59.9796 63.7901L50.7016 76.8918Z" fill="currentColor"/>
</svg>
