<svg  viewBox="0 0 40 40" >
<path d="M28.3658 29.5084C28.3658 29.7884 28.2557 30.0572 28.0593 30.2568C27.8628 30.4563 27.5958 30.5707 27.3158 30.575H10.6491C10.5091 30.575 10.3703 30.5474 10.2409 30.4938C10.1115 30.4402 9.99393 30.3617 9.89488 30.2626C9.79583 30.1636 9.71726 30.046 9.66366 29.9166C9.61005 29.7871 9.58246 29.6484 9.58246 29.5084V12.8417C9.57799 12.701 9.60185 12.5609 9.65261 12.4296C9.70338 12.2984 9.78001 12.1786 9.87796 12.0776C9.97591 11.9765 10.0932 11.8962 10.2228 11.8413C10.3524 11.7865 10.4917 11.7583 10.6325 11.7584H22.0991V9.27502H10.6325C9.6894 9.27501 8.78473 9.6485 8.11632 10.3138C7.44792 10.9791 7.0702 11.882 7.0658 12.825V29.4917C7.0658 30.4376 7.44157 31.3448 8.11045 32.0137C8.77933 32.6826 9.68652 33.0584 10.6325 33.0584H27.2991C28.2422 33.054 29.1451 32.6762 29.8104 32.0078C30.4757 31.3394 30.8491 30.4347 30.8491 29.4917V17.275H28.3491L28.3658 29.5084Z" fill="currentColor"/>
<path d="M31.5823 6.94165H26.4323C26.0566 6.94165 25.6962 7.09091 25.4306 7.35658C25.1649 7.62226 25.0156 7.98259 25.0156 8.35832C25.0156 8.73404 25.1649 9.09438 25.4306 9.36005C25.6962 9.62573 26.0566 9.77498 26.4323 9.77498H28.3323L20.4656 17.6416C20.2315 17.876 20.1001 18.1937 20.1001 18.525C20.1001 18.8562 20.2315 19.1739 20.4656 19.4083C20.7037 19.6369 21.019 19.7678 21.349 19.775C21.6804 19.7747 21.9981 19.6428 22.2323 19.4083L30.099 11.5416V13.425C30.099 13.8007 30.2482 14.161 30.5139 14.4267C30.7796 14.6924 31.1399 14.8417 31.5156 14.8417C31.8913 14.8417 32.2517 14.6924 32.5174 14.4267C32.783 14.161 32.9323 13.8007 32.9323 13.425V8.42498C32.9412 8.2389 32.9134 8.05287 32.8504 7.87755C32.7874 7.70223 32.6904 7.54107 32.565 7.40328C32.4396 7.2655 32.2882 7.15381 32.1196 7.07459C31.951 6.99538 31.7684 6.9502 31.5823 6.94165Z" fill="currentColor"/>
</svg>
