<svg  viewBox="0 0 40 40" >
<path d="M35.6297 19.2167C33.647 16.844 31.2946 14.8067 28.663 13.1833L32.313 9.51666L30.4964 7.75L26.2797 11.9667C24.3099 11.0723 22.1762 10.5957 20.013 10.5667C11.4297 10.5667 4.6797 18.9 4.39637 19.2167C4.21782 19.4387 4.12048 19.7151 4.12048 20C4.12048 20.2849 4.21782 20.5613 4.39637 20.7833C6.39768 23.163 8.77323 25.2008 11.4297 26.8167L7.76304 30.4833L9.5297 32.25L13.763 27.9667C15.7271 28.8606 17.8553 29.3373 20.013 29.3667C28.613 29.3667 35.3464 21.0333 35.6297 20.7167C35.792 20.5003 35.8797 20.2371 35.8797 19.9667C35.8797 19.6962 35.792 19.433 35.6297 19.2167ZM6.99637 20C8.8297 18.0333 14.0297 13.0667 19.9797 13.0667C21.468 13.0808 22.9416 13.3631 24.3297 13.9L23.213 15C22.2511 14.3725 21.1282 14.0367 19.9797 14.0333C18.3986 14.0377 16.8835 14.6678 15.7655 15.7858C14.6475 16.9038 14.0174 18.4189 14.013 20C14.0164 21.1485 14.3522 22.2714 14.9797 23.2333L13.313 24.9C10.9756 23.5898 8.84662 21.9383 6.99637 20ZM19.9797 26.9333C18.4986 26.9169 17.0319 26.6405 15.6464 26.1167L16.7464 25C17.7095 25.6249 18.8316 25.9604 19.9797 25.9667C21.5608 25.9623 23.0759 25.3322 24.1939 24.2142C25.3119 23.0962 25.942 21.5811 25.9464 20C25.943 18.8515 25.6072 17.7286 24.9797 16.7667L26.6464 15.1C28.9605 16.4485 31.0613 18.1336 32.8797 20.1C31.1797 21.9667 25.9797 26.9333 20.013 26.9333H19.9797Z" fill="currentColor"/>
</svg>
