<svg  viewBox="0 0 40 40" >
<path d="M35.625 19.2167C35.3417 18.8667 28.5917 10.5667 19.9917 10.5667C11.3917 10.5667 4.65835 18.9 4.37501 19.2167C4.19646 19.4387 4.09912 19.7151 4.09912 20C4.09912 20.2849 4.19646 20.5613 4.37501 20.7833C4.65835 21.1333 11.4083 29.4333 19.9917 29.4333C28.575 29.4333 35.3417 21.1 35.625 20.7833C35.8036 20.5613 35.9009 20.2849 35.9009 20C35.9009 19.7151 35.8036 19.4387 35.625 19.2167ZM19.9917 26.9333C14.0417 26.9333 8.84168 21.9333 7.02501 20C8.84168 18.0333 14.0417 13.0667 19.9917 13.0667C25.9417 13.0667 31.1583 18.0667 32.975 20C31.1583 21.9667 25.9583 26.9333 19.9917 26.9333Z" fill="currentColor"/>
<path d="M19.9917 14.0333C18.4106 14.0377 16.8955 14.6677 15.7775 15.7858C14.6595 16.9038 14.0295 18.4189 14.0251 20C14.0295 21.5811 14.6595 23.0962 15.7775 24.2142C16.8955 25.3322 18.4106 25.9622 19.9917 25.9666C21.5742 25.9666 23.0918 25.338 24.2108 24.219C25.3298 23.1001 25.9584 21.5824 25.9584 20C25.9584 18.4175 25.3298 16.8999 24.2108 15.7809C23.0918 14.6619 21.5742 14.0333 19.9917 14.0333Z" fill="currentColor"/>
</svg>
