<svg  viewBox="0 0 40 40" >
<path d="M28.5751 6.10823C30.9715 7.33743 32.9751 9.21404 34.3584 11.5249C35.7478 13.9052 36.4622 16.619 36.4251 19.3749C36.5646 21.8571 35.9424 24.3227 34.6418 26.4416C34.1116 27.2505 33.3826 27.9097 32.5246 28.3562C31.6667 28.8027 30.7085 29.0214 29.7418 28.9916C28.7494 29.0307 27.7698 28.7566 26.9418 28.2082C26.1385 27.6854 25.5477 26.8937 25.2751 25.9749C24.5785 26.9705 23.6381 27.7707 22.5438 28.2989C21.4495 28.8271 20.238 29.0656 19.0251 28.9916C17.5228 29.0123 16.0428 28.6264 14.7418 27.8749C13.4794 27.1157 12.448 26.0266 11.7584 24.7249C11.0224 23.3108 10.65 21.7356 10.6751 20.1416C10.6499 18.5635 11.0225 17.0044 11.7584 15.6082C12.4441 14.3081 13.4768 13.2235 14.7418 12.4749C16.0411 11.7175 17.5212 11.3259 19.0251 11.3416C20.1676 11.3256 21.3014 11.541 22.3584 11.9749C23.3182 12.3833 24.1688 13.0113 24.8418 13.8082V11.5916H28.6918V23.4082C28.6328 24.0492 28.8107 24.6895 29.1918 25.2082C29.355 25.3894 29.556 25.5326 29.7807 25.6276C30.0053 25.7227 30.248 25.7673 30.4918 25.7582C30.9838 25.742 31.4586 25.5728 31.85 25.274C32.2413 24.9753 32.5297 24.5619 32.6751 24.0916C33.2412 22.6039 33.491 21.0145 33.4084 19.4249C33.4634 17.1459 32.8866 14.8962 31.7418 12.9249C30.6232 11.0512 28.9925 9.53616 27.0418 8.55821C24.8868 7.47914 22.5013 6.94143 20.0918 6.99156C17.6501 6.94948 15.2371 7.52264 13.0751 8.65823C11.0936 9.70657 9.45605 11.3036 8.35843 13.2582C7.22992 15.2966 6.65528 17.5952 6.69176 19.9249C6.65035 22.2922 7.22466 24.6297 8.35843 26.7082C9.44259 28.6559 11.062 30.2522 13.0251 31.3082C15.1631 32.4438 17.5546 33.0173 19.9751 32.9749C21.1354 32.9691 22.2918 32.8407 23.4251 32.5916C24.5819 32.3562 25.7026 31.9695 26.7584 31.4416L27.6918 34.2249C26.5594 34.7943 25.3534 35.2037 24.1084 35.4415C22.7648 35.7178 21.3968 35.8574 20.0251 35.8582C17.0305 35.92 14.0698 35.2142 11.4251 33.8082C8.99548 32.5049 6.98459 30.5402 5.62509 28.1415C4.21861 25.6409 3.50518 22.8101 3.55844 19.9415C3.50855 17.1029 4.22849 14.3038 5.64178 11.8415C7.02089 9.44496 9.04868 7.48649 11.4918 6.19154C14.1611 4.78694 17.1427 4.08166 20.1584 4.14155C23.0823 4.10176 25.9716 4.7769 28.5751 6.10823ZM23.5751 24.1416C24.0727 23.6061 24.4575 22.9761 24.7066 22.2889C24.9557 21.6017 25.064 20.8715 25.0251 20.1416C25.0623 19.4169 24.9531 18.6921 24.704 18.0106C24.4548 17.3291 24.0709 16.7047 23.5751 16.1749C23.0902 15.6931 22.5117 15.3159 21.8753 15.0665C21.239 14.8171 20.5582 14.7009 19.8751 14.7249C19.188 14.7007 18.5034 14.8185 17.8639 15.0708C17.2244 15.3232 16.6438 15.7047 16.1584 16.1915C15.6722 16.7231 15.2966 17.3462 15.0534 18.0243C14.8102 18.7024 14.7042 19.4221 14.7418 20.1416C14.7035 20.8661 14.8089 21.5911 15.0521 22.2748C15.2952 22.9584 15.6712 23.5872 16.1584 24.1249C16.641 24.6178 17.2203 25.0054 17.8599 25.2636C18.4995 25.5217 19.1856 25.6447 19.8751 25.6249C20.5505 25.6434 21.2224 25.5211 21.8479 25.2657C22.4734 25.0103 23.0389 24.6275 23.5084 24.1416H23.5751Z" fill="currentColor"/>
</svg>
