<svg  viewBox="0 0 40 40" >
<path d="M9.55004 16.1666C8.78206 16.1703 8.0339 16.4107 7.40756 16.8551C6.78122 17.2996 6.30717 17.9263 6.05004 18.65H3.33337V21.15H6.05004C6.30507 21.875 6.7786 22.5031 7.4054 22.9478C8.03221 23.3926 8.78148 23.632 9.55004 23.6333C10.3186 23.632 11.0679 23.3926 11.6947 22.9478C12.3215 22.5031 12.795 21.875 13.05 21.15H35.6167V18.65H13.05C12.7929 17.9263 12.3189 17.2996 11.6925 16.8551C11.0662 16.4107 10.318 16.1703 9.55004 16.1666ZM9.55004 21.1666C9.38808 21.1666 9.22769 21.1347 9.07806 21.0728C8.92843 21.0108 8.79246 20.9199 8.67794 20.8054C8.56341 20.6909 8.47256 20.5549 8.41058 20.4053C8.3486 20.2556 8.3167 20.0953 8.3167 19.9333C8.3167 19.7713 8.3486 19.611 8.41058 19.4613C8.47256 19.3117 8.56341 19.1757 8.67794 19.0612C8.79246 18.9467 8.92843 18.8558 9.07806 18.7938C9.22769 18.7319 9.38808 18.7 9.55004 18.7C9.87714 18.7 10.1908 18.8299 10.4221 19.0612C10.6534 19.2925 10.7834 19.6062 10.7834 19.9333C10.7747 20.2546 10.6409 20.5598 10.4106 20.7839C10.1802 21.0081 9.87145 21.1334 9.55004 21.1333V21.1666Z" fill="currentColor"/>
<path d="M20.7167 27.35C19.9502 27.35 19.2024 27.5871 18.5758 28.0287C17.9492 28.4703 17.4745 29.0948 17.2167 29.8167H3.33337V32.3167H17.2167C17.4717 33.0417 17.9453 33.6698 18.5721 34.1145C19.1989 34.5593 19.9481 34.7988 20.7167 34.8C21.4853 34.7988 22.2345 34.5593 22.8613 34.1145C23.4881 33.6698 23.9617 33.0417 24.2167 32.3167H35.6167V29.8167H24.2167C23.9589 29.0948 23.4842 28.4703 22.8576 28.0287C22.231 27.5871 21.4832 27.35 20.7167 27.35ZM20.7167 32.35C20.5547 32.35 20.3944 32.3181 20.2447 32.2561C20.0951 32.1941 19.9591 32.1033 19.8446 31.9888C19.7301 31.8742 19.6392 31.7383 19.5773 31.5886C19.5153 31.439 19.4834 31.2786 19.4834 31.1167C19.4878 30.7925 19.6196 30.483 19.8504 30.2553C20.0813 30.0276 20.3925 29.9 20.7167 29.9C21.0409 29.9 21.3521 30.0276 21.583 30.2553C21.8138 30.483 21.9457 30.7925 21.95 31.1167C21.9371 31.435 21.8015 31.736 21.5716 31.9566C21.3417 32.1772 21.0353 32.3003 20.7167 32.3V32.35Z" fill="currentColor"/>
<path d="M31.6667 7.48333C31.4136 6.76365 30.9451 6.1393 30.325 5.69503C29.7048 5.25076 28.9629 5.0081 28.2 5C27.4315 5.00125 26.6822 5.24074 26.0554 5.68547C25.4286 6.13021 24.9551 6.75832 24.7 7.48333H3.33337V9.98333H24.6667C24.9257 10.7124 25.4049 11.3429 26.0378 11.7878C26.6708 12.2326 27.4264 12.4699 28.2 12.4667C28.968 12.463 29.7162 12.2226 30.3425 11.7782C30.9689 11.3338 31.4429 10.707 31.7 9.98333H35.65V7.48333H31.6667ZM28.2 9.96667C27.8729 9.96667 27.5592 9.83673 27.3279 9.60543C27.0966 9.37414 26.9667 9.06043 26.9667 8.73333C26.9667 8.40623 27.0966 8.09253 27.3279 7.86124C27.5592 7.62994 27.8729 7.5 28.2 7.5C28.362 7.5 28.5224 7.5319 28.672 7.59388C28.8216 7.65586 28.9576 7.74671 29.0721 7.86124C29.1867 7.97576 29.2775 8.11172 29.3395 8.26136C29.4015 8.41099 29.4334 8.57137 29.4334 8.73333C29.4334 8.8953 29.4015 9.05567 29.3395 9.20531C29.2775 9.35494 29.1867 9.49091 29.0721 9.60543C28.9576 9.71996 28.8216 9.81081 28.672 9.87279C28.5224 9.93477 28.362 9.96667 28.2 9.96667Z" fill="currentColor"/>
</svg>
