<svg viewBox="0 0 40 40">
<path fill-rule="evenodd" clip-rule="evenodd" d="M24.1734 6C25.5713 6 26.9121 6.54856 27.9006 7.52498C28.8891 8.50141 29.4444 9.82573 29.4444 11.2066C29.4444 12.5875 28.8891 13.9118 27.9006 14.8882C27.6246 15.1608 27.3213 15.4 26.9968 15.6033C27.3213 15.8066 27.6246 16.0458 27.9006 16.3184C28.8891 17.2948 29.4444 18.6191 29.4444 20C29.4444 21.3809 28.8891 22.7052 27.9006 23.6816C26.9121 24.6581 25.5713 25.2066 24.1734 25.2066C22.8202 25.2066 21.5205 24.6926 20.5422 23.7741V28.7934C20.5422 30.1743 19.9868 31.4986 18.9983 32.475C18.0098 33.4514 16.669 34 15.2711 34C13.8731 34 12.5324 33.4514 11.5439 32.475C10.5554 31.4986 10 30.1743 10 28.7934C10 27.4125 10.5554 26.0882 11.5439 25.1118C11.8198 24.8392 12.1232 24.6 12.4476 24.3967C12.1232 24.1934 11.8198 23.9542 11.5439 23.6816C10.5554 22.7052 10 21.3809 10 20C10 18.6191 10.5554 17.2948 11.5439 16.3184C11.8198 16.0458 12.1232 15.8066 12.4476 15.6033C12.1232 15.4 11.8198 15.1608 11.5439 14.8882C10.5554 13.9118 10 12.5875 10 11.2066C10 9.82573 10.5554 8.50141 11.5439 7.52498C12.5324 6.54856 13.8731 6 15.2711 6H24.1734ZM21.6057 22.5362C20.9247 21.8636 20.5422 20.9513 20.5422 20C20.5422 19.0487 20.9247 18.1364 21.6057 17.4638C22.2867 16.7911 23.2103 16.4132 24.1734 16.4132C25.1364 16.4132 26.06 16.7911 26.741 17.4638C27.422 18.1364 27.8046 19.0487 27.8046 20C27.8046 20.9513 27.422 21.8636 26.741 22.5362C26.06 23.2089 25.1364 23.5868 24.1734 23.5868C23.2103 23.5868 22.2867 23.2089 21.6057 22.5362ZM15.2711 25.2066H18.9023V28.7934C18.9023 29.7447 18.5197 30.657 17.8387 31.3296C17.1577 32.0023 16.2341 32.3802 15.2711 32.3802C14.308 32.3802 13.3845 32.0023 12.7034 31.3296C12.0225 30.657 11.6399 29.7447 11.6399 28.7934C11.6399 27.8421 12.0225 26.9298 12.7034 26.2572C13.3845 25.5845 14.308 25.2066 15.2711 25.2066ZM18.9023 14.7934H15.2711C14.308 14.7934 13.3845 14.4155 12.7034 13.7428C12.0225 13.0702 11.6399 12.1579 11.6399 11.2066C11.6399 10.2553 12.0225 9.34303 12.7034 8.67038C13.3845 7.99773 14.308 7.61983 15.2711 7.61983H18.9023V14.7934ZM12.7034 17.4638C13.3845 16.7911 14.308 16.4132 15.2711 16.4132H18.9023V23.5868H15.2711C14.308 23.5868 13.3845 23.2089 12.7034 22.5362C12.0225 21.8636 11.6399 20.9513 11.6399 20C11.6399 19.0487 12.0225 18.1364 12.7034 17.4638ZM20.5422 14.7934H24.1734C25.1364 14.7934 26.06 14.4155 26.741 13.7428C27.422 13.0702 27.8046 12.1579 27.8046 11.2066C27.8046 10.2553 27.422 9.34303 26.741 8.67038C26.06 7.99773 25.1364 7.61983 24.1734 7.61983H20.5422V14.7934Z" fill="currentColor"/>
</svg>
