<svg viewBox="0 0 41 40">
<path d="M14.9196 37.4945H14.4696C10.8693 36.3216 7.73316 34.0381 5.51136 30.9719C3.28956 27.9057 2.09632 24.2144 2.10293 20.4278C2.10734 15.6759 3.99586 11.1195 7.35446 7.75781C10.7131 4.39609 15.2676 2.50333 20.0196 2.49451C24.7716 2.50333 29.3261 4.39609 32.6847 7.75781C36.0433 11.1195 37.9319 15.6759 37.9363 20.4278C37.9381 24.1865 36.7577 27.8506 34.5623 30.9015C32.3669 33.9524 29.2675 36.2355 25.7029 37.4278C25.421 37.5114 25.1234 37.5278 24.834 37.4757C24.5446 37.4236 24.2714 37.3045 24.0363 37.1278C23.8437 36.9676 23.6898 36.766 23.5859 36.538C23.4821 36.3101 23.4309 36.0616 23.4363 35.8112V31.0612C23.4879 30.6011 23.437 30.1353 23.2872 29.6973C23.1373 29.2592 22.8922 28.8599 22.5696 28.5278L21.1196 27.2778L23.0196 27.0612C26.5196 26.6778 30.0863 25.3945 30.0863 19.4612C30.1138 17.9744 29.5642 16.5347 28.5529 15.4445L28.1863 15.0445L28.3863 14.5612C28.7675 13.4828 28.7675 12.3062 28.3863 11.2278C27.0625 11.4791 25.8206 12.0514 24.7696 12.8945L24.4529 13.1112L24.0696 13.0112C22.7517 12.6367 21.3896 12.4405 20.0196 12.4278C18.6511 12.4296 17.289 12.6146 15.9696 12.9778L15.5863 13.0778L15.2696 12.8612C14.2228 12.0383 12.994 11.4782 11.6863 11.2278C11.3129 12.3076 11.3129 13.4814 11.6863 14.5612L11.8863 15.0445L11.5196 15.4445C10.5072 16.5585 9.96914 18.0234 10.0196 19.5278C10.0196 25.5278 13.5696 26.7445 17.0696 27.1445L18.9363 27.3612L17.5196 28.5945C17.0313 29.0658 16.7345 29.7009 16.6863 30.3778V30.8278L16.1529 31.0612C15.2616 31.5329 14.2385 31.6939 13.2454 31.5188C12.2523 31.3438 11.3459 30.8426 10.6696 30.0945L10.7863 30.3612C10.8863 30.6778 11.7529 32.9778 15.5863 32.1445L16.5863 31.9278V35.8612C16.5912 36.1075 16.5414 36.3519 16.4405 36.5767C16.3397 36.8014 16.1902 37.0011 16.0029 37.1612C15.6882 37.3883 15.3075 37.5054 14.9196 37.4945ZM20.0196 4.16117C15.7083 4.16559 11.5751 5.88135 8.5281 8.93146C5.48111 11.9816 3.7696 16.1165 3.7696 20.4278C3.76733 23.8398 4.84018 27.1657 6.83578 29.9332C8.83137 32.7007 11.6482 34.7691 14.8863 35.8445H15.0196V33.8945C13.8594 34.1529 12.645 33.9895 11.5943 33.4337C10.5437 32.8778 9.72538 31.9658 9.28627 30.8612C9.03837 30.0475 8.52118 29.3422 7.8196 28.8612C7.38627 28.5778 6.4696 27.9445 6.75293 27.0945C7.03627 26.2445 7.95293 26.2612 8.3196 26.2445C9.00667 26.3243 9.66568 26.5632 10.2443 26.9422C10.8229 27.3212 11.3052 27.8299 11.6529 28.4278C11.9632 29.0124 12.4786 29.4617 13.1 29.6893C13.7215 29.917 14.4051 29.907 15.0196 29.6612C15.0984 29.2943 15.2157 28.9368 15.3696 28.5945C12.0363 27.9612 8.35293 26.0612 8.35293 19.5278C8.32668 17.7917 8.91727 16.1027 10.0196 14.7612C9.61066 13.2172 9.72795 11.581 10.3529 10.1112L10.5029 9.7445L10.8696 9.62784C11.1696 9.52784 12.7696 9.17784 15.9696 11.2945C17.3228 10.9654 18.7103 10.7975 20.1029 10.7945C21.4956 10.7975 22.883 10.9654 24.2363 11.2945C27.4529 9.21117 29.0363 9.62784 29.3363 9.62784L29.7029 9.7445L29.8529 10.1112C30.4693 11.5831 30.5864 13.2164 30.1863 14.7612C31.2886 16.1027 31.8792 17.7917 31.8529 19.5278C31.8529 26.0778 28.0863 27.9445 24.6863 28.5778C25.0038 29.3656 25.146 30.213 25.1029 31.0612V35.7445C25.1029 35.7445 25.1029 35.7445 25.2863 35.7445C28.4985 34.6532 31.2876 32.5819 33.2608 29.8223C35.2341 27.0627 36.2923 23.7537 36.2863 20.3612C36.2686 16.0585 34.5471 11.9382 31.4984 8.90197C28.4497 5.86579 24.3223 4.16114 20.0196 4.16117Z" fill="currentColor"/>
</svg>
