<svg viewBox="0 0 40 40">
<path d="M33.9174 21.5033L32.4304 16.9118C32.4304 16.9118 32.4304 16.9159 32.4304 16.9176C32.43 16.9154 32.43 16.9131 32.4304 16.911L29.4663 7.79809C29.3883 7.5638 29.238 7.36031 29.037 7.2169C28.836 7.07349 28.5946 6.99757 28.3477 7.00006C28.1019 6.99861 27.8621 7.07596 27.6635 7.22077C27.4649 7.36558 27.3179 7.57023 27.244 7.8047L24.4353 16.4541H15.5702L12.754 7.8047C12.68 7.57016 12.5329 7.36549 12.3341 7.22068C12.1353 7.07588 11.8954 6.99856 11.6495 7.00006H11.6437C11.3968 6.99997 11.1562 7.07777 10.9561 7.22239C10.756 7.36701 10.6066 7.57107 10.5293 7.80552L7.57921 16.9068V16.9134C7.57957 16.9115 7.57957 16.9096 7.57921 16.9077L6.08312 21.4992C5.97283 21.8359 5.97228 22.1989 6.08155 22.5359C6.19082 22.8729 6.40427 23.1666 6.69114 23.3745L19.6107 32.7682H19.6174L19.6339 32.7798L19.6182 32.769C19.638 32.7823 19.6587 32.7955 19.6801 32.807L19.6892 32.812H19.6942H19.6991H19.7066C19.7181 32.8178 19.7297 32.8219 19.7413 32.8269C19.7528 32.8318 19.7627 32.8368 19.7735 32.8401H19.7793H19.7859H19.795C19.8107 32.8448 19.8267 32.8487 19.8429 32.8517L19.8611 32.8566H19.8701H19.8801H19.8908C19.9214 32.8612 19.9523 32.8637 19.9833 32.864C20.0146 32.8637 20.0458 32.8612 20.0767 32.8566H20.1064H20.1172H20.1254L20.1444 32.8517C20.1603 32.8487 20.176 32.8448 20.1915 32.8401H20.2006H20.2072H20.213C20.2254 32.8401 20.2361 32.831 20.2477 32.826L20.2799 32.8128H20.2873H20.2915H20.2972L20.3055 32.8079C20.327 32.7963 20.3476 32.7831 20.3675 32.7699H20.3724H20.3782L33.3094 23.3778C33.5959 23.1697 33.8091 22.8762 33.9183 22.5395C34.0275 22.2027 34.0272 21.8399 33.9174 21.5033ZM28.356 8.65146L30.8905 16.4541H25.8215L28.356 8.65146ZM30.4469 17.7734L29.4126 19.0952L21.7851 28.8681L25.3935 17.7734H30.4469ZM18.2146 28.8739L9.55776 17.7734H14.6111L18.2146 28.8739ZM11.6437 8.65146L14.1823 16.4541H9.11414L11.6437 8.65146ZM7.46686 22.3113C7.40586 22.2668 7.36052 22.2042 7.33736 22.1323C7.31421 22.0605 7.31443 21.9831 7.33799 21.9114L8.44994 18.4979L16.6004 28.9474L7.46686 22.3113ZM19.5884 32.7492L19.581 32.7426L19.5661 32.7302L19.5389 32.7046C19.558 32.7225 19.5782 32.7393 19.5992 32.755L19.5884 32.7492ZM20.0015 30.0974L17.8817 23.5711L16.0006 17.7775H24.0057L20.0015 30.0974ZM20.4369 32.7286L20.4228 32.741L20.4154 32.7476L20.3989 32.76C20.4196 32.7443 20.4395 32.7275 20.4583 32.7096L20.4369 32.7286ZM32.5378 22.3113L23.401 28.9458L31.5547 18.4987L32.6633 21.9106C32.6868 21.9825 32.6868 22.06 32.6635 22.132C32.6402 22.2039 32.5948 22.2667 32.5336 22.3113H32.5378Z" fill="currentColor"/>
</svg>
