<svg  viewBox="0 0 40 40" >
<path d="M33.3832 14.8905L23.5832 7.14055C22.565 6.32221 21.2978 5.87611 19.9915 5.87611C18.6852 5.87611 17.4181 6.32221 16.3998 7.14055L6.59984 14.9572C5.92753 15.4986 5.38533 16.184 5.01322 16.9628C4.6411 17.7416 4.44857 18.5941 4.44984 19.4572V34.1239H6.94984V19.4572C6.94648 18.9702 7.05434 18.4889 7.26518 18.0499C7.47603 17.6108 7.7843 17.2257 8.16651 16.9239L17.9665 9.09055C18.5406 8.62931 19.255 8.37789 19.9915 8.37789C20.728 8.37789 21.4424 8.62931 22.0165 9.09055L31.8165 16.9239C32.2008 17.2249 32.5116 17.6094 32.7253 18.0483C32.939 18.4872 33.05 18.969 33.0498 19.4572V34.1239H35.5498V19.4572C35.5579 18.5817 35.3671 17.7157 34.9918 16.9246C34.6165 16.1336 34.0664 15.4381 33.3832 14.8905Z" fill="currentColor"/>
<path d="M22.2834 23.6072H17.7168C16.9255 23.6072 16.1667 23.9215 15.6072 24.481C15.0478 25.0405 14.7334 25.7993 14.7334 26.5905V34.0572H17.2334V26.5905C17.2334 26.4624 17.2843 26.3394 17.375 26.2488C17.4656 26.1581 17.5886 26.1072 17.7168 26.1072H22.2834C22.4087 26.1116 22.5274 26.1644 22.6145 26.2546C22.7015 26.3447 22.7502 26.4652 22.7501 26.5905V34.0572H25.2501V26.5905C25.2501 25.8022 24.9381 25.0459 24.3822 24.4869C23.8263 23.9279 23.0718 23.6116 22.2834 23.6072Z" fill="currentColor"/>
</svg>
