<svg  viewBox="0 0 40 40" >
<path d="M19.9834 2.96668C15.4672 2.9711 11.1373 4.76709 7.94389 7.9605C4.75048 11.1539 2.95449 15.4839 2.95007 20C2.95449 24.5162 4.75048 28.8461 7.94389 32.0395C11.1373 35.2329 15.4672 37.0289 19.9834 37.0334C22.2224 37.0355 24.44 36.5967 26.5094 35.7419C28.5789 34.8871 30.4597 33.633 32.0445 32.0513C33.6292 30.4696 34.887 28.5913 35.7458 26.5235C36.6047 24.4557 37.0479 22.2391 37.0501 20C37.0479 17.761 36.6047 15.5443 35.7458 13.4765C34.887 11.4088 33.6292 9.53042 32.0445 7.94873C30.4597 6.36704 28.5789 5.11298 26.5094 4.25816C24.44 3.40334 22.2224 2.96449 19.9834 2.96668ZM19.9834 34.5334C18.0699 34.5399 16.1738 34.169 14.4039 33.4418C12.6339 32.7145 11.0247 31.6453 9.66856 30.2954C8.31238 28.9454 7.23583 27.3411 6.50051 25.5745C5.7652 23.8079 5.38559 21.9136 5.3834 20C5.38782 16.1469 6.92042 12.4528 9.64499 9.72827C12.3696 7.0037 16.0636 5.47109 19.9167 5.46668C23.767 5.4755 27.4567 7.01005 30.1777 9.73415C32.8987 12.4582 34.429 16.1498 34.4334 20C34.4291 23.8388 32.908 27.5203 30.2014 30.2425C27.4948 32.9647 23.8221 34.507 19.9834 34.5334Z" fill="currentColor"/>
<path d="M20.0331 15.65C20.2928 15.6563 20.5511 15.6093 20.7919 15.5118C21.0327 15.4143 21.2509 15.2685 21.4331 15.0834C21.6213 14.9026 21.7702 14.685 21.8706 14.4441C21.9709 14.2032 22.0206 13.9443 22.0165 13.6834C22.0211 13.4214 21.9734 13.1611 21.8761 12.9178C21.7788 12.6746 21.6339 12.4532 21.4498 12.2667C21.2653 12.0789 21.0446 11.9303 20.8011 11.8301C20.5577 11.7298 20.2964 11.6799 20.0331 11.6834C19.7724 11.6802 19.5137 11.7304 19.273 11.8307C19.0323 11.931 18.8145 12.0793 18.6331 12.2667C18.4468 12.4524 18.2993 12.6732 18.1991 12.9164C18.099 13.1596 18.0482 13.4204 18.0498 13.6834C18.048 13.9415 18.0988 14.1973 18.199 14.4351C18.2993 14.6729 18.447 14.8878 18.6331 15.0667C18.8139 15.2549 19.0315 15.4038 19.2724 15.5041C19.5133 15.6045 19.7722 15.6542 20.0331 15.65Z" fill="currentColor"/>
<path d="M21.8165 16.9333H16.4498V19.5667H18.1832V25.7H16.4498V28.3167H23.5165V25.7H21.8165V16.9333Z" fill="currentColor"/>
</svg>
