<svg  viewBox="0 0 40 40" >
<path d="M20 2.96667C15.4852 2.97548 11.1578 4.77289 7.96535 7.96535C4.77289 11.1578 2.97548 15.4852 2.96667 20C2.97548 24.5148 4.77289 28.8422 7.96535 32.0347C11.1578 35.2271 15.4852 37.0245 20 37.0333C24.5148 37.0245 28.8422 35.2271 32.0347 32.0347C35.2271 28.8422 37.0245 24.5148 37.0333 20C37.0245 15.4852 35.2271 11.1578 32.0347 7.96535C28.8422 4.77289 24.5148 2.97548 20 2.96667ZM20 34.5333C16.1469 34.5289 12.4528 32.9963 9.72828 30.2718C7.0037 27.5472 5.47109 23.8531 5.46667 20C5.47109 16.1469 7.0037 12.4528 9.72828 9.72826C12.4528 7.00369 16.1469 5.47109 20 5.46667C23.8531 5.47109 27.5472 7.00369 30.2718 9.72826C32.9963 12.4528 34.5289 16.1469 34.5333 20C34.5289 23.8531 32.9963 27.5472 30.2718 30.2718C27.5472 32.9963 23.8531 34.5289 20 34.5333Z" fill="currentColor"/>
<path d="M21.25 10.8667H18.75V22.5167H21.25V10.8667Z" fill="currentColor"/>
<path d="M20.0002 29.1499C21.0035 29.1499 21.8169 28.3366 21.8169 27.3333C21.8169 26.33 21.0035 25.5166 20.0002 25.5166C18.9969 25.5166 18.1836 26.33 18.1836 27.3333C18.1836 28.3366 18.9969 29.1499 20.0002 29.1499Z" fill="currentColor"/>
</svg>
