<svg  viewBox="0 0 40 40" >
<path d="M24.6881 7.5H15.3119C10.9987 7.5 7.5 10.9987 7.5 15.3119V24.6881C7.5 29.0013 10.9987 32.5 15.3119 32.5H24.6881C29.0013 32.5 32.5 29.0013 32.5 24.6881V15.3119C32.5 10.9987 29.0013 7.5 24.6881 7.5ZM30.1583 24.6788C30.1583 27.6962 27.7055 30.149 24.6881 30.149H15.3119C12.2945 30.149 9.84172 27.6962 9.84172 24.6788V15.3119C9.84172 12.2945 12.2945 9.84173 15.3119 9.84173H24.6881C27.7055 9.84173 30.1583 12.2945 30.1583 15.3119V24.6788Z" fill="currentColor"/>
<path d="M20.0046 13.7478C16.5522 13.7478 13.7569 16.543 13.7569 19.9955C13.7569 23.4479 16.5522 26.2431 20.0046 26.2431C23.4571 26.2431 26.2523 23.4479 26.2523 19.9955C26.2523 16.543 23.4571 13.7478 20.0046 13.7478ZM20.0046 23.9014C17.848 23.9014 16.0987 22.1521 16.0987 19.9955C16.0987 17.8389 17.848 16.0895 20.0046 16.0895C22.1612 16.0895 23.9106 17.8389 23.9106 19.9955C23.9106 22.1521 22.1612 23.9014 20.0046 23.9014Z" fill="currentColor"/>
<path d="M26.7244 14.1085C27.1845 14.1085 27.5574 13.7356 27.5574 13.2755C27.5574 12.8154 27.1845 12.4425 26.7244 12.4425C26.2643 12.4425 25.8914 12.8154 25.8914 13.2755C25.8914 13.7356 26.2643 14.1085 26.7244 14.1085Z" fill="currentColor"/>
</svg>
