<svg viewBox="0 0 40 40">
<path fill-rule="evenodd" clip-rule="evenodd" d="M27.3066 10.0001C28.9191 9.99301 30.4949 10.4815 31.8214 11.3995L31.8241 11.4013C33.1147 12.3022 34.3766 13.7713 34.8157 16.0942L35 17.0689H34.9452C35.1199 19.3352 34.3711 21.3507 32.9432 22.82C31.4887 24.3167 29.3818 25.1954 26.9643 25.2489C26.9151 25.8423 26.7865 26.5261 26.4881 27.1821C26.013 28.2266 25.1193 29.1672 23.5738 29.5544L23.5679 29.5559C23.302 29.6205 23.0295 29.6535 22.7559 29.6544C20.5126 29.6681 17.054 29.6818 14.1566 29.6921C12.7074 29.6972 11.3984 29.7015 10.4517 29.7045L8.92084 29.7092C8.92084 29.7092 8.92041 29.7092 8.918 28.8872C8.918 29.7092 8.91716 29.7092 8.91716 29.7092H8.91626L8.91424 29.7092L8.9094 29.7092L8.89654 29.709C8.88656 29.7089 8.87382 29.7086 8.85847 29.7081C8.82779 29.707 8.78658 29.7051 8.73628 29.7016C8.63591 29.6944 8.49785 29.6806 8.33381 29.6535C8.00906 29.6 7.56433 29.4919 7.10394 29.2692C6.14443 28.8051 5.16039 27.8534 5.04058 26.0786L5.03908 26.0563L5.03879 26.034C5.00701 23.6035 4.99955 20.1169 5.00002 17.2411C5.00025 15.8025 5.00247 14.5156 5.00463 13.5883C5.00571 13.1246 5.00677 12.7508 5.00756 12.4929L5.00888 12.0946L5.00888 11.8622C5.01131 11.5201 5.13281 11.0914 5.3931 10.732C5.67528 10.3423 6.15199 10.0001 6.81929 10.0001H27.3066ZM5.83085 12.0959C6.65281 12.099 6.65281 12.0991 6.65281 12.0991L6.6515 12.498C6.6507 12.7555 6.64964 13.1289 6.64856 13.5921C6.64641 14.5185 6.64419 15.8042 6.64396 17.2414C6.6435 20.1077 6.65091 23.5715 6.68228 25.989C6.76138 27.0633 7.30231 27.539 7.81975 27.7893C8.09952 27.9246 8.38287 27.9955 8.60115 28.0315C8.70863 28.0492 8.79583 28.0577 8.85284 28.0618C8.88123 28.0638 8.90174 28.0647 8.91311 28.065L8.92174 28.0653L10.4465 28.0606C11.393 28.0576 12.7018 28.0533 14.1508 28.0482C17.0489 28.0379 20.5065 28.0242 22.7473 28.0105L22.7499 28.0105C22.8939 28.0101 23.0373 27.9928 23.1773 27.959C24.1867 27.7052 24.7027 27.1368 24.9917 26.5015C25.299 25.8259 25.3583 25.0447 25.3453 24.4311L25.3266 23.5437L26.2128 23.5931C28.5756 23.7246 30.5201 22.9545 31.7642 21.6744C32.9998 20.4029 33.609 18.5648 33.1998 16.3995L33.1828 16.3097C32.822 14.53 31.8659 13.4357 30.8845 12.7503C29.8347 12.0242 28.5879 11.6381 27.3123 11.644L27.3085 11.644H6.81929C6.78266 11.644 6.77035 11.6512 6.76778 11.6527C6.76184 11.656 6.74575 11.6669 6.72459 11.6962C6.7026 11.7265 6.68225 11.767 6.66801 11.8109C6.65491 11.8513 6.65282 11.8757 6.65282 11.8757L6.65281 12.0991L5.83085 12.0959ZM8.918 28.8872V29.7092L8.92084 29.7092L8.918 28.8872ZM28.5479 15.2977C28.2538 15.1655 27.9347 15.0984 27.6124 15.1008L27.6063 15.1008H27.0817V20.2063C27.409 20.2067 27.7362 20.1881 28.0616 20.1503C28.5707 19.9754 28.991 19.726 29.2918 19.3531C29.5995 18.9716 29.8491 18.378 29.8491 17.395C29.8491 16.6865 29.6057 16.2042 29.3146 15.8639C29.1023 15.6224 28.8409 15.4293 28.5479 15.2977ZM27.6034 13.4568C28.161 13.4532 28.7129 13.5696 29.2217 13.7982C29.7314 14.0272 30.1858 14.3634 30.554 14.7839L30.5593 14.7899C31.0838 15.4008 31.493 16.2565 31.493 17.395C31.493 18.6721 31.1613 19.6537 30.5714 20.3852C29.9887 21.1076 29.2205 21.5032 28.4967 21.7382L28.4226 21.7622L28.3453 21.7719C27.6288 21.8619 26.9047 21.8744 26.1855 21.8092L25.4378 21.7414V13.4568H27.6034ZM16.8295 14.7878C17.703 14.3108 19.0008 13.9299 20.4356 14.5481C21.8462 15.1559 22.5617 16.3121 22.6855 17.5536C22.8053 18.7551 22.3731 20.0039 21.5889 20.9265L21.587 20.9287C20.8233 21.8207 19.6144 23.0199 18.6159 23.9793C18.1128 24.4629 17.6561 24.8921 17.3253 25.2005C17.1598 25.3547 17.0256 25.4789 16.9326 25.5646L16.8253 25.6634L16.7878 25.6977L16.7871 25.6984C16.7871 25.6984 16.7871 25.6984 16.2324 25.0918L16.7871 25.6984L16.7727 25.7116L16.7577 25.724C16.5758 25.8751 16.3514 25.9659 16.1154 25.9836C15.8795 26.0012 15.644 25.9449 15.4416 25.8226L15.2381 25.6995L15.2091 25.6416C15.1944 25.6282 15.1799 25.6145 15.1656 25.6006L15.1592 25.5943C15.0448 25.4806 14.7569 25.214 14.3514 24.8389L14.3487 24.8365C13.7379 24.2715 12.8984 23.495 12.1367 22.7576C11.394 22.0386 10.6635 21.2987 10.3183 20.8278C9.80832 20.1323 9.44882 19.1884 9.37512 18.2342C9.30118 17.277 9.51148 16.2118 10.2747 15.3977C11.6178 13.9651 14.1622 13.8355 16.0257 15.322C16.2423 15.1505 16.5131 14.9605 16.8295 14.7878ZM16.0334 24.1569C16.0856 24.1085 16.1428 24.0553 16.2044 23.9979C16.5309 23.6936 16.9812 23.2703 17.4769 22.794C18.4756 21.8343 19.6311 20.6853 20.3371 19.8609C20.8579 19.2476 21.1213 18.4347 21.0497 17.7168C20.982 17.0385 20.6186 16.417 19.7851 16.0579C18.9757 15.7092 18.2282 15.8971 17.6174 16.2306C17.3124 16.3972 17.0607 16.5914 16.8847 16.7454C16.7976 16.8216 16.7314 16.886 16.6889 16.9291C16.6677 16.9506 16.6526 16.9666 16.6439 16.976L16.6358 16.9847L16.6353 16.9854L16.0305 17.6747L15.4114 16.9933C14.0835 15.5317 12.2173 15.7293 11.474 16.5221C11.1182 16.9015 10.9639 17.4573 11.0142 18.1076C11.0646 18.761 11.3181 19.4112 11.6441 19.8557C11.8912 20.1928 12.5129 20.8337 13.2801 21.5764C14.0273 22.2997 14.8544 23.0649 15.4676 23.6321L15.4923 23.6548C15.6986 23.8457 15.8845 24.0177 16.0334 24.1569Z" fill="currentColor"/>
</svg>
