<svg  viewBox="0 0 40 40" >
<path d="M20 2.21655C16.58 2.22096 13.3014 3.58148 10.8832 5.99975C8.4649 8.41801 7.10439 11.6966 7.09998 15.1166C7.09998 27.4332 18.7666 37.0999 19.2166 37.4999C19.4363 37.6836 19.7137 37.7839 20 37.7832C20.2996 37.7857 20.5899 37.6791 20.8166 37.4832C21.3166 37.0499 32.9 26.7666 32.9 15.1166C32.8956 11.6966 31.535 8.41801 29.1168 5.99975C26.6985 3.58148 23.4199 2.22096 20 2.21655ZM20 34.8499C17.4166 32.4499 9.61665 24.4499 9.61665 15.1166C9.62105 12.3597 10.7182 9.71694 12.6676 7.76751C14.617 5.81809 17.2597 4.72096 20.0166 4.71656C22.7735 4.72096 25.4163 5.81809 27.3657 7.76751C29.3151 9.71694 30.4122 12.3597 30.4166 15.1166C30.4 23.9499 22.55 32.3332 19.9833 34.8499H20Z" fill="currentColor"/>
<path d="M19.9999 7.29992C18.0932 7.30433 16.2661 8.06485 14.9195 9.41463C13.5728 10.7644 12.8165 12.5932 12.8165 14.4999C12.8209 16.4037 13.5792 18.2283 14.9253 19.5744C16.2715 20.9206 18.0961 21.6789 19.9999 21.6833C21.9036 21.6789 23.7282 20.9206 25.0744 19.5744C26.4206 18.2283 27.1788 16.4037 27.1832 14.4999C27.1832 12.5932 26.4269 10.7644 25.0803 9.41463C23.7336 8.06485 21.9065 7.30433 19.9999 7.29992ZM19.9999 19.1833C18.7578 19.1833 17.5665 18.6898 16.6882 17.8115C15.8099 16.9332 15.3165 15.742 15.3165 14.4999C15.3165 13.2563 15.8094 12.0633 16.6872 11.1824C17.565 10.3015 18.7562 9.80433 19.9999 9.79992C21.2435 9.80433 22.4347 10.3015 23.3125 11.1824C24.1903 12.0633 24.6832 13.2563 24.6832 14.4999C24.6832 15.742 24.1898 16.9332 23.3115 17.8115C22.4332 18.6898 21.242 19.1833 19.9999 19.1833Z" fill="currentColor"/>
</svg>
