<svg  viewBox="0 0 40 40" >
<path d="M12.2668 13.1084H6.05017C5.71999 13.1041 5.40455 12.971 5.17106 12.7375C4.93757 12.504 4.80449 12.1885 4.80017 11.8584V5.67505C4.80449 5.34487 4.93757 5.02943 5.17106 4.79594C5.40455 4.56245 5.71999 4.42937 6.05017 4.42505H12.2335C12.5637 4.42937 12.8791 4.56245 13.1126 4.79594C13.3461 5.02943 13.4792 5.34487 13.4835 5.67505V11.8584C13.4795 12.1829 13.351 12.4936 13.1246 12.7262C12.8982 12.9588 12.5912 13.0956 12.2668 13.1084ZM7.26684 10.6084H11.0502V6.92505H7.36684L7.26684 10.6084Z" fill="currentColor"/>
<path d="M12.2668 24.3417H6.05017C5.71999 24.3374 5.40455 24.2043 5.17106 23.9708C4.93757 23.7373 4.80449 23.4219 4.80017 23.0917V16.9084C4.80449 16.5782 4.93757 16.2627 5.17106 16.0293C5.40455 15.7958 5.71999 15.6627 6.05017 15.6584H12.2335C12.5637 15.6627 12.8791 15.7958 13.1126 16.0293C13.3461 16.2627 13.4792 16.5782 13.4835 16.9084V23.0917C13.4795 23.4163 13.351 23.7269 13.1246 23.9595C12.8982 24.1921 12.5912 24.3289 12.2668 24.3417ZM7.26684 21.8417H11.0502V18.1584H7.36684L7.26684 21.8417Z" fill="currentColor"/>
<path d="M12.2668 35.575H6.05017C5.71999 35.5707 5.40455 35.4376 5.17106 35.2041C4.93757 34.9706 4.80449 34.6552 4.80017 34.325V28.1417C4.80449 27.8115 4.93757 27.4961 5.17106 27.2626C5.40455 27.0291 5.71999 26.896 6.05017 26.8917H12.2335C12.5637 26.896 12.8791 27.0291 13.1126 27.2626C13.3461 27.4961 13.4792 27.8115 13.4835 28.1417V34.325C13.4795 34.6496 13.351 34.9602 13.1246 35.1928C12.8982 35.4254 12.5912 35.5622 12.2668 35.575ZM7.26684 33.075H11.0502V29.3917H7.36684L7.26684 33.075Z" fill="currentColor"/>
<path d="M35.2001 7.52502H16.8335V10.025H35.2001V7.52502Z" fill="currentColor"/>
<path d="M35.2001 18.7583H16.8335V21.2583H35.2001V18.7583Z" fill="currentColor"/>
<path d="M35.2001 29.9917H16.8335V32.4917H35.2001V29.9917Z" fill="currentColor"/>
</svg>
