<svg  viewBox="0 0 40 40" >
<path d="M10.5278 7.5C8.69444 7.5 7.5 8.7592 7.5 10.4155C7.5 12.0331 8.66667 13.3311 10.463 13.3311H10.5C12.3704 13.3311 13.5278 12.0331 13.5278 10.4155C13.4908 8.7592 12.3611 7.5 10.5278 7.5Z" fill="currentColor"/>
<path d="M7.8148 15.6266H13.1759V32.4902H7.8148V15.6266Z" fill="currentColor"/>
<path d="M26.3333 15.2296C23.4444 15.2296 21.5 18.0676 21.5 18.0676V15.617H16.1389V32.4903H21.5V23.0754C21.5 22.5717 21.537 22.068 21.6759 21.7096C22.0648 20.7023 22.9444 19.6562 24.4259 19.6562C26.3611 19.6562 27.1389 21.2059 27.1389 23.4725V32.5H32.5V22.8332C32.5 17.6414 29.8518 15.2296 26.3333 15.2296Z" fill="currentColor"/>
</svg>
