<svg  viewBox="0 0 40 40" >
<path d="M20.0001 36.1334C15.7227 36.129 11.6217 34.4278 8.59702 31.4031C5.57239 28.3785 3.87123 24.2775 3.86682 20C3.87123 15.7226 5.57239 11.6215 8.59702 8.59691C11.6217 5.57228 15.7227 3.87111 20.0001 3.8667H20.8168H21.0168C21.2943 3.88416 21.558 3.9936 21.7662 4.17772C21.9745 4.36185 22.1155 4.61016 22.1668 4.88337C22.2201 5.15467 22.1819 5.43597 22.0583 5.68326C21.9346 5.93055 21.7325 6.12988 21.4835 6.25003C19.9091 6.99442 18.5818 8.17571 17.6599 9.65318C16.7379 11.1306 16.2602 12.842 16.2835 14.5834C16.2879 17.0132 17.2551 19.3422 18.9732 21.0603C20.6913 22.7784 23.0204 23.7456 25.4502 23.75C27.1895 23.764 28.8962 23.2782 30.3676 22.3505C31.8389 21.4228 33.013 20.0921 33.7501 18.5167C33.8703 18.2677 34.0696 18.0655 34.3169 17.9419C34.5642 17.8183 34.8455 17.7801 35.1168 17.8334C35.3913 17.882 35.6412 18.0221 35.8258 18.2309C36.0105 18.4398 36.1189 18.705 36.1335 18.9834V19.1834C36.1335 19.45 36.1335 19.7334 36.1335 20C36.1291 24.2775 34.4279 28.3785 31.4033 31.4031C28.3786 34.4278 24.2776 36.129 20.0001 36.1334ZM16.7668 6.75003C13.7886 7.48311 11.1435 9.19671 9.25714 11.6152C7.37076 14.0336 6.35273 17.0163 6.36682 20.0834C6.37123 23.6978 7.80901 27.1629 10.3648 29.7187C12.9206 32.2745 16.3857 33.7123 20.0001 33.7167C23.0582 33.7132 26.0265 32.6829 28.4291 30.791C30.8318 28.8992 32.5295 26.2553 33.2501 23.2834C31.1037 25.226 28.3118 26.3012 25.4168 26.3C22.3226 26.3 19.3551 25.0709 17.1672 22.8829C14.9793 20.695 13.7501 17.7276 13.7501 14.6334C13.7268 11.7194 14.8041 8.90398 16.7668 6.75003Z" fill="currentColor"/>
</svg>
