<svg  viewBox="0 0 40 40" >
<path fill-rule="evenodd" clip-rule="evenodd" d="M20.0083 26.6666C20.2721 26.6665 20.5298 26.6398 20.7786 26.5888C22.5207 26.2317 23.8333 24.6874 23.8333 22.8332V9.29989C23.8333 7.18086 22.1189 5.46655 20.0083 5.46655C17.8978 5.46655 16.1833 7.18086 16.1833 9.29989V22.8332C16.1833 24.9522 17.8978 26.6666 20.0083 26.6666ZM26.3333 9.29989C26.3333 5.80402 23.5035 2.96655 20.0083 2.96655C16.5132 2.96655 13.6833 5.80402 13.6833 9.29989V22.8332C13.6833 26.3291 16.5132 29.1666 20.0083 29.1666C20.0356 29.1666 20.0629 29.1664 20.0901 29.166C20.4984 29.1609 20.8974 29.1169 21.2836 29.0378C24.1667 28.4469 26.3333 25.8921 26.3333 22.8332V9.29989ZM14.1545 28.6453C12.6042 27.095 11.7333 24.9923 11.7333 22.7999H9.23328C9.23328 25.6554 10.3676 28.3939 12.3868 30.4131C14.109 32.1353 16.3547 33.2138 18.7499 33.4938V34.5332H14.75V37.0332H25.2667V34.5332H21.2499V33.4938C23.6451 33.2139 25.8908 32.1354 27.6131 30.4131C29.6323 28.3939 30.7666 25.6554 30.7666 22.7999H28.2666C28.2666 24.9923 27.3957 27.095 25.8454 28.6453C24.2951 30.1956 22.1924 31.0665 19.9999 31.0665C17.8075 31.0665 15.7048 30.1956 14.1545 28.6453Z" fill="currentColor"/>
</svg>
