<svg  viewBox="0 0 40 40" >
<path d="M32.9501 8.9917H7.05009C6.14394 8.9917 5.27489 9.35162 4.63415 9.99237C3.9934 10.6331 3.63342 11.5022 3.63342 12.4083V27.675C3.65518 28.5667 4.02473 29.4144 4.66314 30.0373C5.30154 30.6601 6.15819 31.0086 7.05009 31.0084H32.9501C33.842 31.0086 34.6986 30.6601 35.337 30.0373C35.9754 29.4144 36.345 28.5667 36.3668 27.675V12.4083C36.3668 11.5022 36.0068 10.6331 35.366 9.99237C34.7253 9.35162 33.8563 8.9917 32.9501 8.9917ZM31.5834 11.4917L20.1834 20.775C20.1339 20.8219 20.0683 20.848 20.0001 20.848C19.9319 20.848 19.8663 20.8219 19.8168 20.775L8.41677 11.4917H31.5834ZM32.9501 28.5917H7.05009C6.80698 28.5917 6.57384 28.4951 6.40193 28.3232C6.23002 28.1513 6.13342 27.9181 6.13342 27.675V12.8417L18.2334 22.725C18.7348 23.1259 19.3581 23.3435 20.0001 23.3417C20.6425 23.3462 21.2667 23.1283 21.7668 22.725L33.8668 12.8417V27.675C33.8668 27.7954 33.843 27.9146 33.797 28.0258C33.7509 28.137 33.6834 28.2381 33.5983 28.3232C33.5132 28.4083 33.4121 28.4758 33.3009 28.5219C33.1897 28.568 33.0705 28.5917 32.9501 28.5917Z" fill="currentColor"/>
</svg>
