<svg  viewBox="0 0 40 40" >
<path d="M20 2.97498C15.4838 2.9794 11.1539 4.77539 7.96049 7.9688C4.76708 11.1622 2.97109 15.4922 2.96667 20.0083C2.97109 24.523 4.76762 28.8512 7.96151 32.0419C11.1554 35.2327 15.4854 37.025 20 37.025C24.5133 37.0206 28.8407 35.2269 32.0336 32.0371C35.2266 28.8473 37.0245 24.5216 37.0333 20.0083C37.0289 15.4922 35.2329 11.1622 32.0395 7.9688C28.8461 4.77539 24.5162 2.9794 20 2.97498ZM20 34.525C16.1527 34.5162 12.4654 32.9839 9.74491 30.2634C7.02441 27.5429 5.49215 23.8557 5.48335 20.0083C5.48776 16.1552 7.02036 12.4612 9.74493 9.73659C12.4695 7.01201 16.1636 5.47939 20.0167 5.47498C23.8698 5.47939 27.5639 7.01201 30.2884 9.73659C33.013 12.4612 34.5456 16.1552 34.55 20.0083C34.5412 23.8614 33.0043 27.5537 30.2767 30.2752C27.549 32.9966 23.8531 34.525 20 34.525Z" fill="currentColor"/>
<path d="M21.7667 18.7584H21.25V14.3917H25.1834V11.8917H21.25V9.90837H18.8167V11.8417H18.3C17.6752 11.8328 17.0549 11.949 16.4757 12.1835C15.8964 12.418 15.37 12.766 14.9273 13.2071C14.4847 13.6482 14.1348 14.1735 13.8982 14.7519C13.6617 15.3303 13.5433 15.9502 13.55 16.575C13.55 17.1893 13.6713 17.7975 13.9069 18.3647C14.1424 18.932 14.4877 19.4472 14.9228 19.8808C15.3579 20.3143 15.8743 20.6577 16.4424 20.8913C17.0105 21.1248 17.6191 21.2439 18.2334 21.2417H18.8167V25.5917H14.8V28.0917H18.8167V30.0251H21.3167V28.0917H21.8334C23.071 28.0917 24.258 27.6001 25.1332 26.7249C26.0084 25.8497 26.5 24.6627 26.5 23.425C26.5001 22.8066 26.3772 22.1942 26.1385 21.6236C25.8999 21.0531 25.5502 20.5356 25.1097 20.1014C24.6693 19.6672 24.1469 19.3249 23.573 19.0943C22.9991 18.8637 22.3851 18.7495 21.7667 18.7584ZM18.2334 18.7584C17.9453 18.7584 17.66 18.7014 17.394 18.5906C17.128 18.4798 16.8866 18.3175 16.6836 18.113C16.4806 17.9085 16.3202 17.6658 16.2114 17.399C16.1027 17.1322 16.0478 16.8465 16.05 16.5584C16.0544 15.9822 16.2864 15.4311 16.6954 15.0253C17.1044 14.6194 17.6572 14.3917 18.2334 14.3917H18.8167V18.7584H18.2334ZM21.7667 25.6084H21.25V21.2584H21.7667C22.3429 21.2628 22.8939 21.4947 23.2998 21.9037C23.7056 22.3127 23.9334 22.8655 23.9334 23.4417C23.9334 24.0163 23.7051 24.5675 23.2988 24.9738C22.8924 25.3801 22.3413 25.6084 21.7667 25.6084Z" fill="currentColor"/>
</svg>
