<svg viewBox="0 0 97 97">
<path d="M48.7293 8.61287C38.7966 8.37637 29.1759 12.1242 21.9746 19.0355C14.7732 25.9468 10.5783 35.4581 10.3085 45.4861C10.3394 50.4302 11.3788 55.3149 13.3619 59.8355C15.345 64.3562 18.2292 68.4158 21.8348 71.7613V88.5981L37.6784 80.5996C41.3152 81.6972 45.092 82.2497 48.8878 82.2393C58.8167 82.4866 68.4375 78.7477 75.6401 71.8428C82.8426 64.9379 87.0389 55.4306 87.3085 45.4061C87.0185 35.3637 82.7926 25.8482 75.5591 18.9495C68.3255 12.0508 58.6757 8.33306 48.7293 8.61287ZM48.7293 16.3715C56.6244 16.1341 64.2911 19.0644 70.0516 24.5208C75.812 29.9773 79.1971 37.5156 79.466 45.4861C79.1972 53.4531 75.8108 60.9874 70.0491 66.4376C64.2874 71.8877 56.6206 74.8089 48.7293 74.5608C45.6461 74.558 42.5788 74.1137 39.6192 73.241L36.7278 72.4011L34.0344 73.7609L29.4793 76.0405V68.3619L27.0235 66.0823C24.2048 63.4518 21.9467 60.2688 20.3872 56.7276C18.8276 53.1863 17.9994 49.3613 17.9531 45.4861C18.2219 37.5085 21.6124 29.964 27.3815 24.5064C33.1506 19.0488 40.8275 16.1233 48.7293 16.3715ZM44.7684 35.7679L25.558 55.1643L42.8672 47.4058L52.6902 55.1643L71.9006 35.7679L54.6311 43.5265L44.7684 35.7679Z" fill="currentColor"/>
</svg>
