<svg  viewBox="0 0 40 40" >
<path d="M26.7137 14.4745C26.5446 14.4768 26.3781 14.5156 26.2255 14.5881C26.073 14.6607 25.9381 14.7654 25.8301 14.8949C25.7222 15.0244 25.6437 15.1756 25.6003 15.3382C25.5568 15.5008 25.5493 15.6708 25.5783 15.8365L27.4317 16.0359V25.4708L20.135 14.8067L14.842 15.1555C14.652 15.1606 14.4655 15.2076 14.296 15.293C14.1265 15.3785 13.9781 15.5002 13.8615 15.6496C13.7449 15.7989 13.6631 15.9721 13.6219 16.1566C13.5806 16.3412 13.581 16.5325 13.6231 16.7169L15.4097 16.8664V30.3211L14.124 30.6699C13.9135 30.7518 13.7434 30.9122 13.6498 31.1169C13.5563 31.3216 13.5467 31.5546 13.6231 31.7662L18.6323 31.4839C20.4189 31.4839 20.4189 30.2547 20.4189 30.2547L18.1981 29.773V19.5906L25.2277 30.1218C26.0792 31.1516 26.3798 31.4839 27.5152 31.4839C28.4081 31.434 29.277 31.1781 30.0532 30.7364V15.7867L31.1218 15.5708C31.773 15.5708 31.9066 14.8897 31.773 14.2751L26.7137 14.4745Z" fill="currentColor"/>
<path d="M36.2646 7.91322L29.7526 3.52799C29.0962 3.01539 28.3312 2.65784 27.5155 2.48231C26.6999 2.30678 25.8548 2.31787 25.044 2.51473L4.58986 3.94326C4.2806 3.93703 3.97354 3.99613 3.68893 4.11665C3.40433 4.23717 3.14865 4.41637 2.93878 4.64242C2.72891 4.86846 2.56962 5.13622 2.47143 5.42802C2.37323 5.71982 2.33836 6.02901 2.36912 6.3352V27.6634C2.41377 28.7362 2.84666 29.7567 3.58802 30.537L8.34674 36.4837C8.69944 36.9264 9.16859 37.2633 9.70208 37.4568C10.2356 37.6503 10.8126 37.693 11.3689 37.58L35.0624 36.2013C37.066 36.0684 37.6338 35.1881 37.6338 33.6765V9.69057C37.7005 8.86003 37.3499 8.66071 36.2646 7.91322ZM7.72894 32.3144C7.73024 32.3751 7.71181 32.4347 7.67638 32.4842C7.64096 32.5337 7.59043 32.5705 7.5323 32.5892C7.47417 32.6078 7.41154 32.6073 7.35371 32.5877C7.29589 32.5682 7.24596 32.5306 7.21133 32.4805L4.48967 28.876C4.18727 28.4729 4.02334 27.9836 4.02215 27.4807V8.37832C4.02203 8.32438 4.03744 8.27153 4.06656 8.22603C4.09568 8.18053 4.13729 8.14427 4.18647 8.12156C4.23565 8.09884 4.29034 8.09062 4.34407 8.09785C4.3978 8.10509 4.44833 8.12748 4.48967 8.16238L6.94417 10.1391C7.18872 10.3423 7.38566 10.5963 7.52121 10.8833C7.65677 11.1702 7.72767 11.4831 7.72894 11.8001V32.3144ZM5.65848 6.46809C5.37463 6.20232 5.5249 5.85349 6.24288 5.78705L25.8789 4.42497C26.4374 4.35231 27.0049 4.39285 27.5473 4.54415C28.0896 4.69545 28.5956 4.95437 29.0347 5.30534L32.3741 7.63084C32.5077 7.63084 32.875 8.11255 32.3741 8.11255L12.1871 9.2753C10.0332 9.40819 9.59904 9.47463 8.46362 8.59426L5.65848 6.46809ZM35.2627 31.9656C35.2627 32.8626 35.1292 33.6266 33.8268 33.6266L11.5359 34.9555C10.2502 34.9555 9.68252 34.6233 9.68252 33.527V13.0958C9.68252 12.2154 9.96638 11.8001 10.8179 11.7337L34.1941 10.4381C34.9789 10.4381 35.3295 10.8533 35.3295 11.7337L35.2627 31.9656Z" fill="currentColor"/>
</svg>
