<svg  viewBox="0 0 40 40" >
<path d="M20 2.97498C15.4838 2.97939 11.1539 4.77538 7.96049 7.9688C4.76708 11.1622 2.97109 15.4921 2.96667 20.0083C2.9755 24.5216 4.77343 28.8472 7.96637 32.037C11.1593 35.2269 15.4867 37.0206 20 37.025C24.5146 37.025 28.8446 35.2327 32.0385 32.0419C35.2324 28.8511 37.0289 24.5229 37.0333 20.0083C37.0289 15.4921 35.2329 11.1622 32.0395 7.9688C28.8461 4.77538 24.5162 2.97939 20 2.97498ZM20 34.525C16.1498 34.5206 12.4582 32.9903 9.73413 30.2693C7.01003 27.5483 5.47549 23.8585 5.46667 20.0083C5.47109 16.1552 7.00368 12.4611 9.72825 9.73655C12.4528 7.01198 16.1469 5.47939 20 5.47498C23.8531 5.47939 27.5472 7.01198 30.2717 9.73655C32.9963 12.4611 34.5289 16.1552 34.5333 20.0083C34.5245 23.8585 32.99 27.5483 30.2659 30.2693C27.5418 32.9903 23.8503 34.5206 20 34.525Z" fill="currentColor"/>
<path d="M25.9169 12.325L20.0169 18.2416L14.1002 12.325L12.3335 14.0916L18.2502 20.0083L12.3335 25.9083L14.1002 27.6749L20.0169 21.7749L25.9169 27.6749L27.6835 25.9083L21.7836 20.0083L27.6835 14.0916L25.9169 12.325Z" fill="currentColor"/>
</svg>
