<svg viewBox="0 0 96 96">
<path d="M80.2338 30.9094C77.4309 27.5007 73.5044 25.2008 69.1582 24.4218C68.1772 20.7155 65.9488 17.4596 62.8477 15.2016C59.7466 12.9437 55.9618 11.8213 52.1298 12.0232H28.1386C26.9128 12.0224 25.7189 12.4139 24.7321 13.1403C23.7452 13.8668 23.0172 14.89 22.6549 16.0599C22.6389 16.2277 22.6389 16.3967 22.6549 16.5645L12.0122 65.1498V65.6544C11.9959 65.8824 11.9959 66.1112 12.0122 66.3392C12.0399 67.8313 12.6456 69.2545 13.7018 70.3098C14.7581 71.365 16.1827 71.9701 17.6763 71.9979H26.9841L25.9018 77.0438C25.8844 77.2115 25.8844 77.3806 25.9018 77.5484C25.8877 77.7765 25.8877 78.0051 25.9018 78.2332C25.9113 79.766 26.5275 81.2327 27.6158 82.3132C28.704 83.3936 30.176 84 31.7102 84H45.4195C46.4795 83.8646 47.4815 83.4396 48.3154 82.7719C49.1492 82.1042 49.7825 81.2196 50.1456 80.2155C50.1617 79.9996 50.1617 79.7827 50.1456 79.5668L53.7533 64.1045H59.3452C72.838 64.1045 80.9914 58.3017 83.3364 46.8763C84.0912 44.1565 84.2038 41.2988 83.6654 38.5282C83.1271 35.7575 81.9524 33.1495 80.2338 30.9094ZM20.4181 64.1045L29.9424 20.0246H52.1298C53.746 19.9736 55.3501 20.318 56.8026 21.0279C58.2551 21.7377 59.5119 22.7914 60.4636 24.0974H41.5953C40.3799 24.0973 39.1954 24.4805 38.2107 25.1924C37.226 25.9043 36.4914 26.9086 36.1116 28.0621C36.0911 28.2658 36.0911 28.4711 36.1116 28.6748L31.9627 49.0748L28.4994 64.1045H20.4181ZM75.6159 45.2183C73.9925 52.8233 69.1582 56.031 59.4534 56.031H52.0216C50.6784 56.0606 49.3895 56.5662 48.385 57.4575C47.3805 58.3488 46.7258 59.5678 46.5379 60.8968L42.9302 76.1067H34.2717L39.3225 52.0664H45.0948C62.1592 52.0664 67.7872 42.4791 69.5189 34.4416C69.6267 33.9427 69.6991 33.4369 69.7354 32.9278C71.3647 33.5488 72.8061 34.5792 73.9203 35.9193C74.8892 37.2399 75.5453 38.7631 75.839 40.3739C76.1328 41.9847 76.0565 43.6412 75.6159 45.2183Z" fill="currentColor"/>
</svg>
