<svg viewBox="0 0 97 97">
<path d="M85.4982 34.2278C85.4569 33.7719 85.3059 33.3327 85.0582 32.9478C80.3261 24.0812 72.7209 17.0862 63.4903 13.1106C54.2598 9.13488 43.9521 8.41455 34.2583 11.0678C33.7932 11.1666 33.3599 11.3791 32.9969 11.6862C32.634 11.9933 32.3527 12.3855 32.1782 12.8278L12.1782 61.2678C12.0981 61.6368 12.0981 62.0187 12.1782 62.3878V84.9478C12.1756 85.4381 12.2949 85.9215 12.5253 86.3543C12.7557 86.7872 13.09 87.1561 13.4982 87.4278C13.9903 87.772 14.5777 87.9538 15.1782 87.9478C15.564 87.9447 15.9451 87.863 16.2982 87.7078L83.6582 59.7078C84.2087 59.4887 84.6796 59.1074 85.0082 58.6144C85.3368 58.1214 85.5078 57.5402 85.4982 56.9478V34.2278ZM79.4982 43.5078L18.1782 69.1478V64.3878L79.4982 38.7478V43.5078ZM37.0582 16.7478C44.7296 14.7325 52.8419 15.1948 60.2346 18.0686C67.6274 20.9423 73.922 26.0804 78.2182 32.7478L20.6583 56.7478L37.0582 16.7478ZM18.0983 80.7478V75.6678L79.4182 50.0278V54.7878L18.0983 80.7478Z" fill="currentColor"/>
</svg>
