<svg  viewBox="0 0 40 40" >
<path d="M32.0001 34.2667H29.5001V30.3166C29.4997 28.4562 28.9529 26.6369 27.9278 25.0843C26.9027 23.5318 25.4442 22.3144 23.7335 21.5833C23.4866 21.4752 23.2723 21.3045 23.1115 21.0883C22.9508 20.872 22.8492 20.6175 22.8168 20.35C22.7899 20.0815 22.8342 19.8107 22.9454 19.5649C23.0566 19.3191 23.2307 19.107 23.4501 18.95C24.2152 18.4093 24.8387 17.6924 25.2681 16.8598C25.6974 16.0272 25.9199 15.1034 25.9168 14.1666C25.9124 12.5944 25.2859 11.0878 24.1741 9.97601C23.0623 8.86425 21.5557 8.2377 19.9835 8.23331C18.4112 8.2377 16.9046 8.86425 15.7928 9.97601C14.681 11.0878 14.0545 12.5944 14.0501 14.1666C14.047 15.1034 14.2695 16.0272 14.6989 16.8598C15.1282 17.6924 15.7518 18.4093 16.5168 18.95C16.7362 19.107 16.9103 19.3191 17.0215 19.5649C17.1327 19.8107 17.1771 20.0815 17.1501 20.35C17.1245 20.6197 17.0255 20.8772 16.864 21.0946C16.7024 21.312 16.4843 21.481 16.2335 21.5833C14.5227 22.3144 13.0643 23.5318 12.0391 25.0843C11.014 26.6369 10.4673 28.4562 10.4668 30.3166V34.2667H8.00012V30.3166C8.0024 28.2242 8.55101 26.1686 9.59166 24.3533C10.6323 22.538 12.129 21.0259 13.9335 19.9667C12.4353 18.4063 11.5939 16.3298 11.5835 14.1666C11.5879 11.9313 12.4778 9.78886 14.0584 8.20826C15.639 6.62765 17.7815 5.73771 20.0168 5.73331C22.2521 5.73771 24.3946 6.62765 25.9752 8.20826C27.5558 9.78886 28.4457 11.9313 28.4501 14.1666C28.45 16.3318 27.6072 18.412 26.1001 19.9667C27.8984 21.0301 29.3884 22.544 30.4231 24.359C31.4577 26.174 32.0013 28.2274 32.0001 30.3166V34.2667Z" fill="currentColor"/>
</svg>
