<svg viewBox="0 0 96 96">
<path d="M8 12V84H24V12H8ZM60 12C52.5739 12 45.452 14.95 40.201 20.201C34.95 25.452 32 32.5739 32 40C32 47.4261 34.95 54.548 40.201 59.799C45.452 65.05 52.5739 68 60 68C67.4261 68 74.548 65.05 79.799 59.799C85.05 54.548 88 47.4261 88 40C88 32.5739 85.05 25.452 79.799 20.201C74.548 14.95 67.4261 12 60 12ZM60 20C65.3043 20 70.3914 22.1071 74.1421 25.8579C77.8929 29.6086 80 34.6957 80 40C80 45.3043 77.8929 50.3914 74.1421 54.1421C70.3914 57.8929 65.3043 60 60 60C54.6957 60 49.6086 57.8929 45.8579 54.1421C42.1071 50.3914 40 45.3043 40 40C40 34.6957 42.1071 29.6086 45.8579 25.8579C49.6086 22.1071 54.6957 20 60 20Z" fill="currentColor"/>
</svg>
