<svg  viewBox="0 0 40 40" >
<path d="M29.8666 22.6535C30.7067 21.616 31.1656 20.3218 31.1666 18.9868C31.1678 17.7548 30.7822 16.5536 30.0642 15.5524C29.3463 14.5512 28.3321 13.8007 27.1648 13.4067C25.9975 13.0127 24.736 12.9951 23.5582 13.3563C22.3803 13.7176 21.3456 14.4395 20.5999 15.4202C20.241 15.047 19.8444 14.7119 19.4166 14.4202C20.0033 13.6828 20.4049 12.8157 20.5878 11.8913C20.7706 10.9669 20.7294 10.0121 20.4675 9.10694C20.2057 8.20174 19.7308 7.37243 19.0827 6.68841C18.4346 6.00439 17.6321 5.48556 16.7423 5.17534C15.8525 4.86511 14.9014 4.77252 13.9685 4.90531C13.0356 5.03811 12.148 5.39242 11.3802 5.9386C10.6123 6.48478 9.98641 7.20693 9.55489 8.04463C9.12338 8.88233 8.89879 9.8112 8.89992 10.7535C8.90092 12.0885 9.35979 13.3827 10.1999 14.4202C9.08634 15.1708 8.17416 16.1835 7.54354 17.3691C6.91292 18.5548 6.58317 19.8772 6.58325 21.2202V35.1535H9.08325V21.2202C9.08428 20.1019 9.41325 19.0086 10.0294 18.0754C10.6456 17.1422 11.5219 16.4103 12.5499 15.9702C12.7699 15.8601 12.9594 15.6977 13.1019 15.4972C13.2443 15.2966 13.3352 15.0641 13.3666 14.8202C13.3906 14.5674 13.3479 14.3127 13.2426 14.0817C13.1373 13.8506 12.9731 13.6512 12.7666 13.5035C12.3258 13.1937 11.9667 12.7817 11.7199 12.3028C11.4732 11.8239 11.3462 11.2923 11.3499 10.7535C11.3499 9.85177 11.7081 8.98697 12.3458 8.34934C12.9834 7.71172 13.8482 7.35351 14.7499 7.35351C15.6517 7.35351 16.5165 7.71172 17.1541 8.34934C17.7917 8.98697 18.1499 9.85177 18.1499 10.7535C18.1536 11.2923 18.0266 11.8239 17.7799 12.3028C17.5332 12.7817 17.174 13.1937 16.7333 13.5035C16.5305 13.6521 16.3704 13.8513 16.269 14.0813C16.1676 14.3113 16.1284 14.5638 16.1554 14.8137C16.1824 15.0636 16.2747 15.302 16.4229 15.505C16.5711 15.7079 16.7701 15.8684 16.9999 15.9702C17.9758 16.3831 18.814 17.0652 19.4166 17.9368C19.3585 18.284 19.3251 18.6349 19.3166 18.9868C19.3195 20.3187 19.7717 21.6106 20.5999 22.6535C19.4863 23.4041 18.5742 24.4168 17.9435 25.6025C17.3129 26.7881 16.9832 28.1106 16.9833 29.4535V35.1535H19.4833V29.4535C19.4835 28.3329 19.8141 27.2372 20.4336 26.3035C21.0532 25.3697 21.9342 24.6393 22.9666 24.2035C23.1975 24.1044 23.398 23.9457 23.5473 23.7436C23.6967 23.5415 23.7896 23.3034 23.8166 23.0535C23.8442 22.8021 23.8047 22.5478 23.7023 22.3166C23.5998 22.0853 23.438 21.8853 23.2333 21.7368C22.6257 21.3309 22.1684 20.7366 21.9316 20.0454C21.6948 19.3542 21.6918 18.6043 21.9228 17.9111C22.1539 17.218 22.6063 16.6199 23.2104 16.209C23.8146 15.7981 24.537 15.5971 25.2666 15.6368C26.1506 15.6368 26.9985 15.988 27.6236 16.6132C28.2487 17.2383 28.5999 18.0861 28.5999 18.9702C28.6036 19.5089 28.4766 20.0405 28.2299 20.5195C27.9832 20.9984 27.624 21.4104 27.1833 21.7202C26.9767 21.8679 26.8126 22.0673 26.7073 22.2983C26.602 22.5294 26.5592 22.7841 26.5833 23.0368C26.6182 23.2864 26.716 23.5229 26.8677 23.7241C27.0193 23.9253 27.2197 24.0845 27.4499 24.1868C28.4779 24.627 29.3542 25.3589 29.9704 26.2921C30.5866 27.2252 30.9156 28.3186 30.9166 29.4368V35.1368H33.4166V29.4535C33.4241 28.1165 33.1045 26.798 32.4858 25.6128C31.867 24.4276 30.9678 23.4117 29.8666 22.6535Z" fill="currentColor"/>
</svg>
