<svg  viewBox="0 0 40 40" >
<path d="M17.1247 23.8917L14.0914 20.6917L12.2747 22.4084L17.2414 27.6584L27.7414 15.0417L25.8247 13.4417L17.1247 23.8917Z" fill="currentColor"/>
<path d="M19.975 2.97501C15.4588 2.97942 11.1289 4.77541 7.93547 7.96883C4.74206 11.1622 2.94606 15.4922 2.94165 20.0083C2.94607 24.523 4.7426 28.8512 7.93649 32.0419C11.1304 35.2327 15.4604 37.025 19.975 37.025C22.214 37.0294 24.432 36.5927 26.5023 35.7399C28.5726 34.8871 30.4546 33.6349 32.0409 32.0548C33.6273 30.4746 34.8868 28.5975 35.7477 26.5306C36.6086 24.4636 37.0539 22.2474 37.0583 20.0083C37.0561 17.7679 36.6124 15.5498 35.7525 13.481C34.8926 11.4121 33.6334 9.53304 32.0468 7.95113C30.4603 6.36922 28.5775 5.11552 26.5061 4.26168C24.4348 3.40784 22.2154 2.97063 19.975 2.97501ZM19.975 34.525C16.1247 34.5206 12.4332 32.9903 9.70913 30.2693C6.98503 27.5483 5.45047 23.8586 5.44165 20.0083C5.44606 16.1552 6.97865 12.4612 9.70323 9.73658C12.4278 7.01201 16.1219 5.47942 19.975 5.47501C23.8281 5.47942 27.5222 7.01201 30.2467 9.73658C32.9713 12.4612 34.5039 16.1552 34.5083 20.0083C34.4995 23.8586 32.9649 27.5483 30.2408 30.2693C27.5167 32.9903 23.8252 34.5206 19.975 34.525Z" fill="currentColor"/>
</svg>
