<svg viewBox="0 0 97 96">
<path d="M60.8567 43.62C59.5407 44.0584 58.324 44.7517 57.276 45.6605C56.228 46.5692 55.3693 47.6755 54.749 48.9161C54.1287 50.1568 53.7589 51.5075 53.6607 52.8911C53.5625 54.2747 53.7378 55.6642 54.1767 56.98C54.8498 59.6973 56.5667 62.0398 58.9552 63.4999C61.3437 64.96 64.2114 65.4199 66.9367 64.78C69.591 63.8771 71.7817 61.963 73.0325 59.4538C74.2834 56.9446 74.4933 54.0431 73.6167 51.38C73.2884 50.0326 72.698 48.7631 71.879 47.6439C71.0601 46.5247 70.0288 45.5778 68.8439 44.8572C67.659 44.1367 66.3438 43.6565 64.9733 43.4442C63.6029 43.2319 62.2041 43.2917 60.8567 43.62ZM66.8967 50.26C67.1816 51.273 67.0559 52.3575 66.5468 53.2784C66.0376 54.1993 65.1861 54.8826 64.1767 55.18C63.1637 55.4649 62.0792 55.3392 61.1583 54.8301C60.2373 54.3209 59.5541 53.4694 59.2567 52.46C58.9718 51.447 59.0975 50.3625 59.6066 49.4416C60.1157 48.5206 60.9673 47.8374 61.9767 47.54C62.9897 47.2551 64.0742 47.3808 64.9951 47.8899C65.916 48.399 66.5992 49.2506 66.8967 50.26Z" fill="currentColor"/>
<path d="M36.6972 43.62C35.3498 43.2917 33.951 43.2319 32.5805 43.4442C31.2101 43.6565 29.8949 44.1367 28.71 44.8572C27.5251 45.5778 26.4938 46.5247 25.6748 47.6439C24.8559 48.7631 24.2655 50.0326 23.9372 51.38C23.0605 54.0431 23.2705 56.9446 24.5213 59.4538C25.7722 61.963 27.9628 63.8771 30.6172 64.78C33.3425 65.4199 36.2102 64.96 38.5987 63.4999C40.9872 62.0398 42.7041 59.6973 43.3772 56.98C43.8161 55.6642 43.9914 54.2747 43.8932 52.8911C43.795 51.5075 43.4252 50.1568 42.8049 48.9161C42.1846 47.6755 41.3259 46.5692 40.2779 45.6605C39.2299 44.7517 38.0132 44.0584 36.6972 43.62ZM38.2972 52.46C37.9998 53.4694 37.3165 54.3209 36.3956 54.8301C35.4746 55.3392 34.3902 55.4649 33.3772 55.18C32.3678 54.8826 31.5162 54.1993 31.0071 53.2784C30.498 52.3575 30.3722 51.273 30.6572 50.26C30.9546 49.2506 31.6378 48.399 32.5588 47.8899C33.4797 47.3808 34.5642 47.2551 35.5772 47.54C36.5866 47.8374 37.4381 48.5206 37.9472 49.4416C38.4564 50.3625 38.5821 51.447 38.2972 52.46Z" fill="currentColor"/>
<path d="M89.377 30.5C89.377 26.8718 87.9357 23.3923 85.3702 20.8268C82.8047 18.2613 79.3252 16.82 75.697 16.82C73.4529 16.8334 71.2465 17.3986 69.2724 18.4659C67.2983 19.5331 65.6171 21.0697 64.377 22.94C59.6285 20.484 54.363 19.195 49.017 19.18C43.4342 19.1634 37.9352 20.5381 33.017 23.18C31.7927 21.2401 30.0988 19.6402 28.0922 18.5286C26.0856 17.4169 23.831 16.8292 21.537 16.82C17.9088 16.82 14.4293 18.2613 11.8638 20.8268C9.29829 23.3923 7.85701 26.8718 7.85701 30.5C7.84197 33.2876 8.68643 36.0121 10.2754 38.3025C11.8644 40.5929 14.1206 42.338 16.737 43.3C15.8349 46.3382 15.3769 49.4908 15.377 52.66C15.377 69.26 27.897 79.18 48.857 79.18C69.817 79.18 82.337 69.26 82.337 52.66C82.3333 49.3934 81.8481 46.1451 80.897 43.02C83.3971 42.0156 85.5401 40.2872 87.051 38.0564C88.5619 35.8256 89.3719 33.1943 89.377 30.5ZM49.097 73.3C38.857 73.3 21.617 70.66 21.617 52.78C21.6276 45.4951 24.5262 38.5116 29.6774 33.3604C34.8286 28.2092 41.8121 25.3106 49.097 25.3C56.3819 25.3106 63.3654 28.2092 68.5166 33.3604C73.6678 38.5116 76.5664 45.4951 76.577 52.78C76.577 70.54 59.377 73.3 49.097 73.3Z" fill="currentColor"/>
<path d="M45.8572 63.5L43.2972 64.26C43.2972 65.7983 43.9083 67.2735 44.996 68.3612C46.0837 69.449 47.559 70.06 49.0972 70.06C50.6355 70.06 52.1107 69.449 53.1985 68.3612C54.2862 67.2735 54.8972 65.7983 54.8972 64.26L52.3372 63.5C50.2248 62.8591 47.9697 62.8591 45.8572 63.5Z" fill="currentColor"/>
</svg>
