<svg  viewBox="0 0 40 40" >
<path d="M19.9834 2.97501C15.4672 2.97942 11.1373 4.77541 7.94389 7.96883C4.75048 11.1622 2.95449 15.4922 2.95007 20.0083C2.95449 24.523 4.75102 28.8512 7.94491 32.0419C11.1388 35.2327 15.4688 37.025 19.9834 37.025C22.2216 37.0294 24.4388 36.5926 26.5082 35.7396C28.5775 34.8866 30.4585 33.6341 32.0435 32.0537C33.6285 30.4734 34.8865 28.5961 35.7455 26.5293C36.6046 24.4625 37.0479 22.2466 37.0501 20.0083C37.0501 17.7687 36.6084 15.551 35.7503 13.4822C34.8922 11.4135 33.6346 9.53427 32.0493 7.95215C30.4641 6.37002 28.5824 5.11605 26.512 4.26201C24.4416 3.40797 22.223 2.97063 19.9834 2.97501ZM19.9834 34.525C16.1332 34.5206 12.4416 32.9903 9.71754 30.2693C6.99344 27.5483 5.45889 23.8586 5.45007 20.0083C5.45448 16.1552 6.98709 12.4612 9.71166 9.73658C12.4362 7.01201 16.1303 5.47942 19.9834 5.47501C23.8336 5.48383 27.5234 7.01836 30.2444 9.74246C32.9654 12.4666 34.4957 16.1581 34.5001 20.0083C34.4957 23.857 32.9648 27.5469 30.2434 30.2683C27.5219 32.9897 23.8321 34.5206 19.9834 34.525Z" fill="currentColor"/>
<path d="M19.9334 27.125C19.6611 27.1208 19.3908 27.1718 19.1387 27.2749C18.8866 27.378 18.6581 27.5311 18.4668 27.725C18.2662 27.9156 18.1077 28.146 18.0015 28.4015C17.8953 28.6569 17.8437 28.9318 17.8501 29.2083C17.845 29.4823 17.8973 29.7543 18.0035 30.0068C18.1097 30.2594 18.2675 30.487 18.4668 30.675C18.6548 30.8743 18.8824 31.0321 19.135 31.1383C19.3875 31.2445 19.6595 31.2967 19.9334 31.2917C20.21 31.298 20.4849 31.2465 20.7403 31.1403C20.9958 31.0341 21.2262 30.8756 21.4168 30.675C21.6106 30.4837 21.7637 30.2551 21.8669 30.0031C21.97 29.751 22.021 29.4807 22.0168 29.2083C22.0232 28.9332 21.9734 28.6597 21.8702 28.4046C21.767 28.1495 21.6127 27.9182 21.4168 27.725C21.2235 27.5291 20.9923 27.3748 20.7372 27.2716C20.4821 27.1684 20.2085 27.1185 19.9334 27.125Z" fill="currentColor"/>
<path d="M19.9667 8.70831C18.5745 8.68264 17.2137 9.12257 16.1 9.95831C14.9988 10.8145 14.1706 11.9727 13.7167 13.2916L16.35 14.3917C16.5108 13.5551 16.9618 12.8021 17.6234 12.2655C18.2851 11.7288 19.1149 11.443 19.9667 11.4583C20.865 11.412 21.7472 11.71 22.4333 12.2917C22.7424 12.5832 22.9844 12.9383 23.1426 13.3326C23.3009 13.7268 23.3717 14.1507 23.35 14.575C23.3592 15.1948 23.1852 15.8036 22.85 16.325C22.2851 17.079 21.6427 17.7716 20.9333 18.3917C20.1674 19.0474 19.5143 19.8244 19 20.6917C18.6576 21.3855 18.4861 22.1513 18.5 22.925V24.3583H21.3667V23.0417C21.4319 22.4135 21.6253 21.8054 21.9349 21.255C22.2445 20.7046 22.6637 20.2236 23.1667 19.8417C24.116 19.0428 24.9318 18.0975 25.5833 17.0416C26.0096 16.2895 26.2336 15.4396 26.2333 14.575C26.2675 13.7994 26.1366 13.0255 25.8493 12.3043C25.562 11.5832 25.1248 10.9312 24.5667 10.3917C23.3153 9.24593 21.662 8.64089 19.9667 8.70831Z" fill="currentColor"/>
</svg>
