<svg viewBox="0 0 97 96">
<path d="M64.2886 89.9974C63.8944 89.9992 63.5039 89.9223 63.1398 89.7712C62.7758 89.6201 62.4456 89.3978 62.1686 89.1174L47.8086 74.7574L33.4486 89.1174C33.1728 89.4004 32.8431 89.6253 32.479 89.7789C32.1149 89.9325 31.7238 90.0116 31.3286 90.0116C30.9334 90.0116 30.5422 89.9325 30.1781 89.7789C29.814 89.6253 29.4844 89.4004 29.2086 89.1174L22.5686 82.5174C22.0068 81.9549 21.6912 81.1924 21.6912 80.3974C21.6912 79.6023 22.0068 78.8399 22.5686 78.2774L36.9286 63.9174L30.9286 57.8774L16.5686 72.2374C16.0061 72.7991 15.2436 73.1147 14.4486 73.1147C13.6536 73.1147 12.8911 72.7991 12.3286 72.2374L5.68859 65.4774C5.12582 64.9153 4.80929 64.1527 4.80859 63.3574C4.87556 62.6477 5.18656 61.9833 5.68859 61.4774L20.0486 47.1174L5.68859 32.6374C5.12679 32.0749 4.81123 31.3124 4.81123 30.5174C4.81123 29.7224 5.12679 28.9599 5.68859 28.3974L12.3286 21.7974C12.6044 21.5143 12.934 21.2894 13.2981 21.1358C13.6622 20.9822 14.0534 20.9031 14.4486 20.9031C14.8438 20.9031 15.2349 20.9822 15.599 21.1358C15.9631 21.2894 16.2928 21.5143 16.5686 21.7974L30.9286 36.1574L36.9286 30.1174L22.5686 15.7574C22.0068 15.1949 21.6912 14.4324 21.6912 13.6374C21.6912 12.8424 22.0068 12.0799 22.5686 11.5174L29.2086 4.87735C29.7711 4.31555 30.5336 4 31.3286 4C32.1236 4 32.8861 4.31555 33.4486 4.87735L47.8086 19.2374L62.1686 4.87735C62.7311 4.31555 63.4936 4 64.2886 4C65.0836 4 65.8461 4.31555 66.4086 4.87735L73.0486 11.5174C73.6114 12.0794 73.9279 12.842 73.9286 13.6374C73.9279 14.4327 73.6114 15.1953 73.0486 15.7574L58.6886 30.1174L64.6886 36.1574L79.0486 21.7974C79.3244 21.5143 79.654 21.2894 80.0181 21.1358C80.3822 20.9822 80.7734 20.9031 81.1686 20.9031C81.5638 20.9031 81.9549 20.9822 82.319 21.1358C82.6832 21.2894 83.0128 21.5143 83.2886 21.7974L89.9286 28.3974C90.4904 28.9599 90.806 29.7224 90.806 30.5174C90.806 31.3124 90.4904 32.0749 89.9286 32.6374L75.5686 46.9974L89.9286 61.4774C90.4904 62.0399 90.806 62.8024 90.806 63.5974C90.806 64.3924 90.4904 65.1549 89.9286 65.7174L83.2886 72.3574C82.7163 72.9004 81.9575 73.2031 81.1686 73.2031C80.3797 73.2031 79.6209 72.9004 79.0486 72.3574L64.6886 57.8774L58.6886 63.9174L73.0486 78.2774C73.6104 78.8399 73.926 79.6023 73.926 80.3974C73.926 81.1924 73.6104 81.9549 73.0486 82.5174L66.4086 89.1174C66.1316 89.3978 65.8014 89.6201 65.4374 89.7712C65.0733 89.9223 64.6828 89.9992 64.2886 89.9974ZM47.8086 67.5174C48.6006 67.5346 49.3572 67.8487 49.9286 68.3974L64.2886 82.7574L66.6886 80.3974L52.3286 66.0374C52.0456 65.7616 51.8206 65.4319 51.667 65.0678C51.5134 64.7037 51.4343 64.3125 51.4343 63.9174C51.4343 63.5222 51.5134 63.131 51.667 62.7669C51.8206 62.4028 52.0456 62.0731 52.3286 61.7974L62.5686 51.5174C63.1311 50.9556 63.8936 50.64 64.6886 50.64C65.4836 50.64 66.2461 50.9556 66.8086 51.5174L81.1686 65.8774L83.5686 63.4774L69.2086 49.1174C68.6468 48.5549 68.3312 47.7924 68.3312 46.9974C68.3312 46.2024 68.6468 45.4399 69.2086 44.8774L83.5686 30.5174L81.1686 28.1574L66.8086 42.5174C66.2461 43.0792 65.4836 43.3947 64.6886 43.3947C63.8936 43.3947 63.1311 43.0792 62.5686 42.5174L52.3286 32.2374C51.7658 31.6753 51.4493 30.9127 51.4486 30.1174C51.4493 29.322 51.7658 28.5594 52.3286 27.9974L66.6886 13.4774L64.2886 11.0774L49.9286 25.4774C49.6528 25.7604 49.3231 25.9853 48.959 26.1389C48.5949 26.2925 48.2038 26.3716 47.8086 26.3716C47.4134 26.3716 47.0223 26.2925 46.6581 26.1389C46.294 25.9853 45.9644 25.7604 45.6886 25.4774L31.3286 11.2374L28.9286 13.6374L43.2886 27.9974C43.5716 28.2731 43.7966 28.6028 43.9502 28.9669C44.1037 29.331 44.1829 29.7222 44.1829 30.1174C44.1829 30.5125 44.1037 30.9037 43.9502 31.2678C43.7966 31.6319 43.5716 31.9616 43.2886 32.2374L33.0486 42.5174C32.4763 43.0604 31.7175 43.3631 30.9286 43.3631C30.1397 43.3631 29.3809 43.0604 28.8086 42.5174L14.4486 28.1574L12.0486 30.5174L26.4086 44.8774C26.9641 45.4442 27.2794 46.2037 27.2886 46.9974C27.2879 47.7927 26.9714 48.5553 26.4086 49.1174L12.0486 63.4774L14.4486 65.8774L28.8086 51.5174C29.3711 50.9556 30.1336 50.64 30.9286 50.64C31.7236 50.64 32.4861 50.9556 33.0486 51.5174L43.2886 61.7974C43.5716 62.0731 43.7966 62.4028 43.9502 62.7669C44.1037 63.131 44.1829 63.5222 44.1829 63.9174C44.1829 64.3125 44.1037 64.7037 43.9502 65.0678C43.7966 65.4319 43.5716 65.7616 43.2886 66.0374L28.9286 80.3974L31.3286 82.7574L45.6886 68.3974C46.26 67.8487 47.0166 67.5346 47.8086 67.5174ZM47.8086 60.2774C47.4144 60.2792 47.0239 60.2023 46.6598 60.0512C46.2958 59.9001 45.9656 59.6778 45.6886 59.3974L35.4086 49.1174C34.8468 48.5549 34.5312 47.7924 34.5312 46.9974C34.5312 46.2024 34.8468 45.4399 35.4086 44.8774L45.6886 34.6374C46.2511 34.0756 47.0136 33.76 47.8086 33.76C48.6036 33.76 49.3661 34.0756 49.9286 34.6374L60.2086 44.8774C60.7714 45.4394 61.0879 46.202 61.0886 46.9974C61.0879 47.7927 60.7714 48.5553 60.2086 49.1174L49.9286 59.3974C49.6516 59.6778 49.3214 59.9001 48.9574 60.0512C48.5933 60.2023 48.2028 60.2792 47.8086 60.2774ZM41.8086 46.9974L47.8086 53.0374L53.8086 46.9974L47.8086 40.9974L41.8086 46.9974Z" fill="currentColor"/>
</svg>
