<svg  viewBox="0 0 40 40" >
<path d="M33.1 6.53333H6.90003C6.09689 6.5377 5.32789 6.85869 4.75998 7.4266C4.19206 7.99452 3.87108 8.76352 3.8667 9.56666V10.6167C3.87108 11.4198 4.19206 12.1888 4.75998 12.7567C5.32789 13.3246 6.09689 13.6456 6.90003 13.65H33.1C33.9032 13.6456 34.6722 13.3246 35.2401 12.7567C35.808 12.1888 36.129 11.4198 36.1334 10.6167V9.56666C36.129 8.76352 35.808 7.99452 35.2401 7.4266C34.6722 6.85869 33.9032 6.5377 33.1 6.53333ZM33.6334 10.6167C33.6334 10.7581 33.5772 10.8938 33.4772 10.9938C33.3771 11.0938 33.2415 11.15 33.1 11.15H6.90003C6.75858 11.15 6.62293 11.0938 6.52291 10.9938C6.42289 10.8938 6.3667 10.7581 6.3667 10.6167V9.56666C6.3667 9.42521 6.42289 9.28955 6.52291 9.18953C6.62293 9.08952 6.75858 9.03333 6.90003 9.03333H33.1C33.2415 9.03333 33.3771 9.08952 33.4772 9.18953C33.5772 9.28955 33.6334 9.42521 33.6334 9.56666V10.6167Z" fill="currentColor"/>
<path d="M33.1 16.45H6.90003C6.09842 16.45 5.3294 16.7673 4.76101 17.3325C4.19263 17.8978 3.8711 18.6651 3.8667 19.4667V20.5333C3.8711 21.3349 4.19263 22.1022 4.76101 22.6674C5.3294 23.2327 6.09842 23.55 6.90003 23.55H33.1C33.9016 23.55 34.6707 23.2327 35.2391 22.6674C35.8074 22.1022 36.129 21.3349 36.1334 20.5333V19.4667C36.129 18.6651 35.8074 17.8978 35.2391 17.3325C34.6707 16.7673 33.9016 16.45 33.1 16.45ZM33.6334 20.5333C33.6334 20.6026 33.6195 20.6712 33.5925 20.735C33.5655 20.7988 33.526 20.8565 33.4762 20.9047C33.4264 20.9529 33.3675 20.9906 33.3029 21.0156C33.2383 21.0405 33.1693 21.0522 33.1 21.05H6.90003C6.83079 21.0522 6.76181 21.0405 6.69719 21.0156C6.63257 20.9906 6.57363 20.9529 6.52387 20.9047C6.47412 20.8565 6.43456 20.7988 6.40756 20.735C6.38056 20.6712 6.36666 20.6026 6.3667 20.5333V19.4667C6.36666 19.3974 6.38056 19.3288 6.40756 19.265C6.43456 19.2012 6.47412 19.1435 6.52387 19.0953C6.57363 19.0471 6.63257 19.0094 6.69719 18.9844C6.76181 18.9595 6.83079 18.9478 6.90003 18.95H33.1C33.1693 18.9478 33.2383 18.9595 33.3029 18.9844C33.3675 19.0094 33.4264 19.0471 33.4762 19.0953C33.526 19.1435 33.5655 19.2012 33.5925 19.265C33.6195 19.3288 33.6334 19.3974 33.6334 19.4667V20.5333Z" fill="currentColor"/>
<path d="M33.1 26.35H6.90003C6.09689 26.3544 5.32789 26.6754 4.75998 27.2433C4.19206 27.8112 3.87108 28.5802 3.8667 29.3833V30.4333C3.87108 31.2365 4.19206 32.0055 4.75998 32.5734C5.32789 33.1413 6.09689 33.4623 6.90003 33.4667H33.1C33.9032 33.4623 34.6722 33.1413 35.2401 32.5734C35.808 32.0055 36.129 31.2365 36.1334 30.4333V29.3833C36.129 28.5802 35.808 27.8112 35.2401 27.2433C34.6722 26.6754 33.9032 26.3544 33.1 26.35ZM33.6334 30.4333C33.6334 30.5748 33.5772 30.7104 33.4772 30.8105C33.3771 30.9105 33.2415 30.9667 33.1 30.9667H6.90003C6.75858 30.9667 6.62293 30.9105 6.52291 30.8105C6.42289 30.7104 6.3667 30.5748 6.3667 30.4333V29.3833C6.3667 29.2419 6.42289 29.1062 6.52291 29.0062C6.62293 28.9062 6.75858 28.85 6.90003 28.85H33.1C33.2415 28.85 33.3771 28.9062 33.4772 29.0062C33.5772 29.1062 33.6334 29.2419 33.6334 29.3833V30.4333Z" fill="currentColor"/>
</svg>
