<svg viewBox="0 0 97 97">
<path d="M48.7282 12.7217C28.7282 12.7217 7.88818 18.4017 7.88818 29.4417C7.91538 29.9924 7.98221 30.5405 8.08818 31.0817H7.88818V68.0017C7.88818 79.0417 28.7282 84.7217 48.7282 84.7217C68.7282 84.7217 89.7282 78.9617 89.7282 67.9217V29.4417C89.8882 18.4017 69.2482 12.7217 48.7282 12.7217ZM48.7282 18.7217C70.0882 18.7217 83.7282 25.1217 83.7282 29.5217C83.7282 33.9217 70.2482 40.2417 48.7282 40.2417C27.2082 40.2417 13.7282 33.8417 13.7282 29.4417C13.7282 25.0417 27.5282 18.6417 48.7282 18.6417V18.7217ZM48.7282 78.7217C27.3682 78.7217 13.7282 72.3217 13.7282 67.9217V38.6017C21.3282 43.6417 35.0882 46.2417 48.7282 46.2417C62.3682 46.2417 76.1282 43.6417 83.7282 38.6017V68.0017C83.8882 72.4017 70.2482 78.8017 48.7282 78.8017V78.7217Z" fill="currentColor"/>
<path d="M48.7279 34.5617C56.7279 34.5617 62.8479 32.2817 62.8479 29.4417C62.8479 26.6017 56.7279 24.2817 48.7279 24.2817C40.7279 24.2817 34.6079 26.6017 34.6079 29.4417C34.6079 32.2817 41.0879 34.5617 48.7279 34.5617Z" fill="currentColor"/>
</svg>
