<svg  viewBox="0 0 40 40" >
<path d="M35.9903 34.5666L29.2069 27.7833C31.6435 24.8913 32.8688 21.1699 32.6271 17.396C32.3854 13.6221 30.6954 10.0875 27.9098 7.52988C25.1243 4.97229 21.4585 3.58947 17.6777 3.67008C13.897 3.7507 10.2935 5.28852 7.6195 7.96252C4.9455 10.6365 3.40768 14.24 3.32707 18.0208C3.24645 21.8015 4.62927 25.4673 7.18686 28.2528C9.74444 31.0384 13.2791 32.7284 17.053 32.9701C20.8269 33.2118 24.5482 31.9865 27.4403 29.55L34.2236 36.3333L35.9903 34.5666ZM18.0236 30.5C15.6239 30.5 13.278 29.7884 11.2827 28.4551C9.28738 27.1219 7.73222 25.2269 6.81387 23.0099C5.89553 20.7928 5.65525 18.3532 6.12342 15.9995C6.59159 13.6459 7.74717 11.4839 9.44405 9.78707C11.1409 8.09019 13.3029 6.9346 15.6565 6.46644C18.0102 5.99827 20.4498 6.23855 22.6668 7.15689C24.8839 8.07524 26.7789 9.6304 28.1121 11.6257C29.4453 13.621 30.1569 15.9669 30.1569 18.3666C30.1525 21.5832 28.8728 24.6668 26.5983 26.9413C24.3238 29.2158 21.2402 30.4956 18.0236 30.5Z" fill="currentColor"/>
</svg>
