<svg  viewBox="0 0 40 40" >
<path d="M20 35.8334C19.6684 35.8334 19.3505 35.7017 19.1161 35.4673C18.8817 35.2328 18.75 34.9149 18.75 34.5834C18.75 31.0472 17.3452 27.6558 14.8447 25.1553C12.3442 22.6548 8.95285 21.2501 5.41663 21.2501C5.08645 21.2458 4.77101 21.1127 4.53752 20.8792C4.30402 20.6457 4.17094 20.3303 4.16663 20.0001C4.16663 19.6686 4.29834 19.3506 4.53276 19.1162C4.76718 18.8818 5.08511 18.7501 5.41663 18.7501C8.95285 18.7501 12.3442 17.3453 14.8447 14.8448C17.3452 12.3443 18.75 8.95297 18.75 5.41675C18.7543 5.08657 18.8874 4.77113 19.1208 4.53764C19.3543 4.30415 19.6698 4.17106 20 4.16675C20.3301 4.17106 20.6456 4.30415 20.8791 4.53764C21.1126 4.77113 21.2456 5.08657 21.25 5.41675C21.25 8.95297 22.6547 12.3443 25.1552 14.8448C27.6557 17.3453 31.0471 18.7501 34.5833 18.7501C34.9148 18.7501 35.2328 18.8818 35.4672 19.1162C35.7016 19.3506 35.8333 19.6686 35.8333 20.0001C35.829 20.3303 35.6959 20.6457 35.4624 20.8792C35.2289 21.1127 34.9135 21.2458 34.5833 21.2501C31.0471 21.2501 27.6557 22.6548 25.1552 25.1553C22.6547 27.6558 21.25 31.0472 21.25 34.5834C21.25 34.9149 21.1183 35.2328 20.8839 35.4673C20.6494 35.7017 20.3315 35.8334 20 35.8334ZM11.6666 20.0667C15.4152 21.6658 18.4009 24.6515 20 28.4C21.5991 24.6515 24.5847 21.6658 28.3333 20.0667C24.5906 18.4589 21.6077 15.4761 20 11.7334C18.3772 15.4696 15.3824 18.4406 11.6333 20.0334L11.6666 20.0667Z" fill="currentColor"/>
</svg>
