<svg  viewBox="0 0 40 40" >
<path d="M19.9916 9.73338C17.27 9.73779 14.6612 10.8209 12.7368 12.7453C10.8124 14.6697 9.7293 17.2785 9.72489 20C9.7293 22.7216 10.8124 25.3304 12.7368 27.2548C14.6612 29.1792 17.27 30.2623 19.9916 30.2667C22.7145 30.2667 25.3258 29.185 27.2512 27.2597C29.1766 25.3343 30.2582 22.7229 30.2582 20C30.2582 17.2772 29.1766 14.6658 27.2512 12.7404C25.3258 10.815 22.7145 9.73338 19.9916 9.73338ZM19.9916 27.7667C17.9317 27.7667 15.9562 26.9484 14.4997 25.4919C13.0432 24.0354 12.2249 22.0599 12.2249 20C12.2249 17.9402 13.0432 15.9647 14.4997 14.5082C15.9562 13.0517 17.9317 12.2334 19.9916 12.2334C22.0456 12.2422 24.0125 13.0644 25.4619 14.5199C26.9112 15.9755 27.7249 17.946 27.7249 20C27.7249 22.0541 26.9112 24.0246 25.4619 25.4802C24.0125 26.9357 22.0456 27.7579 19.9916 27.7667Z" fill="currentColor"/>
<path d="M21.2585 3.09998H18.7585V7.6H21.2585V3.09998Z" fill="currentColor"/>
<path d="M21.2585 32.4H18.7585V36.9H21.2585V32.4Z" fill="currentColor"/>
<path d="M36.8917 18.75H32.3917V21.25H36.8917V18.75Z" fill="currentColor"/>
<path d="M7.6083 18.75H3.10828V21.25H7.6083V18.75Z" fill="currentColor"/>
<path d="M31.077 7.17703L27.8951 10.359L29.6628 12.1268L32.8448 8.9448L31.077 7.17703Z" fill="currentColor"/>
<path d="M10.3483 27.9033L7.1663 31.0853L8.93407 32.8531L12.1161 29.6711L10.3483 27.9033Z" fill="currentColor"/>
<path d="M29.6498 27.8809L27.882 29.6486L31.064 32.8306L32.8318 31.0629L29.6498 27.8809Z" fill="currentColor"/>
<path d="M8.91463 7.14926L7.14718 8.91734L10.3297 12.0988L12.0972 10.3307L8.91463 7.14926Z" fill="currentColor"/>
</svg>
