<svg  viewBox="0 0 40 40" >
<path d="M9.23338 34.7584V29.325H8.50005C7.11939 29.3206 5.79679 28.7691 4.82208 27.7912C3.84737 26.8134 3.30004 25.489 3.30005 24.1084V10.4417C3.30005 9.06257 3.8479 7.73993 4.82309 6.76474C5.79828 5.78955 7.12092 5.2417 8.50005 5.2417H31.4834C32.864 5.24169 34.1884 5.78902 35.1662 6.76373C36.1441 7.73844 36.6956 9.06104 36.7001 10.4417V24.1084C36.7001 25.4919 36.1504 26.8188 35.1721 27.7971C34.1938 28.7754 32.8669 29.325 31.4834 29.325H18.15L9.23338 34.7584ZM8.50005 7.7417C7.78531 7.74607 7.10109 8.03194 6.59569 8.53734C6.09029 9.04275 5.80442 9.72696 5.80005 10.4417V24.1084C5.80004 24.826 6.08397 25.5145 6.58984 26.0235C7.09572 26.5325 7.78244 26.8206 8.50005 26.825H11.7334V30.2917L17.3834 26.825H31.4667C32.1872 26.825 32.8782 26.5388 33.3877 26.0293C33.8972 25.5199 34.1834 24.8289 34.1834 24.1084V10.4417C34.179 9.72409 33.8908 9.03737 33.3818 8.53149C32.8728 8.02562 32.1843 7.74169 31.4667 7.7417H8.50005Z" fill="currentColor"/>
</svg>
