<svg viewBox="0 0 96 97">
<path d="M59.454 62.4048C51.7933 58.1876 42.8037 57.0791 34.3481 59.3092C33.8742 59.459 33.3869 59.5627 32.8931 59.6187C32.6451 59.6228 32.3987 59.578 32.1681 59.4869C31.9374 59.3958 31.7269 59.2601 31.5487 59.0876C31.3704 58.9151 31.2279 58.7092 31.1293 58.4817C31.0307 58.2541 30.9778 58.0093 30.9738 57.7613C30.9447 57.2778 31.0966 56.8008 31.3999 56.4232C31.7032 56.0455 32.1361 55.7942 32.6145 55.7182C42.5826 53.5512 52.7364 53.737 61.4042 58.8139C61.7825 58.9915 62.0993 59.2778 62.3143 59.6361C62.5293 59.9945 62.6328 60.4087 62.6116 60.826C62.6116 61.07 62.5635 61.3115 62.4702 61.5368C62.3768 61.7622 62.24 61.967 62.0675 62.1394C61.8951 62.3119 61.6903 62.4487 61.465 62.5421C61.2396 62.6354 60.9981 62.6835 60.7542 62.6835C60.3026 62.7231 59.8496 62.626 59.454 62.4048Z" fill="currentColor"/>
<path d="M43.4803 44.5738C51.0694 44.447 58.5533 46.3607 65.15 50.115C65.5842 50.3369 65.9443 50.6805 66.1863 51.1039C66.4282 51.5272 66.5414 52.012 66.5121 52.4987C66.5163 52.8088 66.4583 53.1166 66.3415 53.4039C66.2247 53.6913 66.0516 53.9523 65.8323 54.1716C65.613 54.3909 65.352 54.564 65.0646 54.6808C64.7773 54.7976 64.4695 54.8556 64.1594 54.8514C63.6298 54.8164 63.1181 54.6458 62.6735 54.3561C53.8254 49.476 43.438 48.19 33.667 50.7651C33.2105 50.9444 32.7312 51.059 32.243 51.1056C31.6215 51.0976 31.0277 50.8472 30.5883 50.4077C30.1488 49.9682 29.8983 49.3744 29.8903 48.7529C29.8469 48.1734 30.0139 47.5976 30.3608 47.1313C30.7077 46.6651 31.2111 46.3395 31.7787 46.2145C35.5772 45.0948 39.5203 44.5419 43.4803 44.5738Z" fill="currentColor"/>
<path d="M29.8284 36.0916C34.4743 34.8041 39.2787 34.1788 44.0994 34.2342C52.7744 34.0365 61.3583 36.0386 69.0506 40.0541C69.6244 40.3563 70.0822 40.8397 70.3528 41.429C70.6234 42.0184 70.6916 42.6806 70.5469 43.3128C70.4021 43.9449 70.0524 44.5115 69.5522 44.9243C69.0521 45.3371 68.4295 45.573 67.7813 45.5953C67.2228 45.5858 66.6773 45.4254 66.2025 45.131C57.5656 39.9612 42.0872 38.7229 32.0882 41.54C31.5899 41.7174 31.0686 41.8216 30.5404 41.8496C30.1652 41.8537 29.793 41.7829 29.4456 41.6412C29.0982 41.4996 28.7826 41.2899 28.5173 41.0246C28.252 40.7594 28.0424 40.4437 27.9007 40.0963C27.7591 39.7489 27.6882 39.3767 27.6924 39.0016C27.6574 38.3444 27.8511 37.6955 28.2405 37.165C28.6299 36.6345 29.191 36.2552 29.8284 36.0916Z" fill="currentColor"/>
<path d="M48 81.0718C41.576 81.0718 35.2963 79.1664 29.9554 75.5968C24.6145 72.0272 20.4523 66.9537 17.9953 61.0181C15.5384 55.0825 14.8971 48.5516 16.1526 42.2515C17.4081 35.9513 20.504 30.1652 25.0486 25.6249C29.5932 21.0846 35.3824 17.9942 41.6837 16.7447C47.985 15.4952 54.5153 16.1427 60.4486 18.6053C66.3818 21.0679 71.4513 25.235 75.0159 30.5793C78.5804 35.9236 80.4797 42.2051 80.4736 48.6291C80.4654 57.2363 77.0404 65.4881 70.9514 71.5714C64.8623 77.6547 56.6072 81.0718 48 81.0718ZM48 20.799C42.4896 20.799 37.1029 22.433 32.5212 25.4944C27.9395 28.5558 24.3685 32.9071 22.2597 37.9981C20.151 43.089 19.5992 48.691 20.6743 54.0955C21.7493 59.5 24.4028 64.4644 28.2992 68.3608C32.1957 72.2572 37.16 74.9107 42.5646 75.9858C47.9691 77.0608 53.571 76.5091 58.6619 74.4003C63.7529 72.2916 68.1042 68.7206 71.1656 64.1388C74.227 59.5571 75.861 54.1705 75.861 48.6601C75.861 41.2708 72.9257 34.1843 67.7007 28.9593C62.4758 23.7343 55.3892 20.799 48 20.799Z" fill="currentColor"/>
</svg>
