<svg  viewBox="0 0 40 40" >
<path d="M28.4998 26.5C27.1204 26.5021 25.7973 27.0469 24.8164 28.0167L16.4831 21.5667C16.4831 21.4667 16.4831 21.3834 16.4831 21.3L16.5831 20.8834C16.642 20.5755 16.6754 20.2633 16.6831 19.95C16.6745 19.6368 16.6411 19.3247 16.5831 19.0167L16.4831 18.6C16.4831 18.6 16.4831 18.4334 16.4831 18.35L24.8164 11.8833C25.7973 12.8531 27.1204 13.398 28.4998 13.4C29.8908 13.3956 31.2236 12.8411 32.2072 11.8575C33.1908 10.8739 33.7454 9.54105 33.7498 8.15002C33.741 6.76188 33.1845 5.43333 32.2014 4.45331C31.2182 3.47329 29.8879 2.92105 28.4998 2.91669C27.1043 2.92108 25.7673 3.47738 24.7805 4.46412C23.7938 5.45086 23.2375 6.7879 23.2331 8.18336C23.2322 8.75097 23.3281 9.31458 23.5164 9.85003L15.1831 16.25C14.2005 15.2848 12.8771 14.7458 11.4998 14.75C10.1074 14.75 8.77201 15.3031 7.78745 16.2877C6.80288 17.2723 6.24976 18.6076 6.24976 20C6.26293 21.3837 6.82187 22.7063 7.80501 23.68C8.78815 24.6538 10.116 25.2001 11.4998 25.2C12.8771 25.2042 14.2005 24.6652 15.1831 23.7L23.5164 30.1667C23.3281 30.7021 23.2322 31.2657 23.2331 31.8333C23.2375 33.2273 23.7943 34.5626 24.7815 35.5467C25.7688 36.5308 27.1058 37.0834 28.4998 37.0834C29.1892 37.0834 29.8719 36.9476 30.5088 36.6837C31.1458 36.4199 31.7246 36.0332 32.2121 35.5457C32.6996 35.0582 33.0863 34.4794 33.3501 33.8424C33.614 33.2055 33.7498 32.5228 33.7498 31.8333C33.7586 31.1375 33.6294 30.4469 33.3697 29.8013C33.11 29.1557 32.725 28.5679 32.2368 28.072C31.7486 27.5761 31.167 27.1818 30.5256 26.912C29.8842 26.6422 29.1956 26.5022 28.4998 26.5ZM28.4998 5.38336C28.8623 5.38335 29.2213 5.45503 29.556 5.59427C29.8907 5.73352 30.1946 5.93757 30.4502 6.19469C30.7058 6.45182 30.908 6.75695 31.0452 7.09252C31.1824 7.42809 31.252 7.78748 31.2498 8.15002C31.2498 8.87936 30.96 9.57884 30.4443 10.0946C29.9286 10.6103 29.2291 10.9 28.4998 10.9C27.7689 10.9 27.0677 10.6108 26.5493 10.0956C26.0309 9.58033 25.7375 8.88089 25.7331 8.15002C25.7331 7.41625 26.0246 6.71254 26.5434 6.19369C27.0623 5.67484 27.766 5.38336 28.4998 5.38336ZM11.4998 22.7C10.7704 22.7 10.0709 22.4103 9.55521 21.8946C9.03949 21.3788 8.74976 20.6794 8.74976 19.95C8.74976 19.2207 9.03949 18.5212 9.55521 18.0055C10.0709 17.4898 10.7704 17.2 11.4998 17.2C11.9772 17.2017 12.4461 17.3269 12.8608 17.5635C13.2755 17.8 13.622 18.1399 13.8664 18.55C13.9794 18.756 14.0688 18.974 14.1331 19.2C14.199 19.4218 14.2326 19.652 14.2331 19.8834C14.2326 20.1147 14.199 20.3449 14.1331 20.5667C14.0733 20.7969 13.9777 21.0162 13.8498 21.2167C13.6279 21.6526 13.2924 22.0205 12.8788 22.2816C12.4652 22.5427 11.9887 22.6872 11.4998 22.7ZM28.4998 34.5834C27.7689 34.5834 27.0677 34.2942 26.5493 33.7789C26.0309 33.2637 25.7375 32.5642 25.7331 31.8333C25.7331 31.0996 26.0246 30.3959 26.5434 29.877C27.0623 29.3582 27.766 29.0667 28.4998 29.0667C28.8623 29.0667 29.2213 29.1384 29.556 29.2776C29.8907 29.4168 30.1946 29.6209 30.4502 29.878C30.7058 30.1352 30.908 30.4403 31.0452 30.7759C31.1824 31.1114 31.252 31.4708 31.2498 31.8333C31.2498 32.5627 30.96 33.2622 30.4443 33.7779C29.9286 34.2936 29.2291 34.5834 28.4998 34.5834Z" fill="currentColor"/>
</svg>
