<svg  viewBox="0 0 40 40" >
<path d="M20.0513 7.50011C17.5764 7.48994 15.1541 8.21474 13.0914 9.58263C11.0288 10.9505 9.41867 12.8999 8.46507 15.1839C7.51148 17.4678 7.25735 19.9834 7.73489 22.4118C8.21243 24.8403 9.40015 27.0724 11.1475 28.8252C12.8949 30.578 15.1233 31.7726 17.5503 32.2576C19.9773 32.7426 22.4937 32.4963 24.7805 31.5498C27.0674 30.6032 29.0217 28.9991 30.396 26.9407C31.7702 24.8823 32.5025 22.4623 32.5 19.9873C32.5 16.6821 31.1897 13.5118 28.8562 11.1711C26.5227 8.8304 23.3565 7.5103 20.0513 7.50011ZM25.1206 25.8779C24.927 25.8736 24.7391 25.811 24.5816 25.6983C21.4021 23.9613 17.6798 23.5023 14.1735 24.4149C13.9814 24.4768 13.7837 24.5198 13.5832 24.5432C13.4793 24.5449 13.3761 24.5259 13.2796 24.4874C13.1832 24.4488 13.0953 24.3914 13.0213 24.3185C12.9472 24.2457 12.8884 24.1588 12.8483 24.0629C12.8081 23.9671 12.7875 23.8643 12.7875 23.7604C12.7724 23.5593 12.8343 23.36 12.9605 23.2027C13.0868 23.0455 13.2681 22.9421 13.4677 22.9134C17.5873 22.0022 21.8095 22.0792 25.403 24.1967C25.5596 24.2695 25.6903 24.3883 25.7774 24.5374C25.8646 24.6865 25.9041 24.8587 25.8907 25.0309C25.8907 25.1314 25.8707 25.231 25.8318 25.3237C25.793 25.4164 25.736 25.5004 25.6644 25.5709C25.5927 25.6414 25.5077 25.6969 25.4143 25.7342C25.321 25.7715 25.2211 25.7898 25.1206 25.7881V25.8779ZM26.481 22.5797C26.2565 22.5601 26.0405 22.4852 25.8521 22.3615C22.1867 20.3435 17.8848 19.8149 13.8398 20.8856C13.6515 20.9652 13.4527 21.0171 13.2495 21.0396C13.0078 21.0217 12.7803 20.9189 12.6071 20.7494C12.434 20.5799 12.3264 20.3546 12.3033 20.1134C12.2803 19.8722 12.3433 19.6306 12.4812 19.4313C12.6191 19.2321 12.8231 19.0881 13.057 19.0247C14.6561 18.55 16.3171 18.3164 17.9851 18.3317C21.1056 18.2905 24.1804 19.0836 26.8917 20.629C27.073 20.7204 27.2241 20.8623 27.3265 21.0377C27.429 21.213 27.4785 21.4143 27.4692 21.6171C27.4675 21.7452 27.4406 21.8717 27.3901 21.9894C27.3395 22.1071 27.2662 22.2137 27.1745 22.3031C27.0827 22.3925 26.9742 22.4629 26.8552 22.5104C26.7363 22.5578 26.6091 22.5814 26.481 22.5797ZM28.0339 18.7296C27.8067 18.7233 27.5853 18.6569 27.3922 18.5371C23.7988 16.3938 17.3948 15.8805 13.2752 17.0355C13.0645 17.1123 12.8442 17.1598 12.6206 17.1767C12.4651 17.1767 12.3111 17.1457 12.1677 17.0854C12.0243 17.0251 11.8944 16.9368 11.7856 16.8256C11.6768 16.7144 11.5914 16.5826 11.5342 16.438C11.477 16.2933 11.4494 16.1387 11.4528 15.9832C11.44 15.7129 11.5194 15.4464 11.6779 15.2272C11.8365 15.008 12.0648 14.8492 12.3255 14.7768C14.2517 14.2439 16.2433 13.9847 18.2418 14.0068C21.8385 13.9214 25.3979 14.7517 28.5857 16.4195C28.7921 16.5665 28.9504 16.7712 29.0406 17.008C29.1308 17.2447 29.1489 17.5029 29.0926 17.7499C29.0363 17.997 28.9082 18.2218 28.7244 18.3961C28.5405 18.5705 28.3092 18.6865 28.0595 18.7296H28.0339Z" fill="currentColor"/>
</svg>
