<svg  viewBox="0 0 40 40" >
<path d="M23.3667 37.0668H16.85C16.5185 37.0668 16.2006 36.9351 15.9661 36.7007C15.7317 36.4662 15.6 36.1483 15.6 35.8168V31.9335L14.8834 31.6501L12.15 34.3835C11.9157 34.6175 11.5979 34.749 11.2667 34.749C10.9354 34.749 10.6177 34.6175 10.3834 34.3835L5.75003 29.7668C5.51595 29.5324 5.38447 29.2147 5.38447 28.8834C5.38447 28.5522 5.51595 28.2345 5.75003 28.0001L8.23337 25.5335C8.0667 25.2001 7.90003 24.8835 7.7667 24.5501H4.33337C4.00185 24.5501 3.6839 24.4184 3.44948 24.184C3.21506 23.9496 3.08337 23.6317 3.08337 23.3001V16.7668C3.08112 16.602 3.11192 16.4384 3.17395 16.2858C3.23597 16.1331 3.32796 15.9944 3.44449 15.8779C3.56101 15.7614 3.6997 15.6694 3.85237 15.6074C4.00504 15.5453 4.16859 15.5145 4.33337 15.5168H7.2167C7.3669 15.0183 7.54496 14.5286 7.75003 14.0501L5.75003 12.0501C5.51595 11.8158 5.38447 11.4981 5.38447 11.1668C5.38447 10.8356 5.51595 10.5178 5.75003 10.2835L10.3834 5.66677C10.4983 5.54884 10.6356 5.45514 10.7873 5.39115C10.9391 5.32715 11.102 5.29415 11.2667 5.29415C11.4314 5.29415 11.5943 5.32715 11.7461 5.39115C11.8978 5.45514 12.0351 5.54884 12.15 5.66677L13.8167 7.33344C14.3557 7.0482 14.9124 6.79772 15.4834 6.58347V4.18346C15.4834 3.85194 15.6151 3.53399 15.8495 3.29957C16.0839 3.06515 16.4018 2.93346 16.7334 2.93346H23.2667C23.4315 2.93122 23.595 2.96203 23.7477 3.02405C23.9004 3.08607 24.0391 3.17807 24.1556 3.29459C24.2721 3.41111 24.3641 3.54979 24.4261 3.70246C24.4881 3.85513 24.5189 4.01869 24.5167 4.18346V6.66678C25.09 6.87533 25.6471 7.12603 26.1834 7.4168L27.85 5.75013C27.9649 5.63221 28.1023 5.53846 28.254 5.47446C28.4057 5.41046 28.5687 5.37751 28.7334 5.37751C28.898 5.37751 29.061 5.41046 29.2127 5.47446C29.3644 5.53846 29.5018 5.63221 29.6167 5.75013L34.2334 10.3668C34.4675 10.6012 34.5989 10.9189 34.5989 11.2501C34.5989 11.5814 34.4675 11.8991 34.2334 12.1334L32.25 14.1335C32.4496 14.6123 32.6221 15.1019 32.7667 15.6001H35.6667C35.9982 15.6001 36.3162 15.7318 36.5506 15.9662C36.785 16.2007 36.9167 16.5186 36.9167 16.8501V23.3334C36.9124 23.6636 36.7793 23.9791 36.5458 24.2126C36.3123 24.446 35.9969 24.5791 35.6667 24.5834H32.2334C32.0834 24.9168 31.9334 25.2334 31.7667 25.5668L34.2334 28.0335C34.4675 28.2678 34.5989 28.5855 34.5989 28.9168C34.5989 29.248 34.4675 29.5657 34.2334 29.8001L29.6167 34.4168C29.3823 34.6509 29.0646 34.7824 28.7334 34.7824C28.4021 34.7824 28.0844 34.6509 27.85 34.4168L25.3334 31.6668L24.6167 31.9501V35.8334C24.6167 35.9968 24.5843 36.1586 24.5212 36.3093C24.4582 36.46 24.3659 36.5967 24.2496 36.7115C24.1333 36.8262 23.9954 36.9167 23.8438 36.9777C23.6922 37.0387 23.5301 37.069 23.3667 37.0668ZM18.0834 34.5668H22.1167V31.0168C22.1177 30.7441 22.2079 30.4794 22.3734 30.2627C22.5388 30.0461 22.7706 29.8895 23.0334 29.8168C23.7297 29.6227 24.4052 29.3603 25.05 29.0335C25.2823 28.9131 25.5471 28.8708 25.8053 28.9128C26.0635 28.9549 26.3013 29.079 26.4834 29.2668L28.9667 31.7335L31.8167 28.8834L29.55 26.6668C29.348 26.4671 29.2211 26.2038 29.1908 25.9214C29.1604 25.639 29.2284 25.3548 29.3834 25.1168C29.8162 24.4318 30.1685 23.6992 30.4334 22.9335C30.5198 22.689 30.6801 22.4774 30.8922 22.3281C31.1042 22.1788 31.3574 22.0991 31.6167 22.1001H34.65V18.0668H32.0334C31.7446 18.0656 31.4649 17.9659 31.2406 17.784C31.0163 17.6022 30.8608 17.3491 30.8 17.0668C30.6121 16.1394 30.298 15.2423 29.8667 14.4001C29.745 14.1654 29.702 13.8977 29.744 13.6366C29.786 13.3755 29.9108 13.1348 30.1 12.9501L31.7667 11.2834L28.9667 8.33345L27.45 9.85012C27.2504 10.0521 26.9871 10.179 26.7047 10.2094C26.4223 10.2398 26.1381 10.1717 25.9 10.0168C25.0089 9.46573 24.0436 9.04481 23.0334 8.7668C22.7693 8.69087 22.5371 8.53109 22.3717 8.31163C22.2063 8.09216 22.1168 7.82489 22.1167 7.55011V5.50009H18.0834V7.55011C18.086 7.82558 17.9975 8.0942 17.8318 8.31422C17.666 8.53424 17.4322 8.69335 17.1667 8.7668C16.1629 9.04819 15.2036 9.46895 14.3167 10.0168C14.0787 10.1717 13.7944 10.2398 13.512 10.2094C13.2296 10.179 12.9664 10.0521 12.7667 9.85012L11.25 8.33345L8.40003 11.1834L10.0667 12.8501C10.2559 13.0348 10.3807 13.2755 10.4227 13.5366C10.4647 13.7977 10.4217 14.0653 10.3 14.3001C9.86538 15.1424 9.54585 16.0393 9.35003 16.9668C9.29269 17.2477 9.1405 17.5004 8.91899 17.6825C8.69747 17.8646 8.4201 17.9649 8.13337 17.9668H5.5167V22.0001H8.55003C8.80878 22.0015 9.06089 22.0822 9.27244 22.2312C9.484 22.3801 9.64485 22.5903 9.73337 22.8335C9.99823 23.5992 10.3506 24.3318 10.7834 25.0168C10.9332 25.2576 10.9967 25.5423 10.9633 25.8239C10.93 26.1056 10.8019 26.3676 10.6 26.5668L8.35003 28.8334L11.2 31.6835L13.6667 29.2168C13.8514 29.0276 14.0921 28.9028 14.3532 28.8607C14.6143 28.8187 14.8819 28.8618 15.1167 28.9835C15.7558 29.3102 16.4257 29.5725 17.1167 29.7668C17.3809 29.8369 17.6142 29.9929 17.7802 30.2101C17.9461 30.4273 18.0351 30.6934 18.0334 30.9668L18.0834 34.5668Z" fill="currentColor"/>
<path d="M20.1832 27.5668C19.1847 27.5756 18.1944 27.3862 17.2696 27.0097C16.3448 26.6332 15.5038 26.077 14.7954 25.3733C14.0871 24.6695 13.5253 23.8323 13.1427 22.9099C12.7601 21.9876 12.5643 20.9986 12.5665 20.0001C12.5709 19.0058 12.7716 18.0221 13.1571 17.1056C13.5427 16.1891 14.1055 15.3577 14.8132 14.6593C15.5209 13.9609 16.3596 13.4091 17.2811 13.0357C18.2027 12.6623 19.1889 12.4746 20.1832 12.4834C22.1653 12.5053 24.0594 13.3058 25.4564 14.7122C26.8533 16.1185 27.6412 18.0178 27.6498 20.0001C27.6544 21.991 26.8723 23.9031 25.4739 25.3202C24.0755 26.7373 22.174 27.5448 20.1832 27.5668ZM20.1832 14.9834C18.8571 14.9834 17.5853 15.5102 16.6476 16.4479C15.71 17.3856 15.1832 18.6573 15.1832 19.9834C15.1832 21.3095 15.71 22.5813 16.6476 23.519C17.5853 24.4567 18.8571 24.9834 20.1832 24.9834C21.5093 24.9834 22.781 24.4567 23.7187 23.519C24.6564 22.5813 25.1832 21.3095 25.1832 19.9834C25.1788 18.6602 24.65 17.3928 23.7128 16.4587C22.7756 15.5246 21.5064 15.0001 20.1832 15.0001V14.9834Z" fill="currentColor"/>
</svg>
