<svg viewBox="0 0 41 40">
<path d="M34.85 10.9584C34.85 10.9584 34.85 10.9584 34.7167 10.825C34.6345 10.7039 34.5332 10.597 34.4167 10.5084L20.15 2.17503C19.9586 2.06049 19.7397 2 19.5167 2C19.2936 2 19.0747 2.06049 18.8833 2.17503L4.61666 10.5084C4.49517 10.5967 4.38831 10.7035 4.3 10.825C4.3 10.825 4.2 10.825 4.16666 10.9584C4.06122 11.1531 4.00406 11.3703 4 11.5917V28.3084C4.00066 28.5268 4.05779 28.7413 4.16584 28.9311C4.2739 29.121 4.4292 29.2796 4.61666 29.3917L18.9 37.725C19.0966 37.8235 19.3134 37.8749 19.5333 37.875C19.7479 37.8747 19.9593 37.8233 20.15 37.725L34.4333 29.3917C34.6186 29.2772 34.7722 29.1181 34.88 28.9288C34.9877 28.7395 35.0462 28.5261 35.05 28.3084V11.6417C35.053 11.3991 34.9833 11.1611 34.85 10.9584ZM19.5 4.65837L31.3 11.6417L19.5 18.575L7.75 11.6417L19.5 4.65837ZM6.46667 13.775L18.25 20.6917V34.5584L6.46667 27.6417V13.775ZM20.75 34.5584V20.6917L32.5333 13.775V27.6417L20.75 34.5584Z" fill="currentColor"/>
</svg>
