<svg viewBox="0 0 96 97">
<path fill-rule="evenodd" clip-rule="evenodd" d="M81.0846 27.735C82.2183 29.1083 82.3076 31.0656 81.3038 32.5365C79.7865 34.7595 77.9843 36.7696 75.8933 38.4937C75.6955 56.2054 61.9516 76.5981 36.878 76.5981C29.1462 76.5981 21.9452 74.3994 15.8581 70.5401C14.2747 69.5362 13.601 67.5672 14.2375 65.8037C14.8741 64.0403 16.6501 62.9555 18.5096 63.1945C19.2466 63.2891 20.0474 63.3266 20.9477 63.3266C22.8006 63.3266 24.5992 63.0881 26.3094 62.6425C23.8226 60.6809 21.9225 58.0197 20.9135 54.9727C20.6668 54.2278 20.6487 53.442 20.8396 52.7082C18.0864 49.8274 16.3832 45.9371 16.3832 41.6277V41.5047C16.3832 40.4304 16.8141 39.4163 17.5549 38.6755C16.8673 36.8938 16.4877 34.9588 16.4877 32.9379C16.4877 29.9293 17.3323 27.1546 18.7336 24.773C19.3954 23.6483 20.5643 22.917 21.8652 22.814C23.1662 22.7109 24.4356 23.249 25.2662 24.2555C29.7667 29.7091 36.0984 33.5842 43.3429 34.9689C44.2282 26.8784 51.1534 20.5981 59.54 20.5981C63.3156 20.5981 66.843 21.8798 69.6403 24.0553C71.2926 23.58 72.8491 22.9085 74.3012 22.0554C75.7331 21.2141 77.536 21.3451 78.8312 22.3847C80.1264 23.4242 80.6445 25.156 80.1331 26.7361C80.1186 26.7808 80.1039 26.8255 80.089 26.8701C80.4592 27.0967 80.7968 27.3864 81.0846 27.735ZM69.7533 28.1628C72.0947 27.5932 74.2947 26.6985 76.3275 25.5042C76.1759 25.9724 75.9966 26.4272 75.7912 26.867C75.5669 27.3476 75.3116 27.8102 75.0278 28.253C74.1106 29.6837 72.8955 30.9064 71.4648 31.8519C71.3289 31.9417 71.1911 32.029 71.0513 32.1138C71.0054 32.1417 70.9592 32.1693 70.9128 32.1966C70.9288 32.1946 70.9448 32.1926 70.9608 32.1906C73.4106 31.8794 75.7775 31.2431 77.9999 30.2815C76.697 32.1905 75.1657 33.8996 73.4061 35.36C73.1457 35.576 72.8804 35.7866 72.6101 35.9917C72.3621 36.1797 72.11 36.363 71.8536 36.5415C71.8745 37.0563 71.8954 37.5711 71.8954 38.1065C71.8954 54.1271 59.5191 72.5981 36.878 72.5981C33.0606 72.5981 29.394 72.0037 25.961 70.8964C24.2267 70.337 22.5521 69.6467 20.9477 68.836C19.9363 68.3249 18.9528 67.766 17.9999 67.1618C18.9616 67.2854 19.9442 67.3266 20.9477 67.3266C22.7626 67.3266 24.5359 67.1337 26.2445 66.7679C27.9017 66.4132 29.4981 65.8959 31.0126 65.2343C32.8827 64.4173 34.6281 63.3804 36.209 62.158C34.3024 62.1215 32.5012 61.6519 30.8996 60.8469C29.4549 60.1207 28.1726 59.1215 27.122 57.921C27.0916 57.8862 27.0614 57.8512 27.0313 57.8161C26.6285 57.3453 26.2609 56.8445 25.9327 56.3177C25.4272 55.5065 25.0149 54.6339 24.7107 53.7153C25.4424 53.88 26.2369 53.9212 27.0313 53.9212C27.7328 53.9212 28.4182 53.8735 29.0774 53.7731C29.479 53.712 29.8709 53.6313 30.2508 53.5299C29.7449 53.4295 29.2499 53.2982 28.7679 53.1381C28.4034 53.017 28.0463 52.8793 27.6976 52.7261C27.4719 52.6269 27.2497 52.5212 27.0313 52.4092C26.4063 52.0886 25.8121 51.7164 25.2549 51.2983C24.678 50.8655 24.1406 50.3835 23.6493 49.8587C22.6643 48.8064 21.8646 47.5818 21.303 46.2355C20.9511 45.3919 20.6927 44.5004 20.5409 43.5737C20.4371 42.9402 20.3832 42.2902 20.3832 41.6277V41.5042C20.4596 41.5461 20.5367 41.5873 20.6142 41.6277C21.7976 42.2442 23.1116 42.6825 24.4826 42.8845C24.9638 42.9554 25.4521 42.9972 25.9442 43.0074C25.392 42.6448 24.8704 42.2368 24.3848 41.7887C24.3273 41.7356 24.2703 41.6819 24.2138 41.6277C24.1711 41.5869 24.1288 41.5457 24.0868 41.5042C23.2425 40.6703 22.5179 39.711 21.9449 38.6574C21.7672 38.3306 21.604 37.9948 21.4564 37.6508C20.8342 36.2011 20.4877 34.6069 20.4877 32.9379C20.4877 32.3109 20.5367 31.6968 20.6305 31.0977C20.8724 29.5523 21.4127 28.1074 22.1811 26.8015C23.0863 27.8983 24.0571 28.9386 25.0877 29.9165C30.0318 34.6077 36.3517 37.864 43.394 39.0416C44.7507 39.2685 46.1343 39.4182 47.54 39.4862C47.331 38.6213 47.2473 37.6947 47.2473 36.7268C47.2473 36.3018 47.2695 35.8818 47.3129 35.4677C47.9506 29.382 53.1588 24.5981 59.54 24.5981C63.0522 24.5981 66.2717 26.0602 68.5295 28.4283C68.9416 28.3495 69.3495 28.261 69.7533 28.1628Z" fill="currentColor"/>
</svg>
