<svg  viewBox="0 0 40 40" >
<path d="M29.6736 17.7511H30.2575V13.7178C28.7526 13.6168 27.3317 12.9869 26.2452 11.9391C25.1586 10.8913 24.4762 9.49295 24.3184 7.99048H20.8958V24.7691C20.8591 25.7659 20.4337 26.7085 19.711 27.3947C18.9884 28.0809 18.026 28.456 17.0303 28.4394C16.5195 28.4771 16.0065 28.4089 15.5232 28.239C15.04 28.0691 14.5969 27.8012 14.2216 27.452C13.8464 27.1028 13.5471 26.6798 13.3424 26.2095C13.1378 25.7393 13.0321 25.2317 13.0321 24.7187C13.0321 24.2057 13.1378 23.6981 13.3424 23.2278C13.5471 22.7576 13.8464 22.3346 14.2216 21.9854C14.5969 21.6362 15.04 21.3683 15.5232 21.1984C16.0065 21.0285 16.5195 20.9603 17.0303 20.9979H17.4733V17.4083H17.0303C15.5889 17.4083 14.1798 17.8364 12.9813 18.6386C11.7828 19.4408 10.8487 20.5809 10.2971 21.9149C9.74547 23.2489 9.60114 24.7167 9.88235 26.1328C10.1636 27.549 10.8577 28.8497 11.8769 29.8707C12.8962 30.8917 14.1948 31.587 15.6085 31.8687C17.0223 32.1503 18.4876 32.0058 19.8193 31.4532C21.1511 30.9007 22.2893 29.965 23.0901 28.7645C23.8909 27.5639 24.3184 26.1525 24.3184 24.7086V14.8471C24.9001 15.7385 25.6943 16.4708 26.6292 16.9778C27.5642 17.4848 28.6105 17.7505 29.6736 17.7511Z" fill="currentColor"/>
</svg>
