<svg viewBox="0 0 96 96">
<path d="M48 8C37.3913 8 27.2172 12.2143 19.7157 19.7157C12.2142 27.2172 8 37.3913 8 48C8 58.6087 12.2142 68.7828 19.7157 76.2843C27.2172 83.7857 37.3913 88 48 88C58.6087 88 68.7828 83.7857 76.2842 76.2843C83.7857 68.7828 88 58.6087 88 48C88 37.3913 83.7857 27.2172 76.2842 19.7157C68.7828 12.2143 58.6087 8 48 8ZM48 15.28C56.6746 15.2906 64.9909 18.7413 71.1248 24.8752C77.2587 31.0091 80.7094 39.3254 80.72 48C80.7094 56.6746 77.2587 64.9909 71.1248 71.1248C64.9909 77.2587 56.6746 80.7094 48 80.72C39.3254 80.7094 31.009 77.2587 24.8751 71.1248C18.7412 64.9909 15.2906 56.6746 15.28 48C15.2906 39.3254 18.7412 31.0091 24.8751 24.8752C31.009 18.7413 39.3254 15.2906 48 15.28ZM29.8 29.84V37.08H44.36V41.08C36.36 41.48 26.2 43.2 26.2 48.16C26.2 53.12 36.32 54.88 44.36 55.28V70H51.64V55.28C59.64 54.88 69.8 53.16 69.8 48.16C69.8 43.16 59.64 41.48 51.64 41.08V37.08H66.2V29.84H29.8ZM44.36 44.48V48H51.64V44.48C60.44 44.92 65.76 46.92 66.2 47.92C65.68 49.24 59 51.64 48 51.64C37 51.64 30.32 49.24 29.8 48.08C30.24 46.96 35.56 44.92 44.36 44.48Z" fill="currentColor"/>
</svg>
