<svg  viewBox="0 0 40 40" >
<path d="M32.5 12.3681C31.5679 12.7713 30.5749 13.0373 29.5471 13.166C30.6098 12.5397 31.4199 11.5616 31.8031 10.3775C30.8101 10.961 29.7213 11.3728 28.554 11.5959C27.6132 10.6092 26.2718 10 24.8084 10C21.9686 10 19.6864 12.2737 19.6864 15.0536C19.6864 15.4569 19.7213 15.843 19.8084 16.2033C15.5488 15.9974 11.777 13.9897 9.24216 10.9181C8.79791 11.6731 8.53659 12.5397 8.53659 13.4749C8.53659 15.2252 9.45121 16.7782 10.8101 17.6705C9.98257 17.6534 9.18117 17.4217 8.49302 17.0442C8.49302 17.0613 8.49302 17.0785 8.49302 17.0957C8.49302 19.5495 10.27 21.5916 12.6045 22.0549C12.1864 22.1665 11.7335 22.2179 11.2631 22.2179C10.9321 22.2179 10.601 22.2008 10.2962 22.1321C10.9582 24.1313 12.8484 25.607 15.0871 25.6499C13.3449 26.997 11.1237 27.8035 8.72823 27.8035C8.31011 27.8035 7.9007 27.7864 7.5 27.7349C9.77352 29.1763 12.4652 30 15.3659 30C24.7997 30 29.9565 22.3037 29.9565 15.6285C29.9565 15.4054 29.9478 15.1909 29.939 14.9764C30.9495 14.2728 31.8031 13.3891 32.5 12.3681Z" fill="currentColor"/>
</svg>
