<svg  viewBox="0 0 40 40" >
<path d="M33.175 7.10845H24.8417V5.34179C24.8417 5.01027 24.71 4.69233 24.4756 4.45791C24.2412 4.22349 23.9232 4.09179 23.5917 4.09179H16.325C16.1603 4.08955 15.9967 4.12035 15.844 4.18238C15.6914 4.2444 15.5527 4.33639 15.4361 4.45291C15.3196 4.56944 15.2276 4.70812 15.1656 4.86079C15.1036 5.01346 15.0728 5.17702 15.075 5.34179V7.10845H6.7417V9.62512H8.74169V30.0751C8.74611 31.6237 9.36439 33.1074 10.461 34.2009C11.5576 35.2944 13.0431 35.9085 14.5917 35.9084H25.4084C26.9555 35.9084 28.4392 35.2939 29.5332 34.1999C30.6271 33.1059 31.2417 31.6222 31.2417 30.0751V9.62512H33.2584L33.175 7.10845ZM17.5417 6.59179H22.3084V7.10845H17.5417V6.59179ZM28.7417 30.0585C28.7417 30.9425 28.3905 31.7904 27.7654 32.4155C27.1403 33.0406 26.2924 33.3918 25.4084 33.3918H14.525C13.641 33.3918 12.7931 33.0406 12.168 32.4155C11.5429 31.7904 11.1917 30.9425 11.1917 30.0585V9.62512H28.7417V30.0585Z" fill="currentColor"/>
<path d="M17.5417 15.9251H15.0417V29.2751H17.5417V15.9251Z" fill="currentColor"/>
<path d="M24.8081 15.9251H22.3081V29.2751H24.8081V15.9251Z" fill="currentColor"/>
</svg>
