<svg  viewBox="0 0 40 40" >
<path d="M35.1111 7.68283C35.1068 6.92389 34.8033 6.19728 34.2667 5.66062C33.73 5.12396 33.0034 4.82054 32.2445 4.81616H19.9278C19.1649 4.82267 18.435 5.12781 17.8945 5.66616L5.61112 17.9495C5.07375 18.4898 4.77209 19.2208 4.77209 19.9828C4.77209 20.7448 5.07375 21.4759 5.61112 22.0162L17.9611 34.3495C18.5033 34.8833 19.2336 35.1825 19.9945 35.1828C20.3851 35.1928 20.7738 35.1242 21.1374 34.981C21.501 34.8379 21.8321 34.6231 22.1111 34.3495L34.3778 22.0662C34.6486 21.7981 34.8633 21.4787 35.0092 21.1267C35.1552 20.7748 35.2295 20.3972 35.2278 20.0162L35.1111 7.68283ZM32.5445 20.2828L20.2611 32.5662C20.2301 32.6076 20.1898 32.6412 20.1435 32.6643C20.0972 32.6874 20.0462 32.6995 19.9945 32.6995C19.9427 32.6995 19.8917 32.6874 19.8454 32.6643C19.7991 32.6412 19.7588 32.6076 19.7278 32.5662L7.36113 20.1828C7.32481 20.1486 7.29588 20.1072 7.2761 20.0614C7.25632 20.0155 7.24612 19.9661 7.24612 19.9162C7.24612 19.8662 7.25632 19.8168 7.2761 19.771C7.29588 19.7251 7.32481 19.6838 7.36113 19.6495L19.6445 7.36616C19.6779 7.32872 19.7191 7.29892 19.7651 7.27879C19.8111 7.25866 19.8609 7.24867 19.9111 7.24949H32.2278C32.3295 7.24949 32.427 7.28988 32.4989 7.36177C32.5707 7.43366 32.6111 7.53116 32.6111 7.63283V19.9495C32.6278 20.0036 32.6305 20.0611 32.6188 20.1165C32.6071 20.1719 32.5816 20.2234 32.5445 20.2662V20.2828Z" fill="currentColor"/>
<path d="M28.1442 9.3495C27.5077 9.3495 26.8972 9.60236 26.4471 10.0524C25.997 10.5025 25.7442 11.113 25.7442 11.7495C25.7485 12.3847 26.0028 12.9926 26.4519 13.4417C26.9011 13.8909 27.509 14.1451 28.1442 14.1495C28.7822 14.1495 29.3944 13.8972 29.8472 13.4476C30.2999 12.998 30.5564 12.3876 30.5608 11.7495C30.5609 11.4329 30.4982 11.1195 30.3766 10.8272C30.2549 10.5349 30.0767 10.2696 29.852 10.0465C29.6274 9.82345 29.3608 9.64701 29.0677 9.52739C28.7746 9.40776 28.4608 9.34731 28.1442 9.3495Z" fill="currentColor"/>
</svg>
