<svg viewBox="0 0 97 97">
<path d="M82.5981 12.615C81.5646 12.6778 80.5501 12.9169 79.6002 13.3216L70.6063 17.2469L51.8591 25.0974L13.6452 41.2696C12.7411 41.585 11.8917 42.0351 11.127 42.6042C10.4235 43.1752 9.8526 43.8876 9.45272 44.6932C9.05283 45.4989 8.83318 46.3793 8.80853 47.2753C8.82492 48.8449 9.45454 50.3484 10.5673 51.4753C11.4189 52.2674 12.4251 52.8817 13.5253 53.281L28.595 59.2866C29.2746 61.2885 32.9121 72.2793 33.7915 74.9878C34.1173 76.3944 34.7143 77.7268 35.5503 78.9131C35.8924 79.3607 36.3118 79.746 36.7894 80.0514C36.99 80.1792 37.2045 80.2846 37.429 80.3654H37.7088C38.1842 80.5322 38.6832 80.625 39.1878 80.6402C40.3198 80.6469 41.4201 80.2729 42.3057 79.5804L52.5786 70.9447L64.5705 82.2496C65.2299 83.0663 66.0884 83.7066 67.0665 84.1114C68.0446 84.5162 69.1108 84.6723 70.1666 84.5655C71.0796 84.5453 71.9789 84.3436 72.8102 83.9725C73.6415 83.6015 74.3876 83.0687 75.0033 82.4066C76.0253 81.3969 76.7206 80.1133 77.002 78.7168L88.5541 20.9366C88.8933 19.5565 88.8933 18.1168 88.5541 16.7366C88.169 15.3544 87.2705 14.164 86.0358 13.4001C84.9989 12.7987 83.7989 12.5246 82.5981 12.615ZM81.9586 19.4451C81.9586 19.4451 70.9261 75.2233 70.4864 77.343C70.4864 77.343 70.4864 77.343 70.2466 77.6962L69.647 77.3822L53.0583 61.9558L41.3063 71.9261L44.8239 58.1876C44.8239 58.1876 66.649 36.0097 67.9681 34.6359C69.2872 33.262 69.2473 33.2228 69.2473 32.8695C69.26 32.7582 69.247 32.6455 69.2093 32.5398C69.1716 32.4342 69.1102 32.3382 69.0296 32.259C68.9489 32.1798 68.8512 32.1195 68.7435 32.0825C68.6359 32.0454 68.5212 32.0327 68.4078 32.0452C67.8389 32.1788 67.3067 32.4334 66.8489 32.791C62.0921 35.7742 41.1465 47.7463 31.7529 53.124L16.3634 46.9613L54.5773 30.8283L73.2845 22.9778L81.9586 19.4451Z" fill="currentColor"/>
</svg>
