<svg viewBox="0 0 97 97">
<path d="M48.8885 8.59816C38.2798 8.59816 28.1057 12.8124 20.6042 20.3139C13.1027 27.8153 8.88847 37.9895 8.88847 48.5982C8.87662 55.6161 10.7114 62.5136 14.2085 68.5982L8.80847 88.5982L29.7285 83.6382C35.5773 86.8424 42.1395 88.5207 48.8085 88.5181C54.0614 88.5181 59.2628 87.4835 64.1158 85.4733C68.9688 83.4632 73.3784 80.5168 77.0928 76.8024C80.8071 73.0881 83.7535 68.6785 85.7637 63.8255C87.7738 58.9725 88.8085 53.771 88.8085 48.5181C88.8168 37.9161 84.6158 27.7444 77.1285 20.2381C69.6255 12.7753 59.4709 8.58978 48.8885 8.59816ZM48.8885 16.5982C53.0603 16.6081 57.1893 17.4398 61.0396 19.0458C64.8899 20.6518 68.3861 23.0006 71.3285 25.9581C74.3069 28.9181 76.6679 32.4401 78.2747 36.3196C79.8814 40.1991 80.7019 44.3591 80.6885 48.5581C80.6885 57.0451 77.3171 65.1844 71.3159 71.1856C65.3147 77.1867 57.1754 80.5582 48.6885 80.5582C43.3409 80.5225 38.0876 79.1473 33.4085 76.5582L30.7285 75.0782L27.7285 75.7582L19.7285 77.6382L21.6485 70.4782L22.5285 67.2781L20.8885 64.3981C18.0824 59.5328 16.6063 54.0147 16.6085 48.3981C16.6346 44.189 17.4909 40.0264 19.1283 36.1488C20.7657 32.2711 23.152 28.7546 26.1506 25.8006C29.1491 22.8467 32.701 20.5133 36.6027 18.9342C40.5045 17.3551 44.6794 16.5612 48.8885 16.5982ZM34.7685 30.0782C34.2604 30.0886 33.7599 30.2041 33.2986 30.4176C32.8374 30.631 32.4254 30.9376 32.0885 31.3182C30.9562 32.3845 30.0584 33.675 29.4524 35.1075C28.8464 36.54 28.5453 38.083 28.5685 39.6382C28.884 43.4029 30.2722 46.9982 32.5685 49.9981C36.765 56.5214 42.7114 61.7331 49.7285 65.0382C58.1685 68.3582 59.8485 67.7181 61.7285 67.5581C63.1286 67.2901 64.4556 66.727 65.6212 65.9063C66.7868 65.0856 67.7642 64.026 68.4885 62.7981C69.1572 61.306 69.3527 59.6448 69.0485 58.0382C68.8085 57.6382 68.1685 57.3982 67.1685 56.8782C66.1685 56.3582 61.2485 53.9982 60.3285 53.6382C59.4085 53.2782 58.7285 53.1582 58.0885 54.1582C57.4485 55.1582 55.4885 57.3982 54.9285 58.1582C54.3685 58.9182 53.7685 58.9182 52.7685 58.4382C49.8378 57.2544 47.1319 55.5767 44.7685 53.4782C42.6236 51.4075 40.7911 49.036 39.3285 46.4382C38.7685 45.4382 39.3285 44.9181 39.7685 44.3981C40.2085 43.8781 40.7685 43.2382 41.2885 42.6382C41.6823 42.1307 42.0177 41.5806 42.2885 40.9981C42.4391 40.7293 42.5183 40.4263 42.5183 40.1181C42.5183 39.81 42.4391 39.507 42.2885 39.2381C42.0485 38.7581 40.1285 33.7981 39.2085 31.8381C38.2885 29.8781 37.6885 30.1181 36.9685 30.1181L34.7685 30.0782Z" fill="currentColor"/>
</svg>
