<svg viewBox="0 0 97 97">
<path d="M72.2886 27.9417V11.7017C72.2886 10.906 71.9725 10.1429 71.4099 9.58034C70.8473 9.01773 70.0843 8.70166 69.2886 8.70166H28.3286C27.533 8.70166 26.7699 9.01773 26.2073 9.58034C25.6447 10.1429 25.3286 10.906 25.3286 11.7017V27.9417C25.3402 33.6411 27.4244 39.1419 31.1926 43.4179C34.9609 47.694 40.1558 50.4535 45.8086 51.1817V80.9817H32.0486V86.9817H65.4886V80.9817H51.7686V51.1817C57.4287 50.4624 62.6332 47.7068 66.4096 43.4299C70.1859 39.1529 72.2758 33.6472 72.2886 27.9417ZM66.2886 14.7017V18.4617H31.3286V14.7017H66.2886ZM31.3286 27.9417V24.4617H66.2886V27.9417C66.278 32.5707 64.4317 37.0065 61.1547 40.276C57.8777 43.5455 53.4377 45.3817 48.8086 45.3817C44.1795 45.3817 39.7395 43.5455 36.4625 40.276C33.1855 37.0065 31.3392 32.5707 31.3286 27.9417Z" fill="currentColor"/>
</svg>
