<svg viewBox="0 0 96 97">
<path fill-rule="evenodd" clip-rule="evenodd" d="M47.9996 22.0981C47.9996 22.0981 48 22.0981 48 24.5981L47.9999 27.0981L47.7514 27.0985C47.5872 27.0989 47.3448 27.0996 47.0339 27.101C46.412 27.104 45.5162 27.1098 44.4231 27.1214C42.2361 27.1448 39.2645 27.1914 36.1209 27.2845C32.9734 27.3778 29.6735 27.5171 26.8239 27.7244C23.9046 27.9367 21.6669 28.2077 20.5192 28.5137L20.5066 28.5171C19.401 28.8057 18.4062 29.3603 17.6149 30.114C16.8506 30.8419 16.3023 31.7299 16.0069 32.6906C13.9994 43.2009 13.9977 53.9689 16.0019 64.4795C16.3209 65.438 16.881 66.322 17.6471 67.0517C18.4421 67.8088 19.4332 68.3746 20.535 68.6868C21.6875 68.9911 23.918 69.2606 26.8239 69.4719C29.6735 69.6792 32.9734 69.8185 36.1209 69.9117C39.2645 70.0049 42.2361 70.0515 44.4231 70.0749C45.5162 70.0865 46.412 70.0923 47.0339 70.0952C47.3448 70.0967 47.5872 70.0974 47.7514 70.0978L47.9993 70.0981L48 72.5981C48 75.0981 47.9996 75.0981 47.9996 75.0981L47.7404 75.0978C47.5723 75.0974 47.3258 75.0967 47.0105 75.0952C46.38 75.0922 45.4741 75.0863 44.3698 75.0746C42.1623 75.051 39.1574 75.0039 35.9728 74.9096C32.7923 74.8153 29.4125 74.6734 26.4612 74.4588C23.5798 74.2492 20.8956 73.9577 19.2308 73.5137L19.1991 73.505C17.3217 72.9778 15.601 72.0077 14.1988 70.6724C12.796 69.3363 11.7561 67.676 11.1869 65.8376C11.1597 65.7499 11.1374 65.6608 11.1201 65.5707C8.95998 54.3494 8.95998 42.8469 11.1201 31.6256C11.1343 31.5518 11.1518 31.4787 11.1726 31.4065C11.7112 29.5356 12.7479 27.8444 14.1666 26.4933C15.583 25.1443 17.332 24.1794 19.2371 23.6809C20.9023 23.2379 23.5834 22.9468 26.4612 22.7375C29.4125 22.5229 32.7923 22.381 35.9728 22.2867C39.1574 22.1924 42.1623 22.1453 44.3698 22.1217C45.4741 22.1099 46.38 22.1041 47.0105 22.1011C47.3258 22.0996 47.5723 22.0989 47.7404 22.0985L47.9996 22.0981ZM79.9931 64.5056C79.6977 65.4663 79.1494 66.3545 78.3851 67.0824C77.5939 67.836 76.599 68.3906 75.4934 68.6793L75.4809 68.6826C74.3331 68.9886 72.0954 69.2596 69.1761 69.4719C66.3265 69.6792 63.0266 69.8185 59.8791 69.9117C56.7355 70.0049 53.7639 70.0515 51.5769 70.0749C50.4838 70.0865 49.588 70.0923 48.9661 70.0952C48.6552 70.0967 48.4128 70.0974 48.2486 70.0978L48.0007 70.0981L48 72.5981C48 75.0981 47.9996 75.0981 47.9996 75.0981L48.2596 75.0978C48.4277 75.0974 48.6742 75.0967 48.9895 75.0952C49.62 75.0922 50.5259 75.0863 51.6302 75.0746C53.8377 75.051 56.8426 75.0039 60.0272 74.9096C63.2078 74.8153 66.5875 74.6734 69.5388 74.4588C72.4167 74.2495 75.0978 73.9584 76.763 73.5154C78.668 73.0168 80.4171 72.052 81.8334 70.7031C83.2521 69.3519 84.2888 67.6606 84.8274 65.7897C84.8482 65.7176 84.8657 65.6445 84.8799 65.5707C87.04 54.3494 87.04 42.8469 84.8799 31.6256C84.8626 31.5355 84.8403 31.4464 84.8131 31.3587C84.2439 29.5203 83.204 27.86 81.8012 26.5239C80.399 25.1885 78.6783 24.2185 76.8009 23.6913L76.7692 23.6826C75.1044 23.2386 72.4202 22.9471 69.5388 22.7375C66.5875 22.5229 63.2078 22.381 60.0272 22.2867C56.8426 22.1924 53.8377 22.1453 51.6302 22.1217C50.5259 22.1099 49.62 22.1041 48.9895 22.1011C48.6742 22.0996 48.4277 22.0989 48.2596 22.0985L47.9996 22.0981C47.9996 22.0981 48 22.0981 48 24.5981L47.9999 27.0981L48.2486 27.0985C48.4128 27.0989 48.6552 27.0996 48.9661 27.101C49.588 27.104 50.4838 27.1098 51.5769 27.1214C53.7639 27.1448 56.7355 27.1914 59.8791 27.2845C63.0266 27.3778 66.3265 27.5171 69.1761 27.7244C72.082 27.9357 74.3125 28.2052 75.465 28.5095C76.5669 28.8217 77.5579 29.3874 78.3529 30.1446C79.119 30.8743 79.6791 31.7582 79.9981 32.7168C82.0023 43.2274 82.0006 53.9954 79.9931 64.5056ZM39.5282 36.1601C40.2895 35.7103 41.2316 35.6961 42.0061 36.1226L60.6811 46.4083C61.4792 46.8479 61.975 47.6869 61.975 48.5981C61.975 49.5093 61.4792 50.3484 60.6811 50.788L42.0061 61.0737C41.2316 61.5002 40.2895 61.486 39.5282 61.0362C38.767 60.5864 38.3 59.768 38.3 58.8839V38.3124C38.3 37.4283 38.767 36.6099 39.5282 36.1601ZM43.3 42.5435V54.6528L54.293 48.5981L43.3 42.5435Z" fill="currentColor"/>
</svg>
