<svg width="118" height="24" viewBox="0 0 118 24" fill="none" xmlns="http://www.w3.org/2000/svg">
<path d="M31.72 17.7609C32.523 18.0249 33.3645 18.1569 34.2445 18.1569C35.2565 18.1569 36.0925 18.0084 36.7525 17.7114C37.4235 17.4034 37.9185 17.0019 38.2375 16.5069C38.5565 16.0009 38.716 15.4564 38.716 14.8734C38.716 14.2684 38.5895 13.7734 38.3365 13.3884C38.0835 13.0034 37.748 12.6954 37.33 12.4644C36.923 12.2334 36.4665 12.0464 35.9605 11.9034C35.4655 11.7604 34.9705 11.6339 34.4755 11.5239C33.9805 11.4029 33.524 11.2709 33.106 11.1279C32.699 10.9849 32.3635 10.7924 32.0995 10.5504C31.8465 10.3084 31.72 9.98387 31.72 9.57687C31.72 9.23587 31.8135 8.92787 32.0005 8.65287C32.1985 8.37787 32.5065 8.15786 32.9245 7.99286C33.3425 7.82786 33.876 7.74536 34.525 7.74536C35.042 7.74536 35.5755 7.82236 36.1255 7.97636C36.6755 8.11936 37.198 8.35587 37.693 8.68586L38.2375 7.36586C37.7535 7.03586 37.1815 6.78286 36.5215 6.60686C35.8615 6.43086 35.196 6.34286 34.525 6.34286C33.513 6.34286 32.677 6.49687 32.017 6.80487C31.368 7.10186 30.884 7.50336 30.565 8.00936C30.257 8.50437 30.103 9.04887 30.103 9.64287C30.103 10.2589 30.2295 10.7649 30.4825 11.1609C30.7355 11.5459 31.0655 11.8539 31.4725 12.0849C31.8905 12.3159 32.347 12.5084 32.842 12.6624C33.348 12.8054 33.8485 12.9319 34.3435 13.0419C34.8385 13.1519 35.2895 13.2839 35.6965 13.4379C36.1145 13.5809 36.45 13.7734 36.703 14.0154C36.967 14.2574 37.099 14.5764 37.099 14.9724C37.099 15.3134 37 15.6214 36.802 15.8964C36.604 16.1604 36.296 16.3694 35.878 16.5234C35.46 16.6774 34.9155 16.7544 34.2445 16.7544C33.5075 16.7544 32.798 16.6279 32.116 16.3749C31.434 16.1219 30.873 15.8029 30.433 15.4179L29.8225 16.7049C30.2845 17.1339 30.917 17.4859 31.72 17.7609Z" fill="#30444A"/>
<path d="M44.7984 14.003V18.0249H46.4319V14.0281L51.0189 6.47486H49.3854L45.6738 12.5682L41.9769 6.47486H40.2114L44.7984 14.003Z" fill="#30444A"/>
<path d="M53.6246 18.0249V6.47486H54.9776L59.7933 14.5879L64.5476 6.47486H65.9006L65.9171 18.0249H64.3331L64.3178 9.60241L60.1421 16.6224H59.3831L55.2086 9.65485V18.0249H53.6246Z" fill="#30444A"/>
<path fill-rule="evenodd" clip-rule="evenodd" d="M70.5084 6.47486V18.0249H76.0194C77.4824 18.0249 78.5824 17.7554 79.3194 17.2164C80.0674 16.6664 80.4414 15.8964 80.4414 14.9064C80.4414 14.2464 80.2929 13.6964 79.9959 13.2564C79.6989 12.8054 79.2974 12.4644 78.7914 12.2334C78.6244 12.1571 78.4491 12.0935 78.2654 12.0424L78.2799 12.0354C78.7529 11.8044 79.1269 11.4744 79.4019 11.0454C79.6879 10.6164 79.8309 10.0884 79.8309 9.46136C79.8309 8.53736 79.4734 7.81136 78.7584 7.28336C78.0434 6.74436 77.0204 6.47486 75.6894 6.47486H70.5084ZM75.9534 16.6884H72.1584V12.8439H75.9534C76.8664 12.8439 77.5649 12.9979 78.0489 13.3059C78.5329 13.6139 78.7749 14.1034 78.7749 14.7744C78.7749 15.4344 78.5329 15.9184 78.0489 16.2264C77.5649 16.5344 76.8664 16.6884 75.9534 16.6884ZM72.1584 11.5074V7.81137H75.5409C76.3769 7.81137 77.0259 7.96537 77.4879 8.27336C77.9499 8.58137 78.1809 9.04336 78.1809 9.65936C78.1809 10.2754 77.9499 10.7374 77.4879 11.0454C77.0259 11.3534 76.3769 11.5074 75.5409 11.5074H72.1584Z" fill="#30444A"/>
<path fill-rule="evenodd" clip-rule="evenodd" d="M89.3352 18.1569C88.4552 18.1569 87.6357 18.0084 86.8767 17.7114C86.1287 17.4144 85.4797 17.0019 84.9297 16.4739C84.3797 15.9349 83.9507 15.3079 83.6427 14.5929C83.3347 13.8779 83.1807 13.0969 83.1807 12.2499C83.1807 11.4029 83.3347 10.6219 83.6427 9.90687C83.9507 9.19186 84.3797 8.57036 84.9297 8.04237C85.4797 7.50336 86.1287 7.08536 86.8767 6.78836C87.6247 6.49136 88.4442 6.34286 89.3352 6.34286C90.2152 6.34286 91.0237 6.49136 91.7607 6.78836C92.5087 7.07436 93.1577 7.48687 93.7077 8.02586C94.2687 8.55387 94.6977 9.17537 94.9947 9.89037C95.3027 10.6054 95.4567 11.3919 95.4567 12.2499C95.4567 13.1079 95.3027 13.8944 94.9947 14.6094C94.6977 15.3244 94.2687 15.9514 93.7077 16.4904C93.1577 17.0184 92.5087 17.4309 91.7607 17.7279C91.0237 18.0139 90.2152 18.1569 89.3352 18.1569ZM89.3352 16.6884C89.9732 16.6884 90.5617 16.5784 91.1007 16.3584C91.6507 16.1384 92.1237 15.8304 92.5197 15.4344C92.9267 15.0274 93.2402 14.5544 93.4602 14.0154C93.6912 13.4764 93.8067 12.8879 93.8067 12.2499C93.8067 11.6119 93.6912 11.0234 93.4602 10.4844C93.2402 9.94537 92.9267 9.47787 92.5197 9.08186C92.1237 8.67486 91.6507 8.36136 91.1007 8.14136C90.5617 7.92136 89.9732 7.81137 89.3352 7.81137C88.6862 7.81137 88.0867 7.92136 87.5367 8.14136C86.9977 8.36136 86.5247 8.67486 86.1177 9.08186C85.7107 9.47787 85.3917 9.94537 85.1607 10.4844C84.9407 11.0234 84.8307 11.6119 84.8307 12.2499C84.8307 12.8879 84.9407 13.4764 85.1607 14.0154C85.3917 14.5544 85.7107 15.0274 86.1177 15.4344C86.5247 15.8304 86.9977 16.1384 87.5367 16.3584C88.0867 16.5784 88.6862 16.6884 89.3352 16.6884Z" fill="#30444A"/>
<path d="M100.754 6.47486H99.1036V18.0249H107.007V16.5894H100.754V6.47486Z" fill="#30444A"/>
<path d="M113.279 18.1569C112.399 18.1569 111.557 18.0249 110.754 17.7609C109.951 17.4859 109.319 17.1339 108.857 16.7049L109.467 15.4179C109.907 15.8029 110.468 16.1219 111.15 16.3749C111.832 16.6279 112.542 16.7544 113.279 16.7544C113.95 16.7544 114.494 16.6774 114.912 16.5234C115.33 16.3694 115.638 16.1604 115.836 15.8964C116.034 15.6214 116.133 15.3134 116.133 14.9724C116.133 14.5764 116.001 14.2574 115.737 14.0154C115.484 13.7734 115.149 13.5809 114.731 13.4379C114.324 13.2839 113.873 13.1519 113.378 13.0419C112.883 12.9319 112.382 12.8054 111.876 12.6624C111.381 12.5084 110.925 12.3159 110.507 12.0849C110.1 11.8539 109.77 11.5459 109.517 11.1609C109.264 10.7649 109.137 10.2589 109.137 9.64287C109.137 9.04887 109.291 8.50437 109.599 8.00936C109.918 7.50336 110.402 7.10186 111.051 6.80487C111.711 6.49687 112.547 6.34286 113.559 6.34286C114.23 6.34286 114.896 6.43086 115.556 6.60686C116.216 6.78286 116.788 7.03586 117.272 7.36586L116.727 8.68586C116.232 8.35587 115.71 8.11936 115.16 7.97636C114.61 7.82236 114.076 7.74536 113.559 7.74536C112.91 7.74536 112.377 7.82786 111.959 7.99286C111.541 8.15786 111.233 8.37787 111.035 8.65287C110.848 8.92787 110.754 9.23587 110.754 9.57687C110.754 9.98387 110.881 10.3084 111.134 10.5504C111.398 10.7924 111.733 10.9849 112.14 11.1279C112.558 11.2709 113.015 11.4029 113.51 11.5239C114.005 11.6339 114.5 11.7604 114.995 11.9034C115.501 12.0464 115.957 12.2334 116.364 12.4644C116.782 12.6954 117.118 13.0034 117.371 13.3884C117.624 13.7734 117.75 14.2684 117.75 14.8734C117.75 15.4564 117.591 16.0009 117.272 16.5069C116.953 17.0019 116.458 17.4034 115.787 17.7114C115.127 18.0084 114.291 18.1569 113.279 18.1569Z" fill="#30444A"/>
<path d="M0 6.00092L10.2857 0L20.5714 6.00092L10.2857 12L0 6.00092Z" fill="#49BEFF"/>
<path d="M10.2859 12L20.5716 6.00092V18.0009L10.2859 24V12Z" fill="#0069A5"/>
<path d="M0 6.00092L10.2857 12V24L0 18.0009V6.00092Z" fill="#00A3FF"/>
</svg>
