<svg width="40" height="40" viewBox="0 0 40 40" fill="none" xmlns="http://www.w3.org/2000/svg">
<path d="M29.9251 7.11671H24.8251V5.35004C24.8251 5.01852 24.6934 4.70058 24.459 4.46616C24.2246 4.23174 23.9066 4.10004 23.5751 4.10004H16.3084C16.1437 4.0978 15.9801 4.12861 15.8274 4.19063C15.6748 4.25265 15.5361 4.34464 15.4196 4.46116C15.303 4.57769 15.211 4.71638 15.149 4.86905C15.087 5.02172 15.0562 5.18527 15.0584 5.35004V7.11671H6.7251V9.61671H8.75843V30.0667C8.76285 31.6153 9.38113 33.099 10.4777 34.1925C11.5744 35.286 13.0598 35.9001 14.6084 35.9H25.4251C26.9722 35.9 28.4559 35.2855 29.5499 34.1915C30.6439 33.0975 31.2584 31.6138 31.2584 30.0667V9.61671H33.2751V7.11671H29.9251ZM17.5584 29.2667H15.0584V15.9334H17.5584V29.2667ZM17.5584 6.60004H22.3251V7.11671H17.5584V6.60004ZM24.8251 29.2667H22.3251V15.9334H24.8251V29.2667Z" fill="#FF0000"/>
</svg>
