<svg width="40" height="40" viewBox="0 0 40 40" fill="none" xmlns="http://www.w3.org/2000/svg">
<path d="M34.8691 29.4832L22.3357 7.81658C22.1024 7.40897 21.7649 7.07071 21.3578 6.83642C20.9507 6.60214 20.4887 6.48025 20.0191 6.48324C19.5472 6.48072 19.0831 6.60266 18.6734 6.83675C18.2638 7.07084 17.9231 7.40881 17.6857 7.81658L5.16906 29.4832C4.9233 29.8876 4.79333 30.3517 4.79333 30.8249C4.79333 31.2981 4.9233 31.7622 5.16906 32.1666C5.39891 32.5784 5.73519 32.921 6.14272 33.1585C6.55025 33.396 7.01406 33.5197 7.48572 33.5166H32.4857C32.9602 33.5227 33.4275 33.4004 33.8382 33.1628C34.249 32.9252 34.5879 32.5809 34.8191 32.1666C35.0639 31.7636 35.1975 31.303 35.2062 30.8317C35.215 30.3603 35.0987 29.895 34.8691 29.4832ZM18.7691 15.5166H21.2691V24.4499H18.7691V15.5166ZM20.0191 29.5332C19.6491 29.5289 19.2955 29.38 19.0339 29.1184C18.7723 28.8568 18.6234 28.5032 18.6191 28.1332C18.6235 27.7648 18.7729 27.413 19.035 27.154C19.297 26.8951 19.6506 26.7499 20.0191 26.7499C20.3859 26.7499 20.7378 26.8957 20.9972 27.1551C21.2567 27.4145 21.4024 27.7664 21.4024 28.1332C21.4024 28.5017 21.2572 28.8553 20.9983 29.1173C20.7393 29.3794 20.3875 29.5289 20.0191 29.5332Z" fill="#FF0000"/>
</svg>
