<svg viewBox="0 0 40 40">
<path d="M34.3438 13.125C34.1603 12.5326 33.824 11.9934 33.3654 11.5567C32.9069 11.12 32.3408 10.7997 31.7188 10.625C29.375 10 20 10 20 10C20 10 10.625 10 8.28125 10.625C7.65352 10.7889 7.08139 11.1056 6.62114 11.5439C6.16088 11.9823 5.82835 12.5272 5.65625 13.125C4.78125 17.6705 4.78125 22.3295 5.65625 26.875C5.83967 27.4674 6.17601 28.0066 6.63456 28.4433C7.09311 28.88 7.65924 29.2003 8.28125 29.375C10.625 30 20 30 20 30C20 30 29.375 30 31.7188 29.375C32.3465 29.2111 32.9186 28.8944 33.3789 28.4561C33.8391 28.0177 34.1716 27.4728 34.3438 26.875C35.2188 22.3295 35.2188 17.6705 34.3438 13.125V13.125ZM17 24.2857V15.7143L24.7813 20L17 24.2857Z" fill="currentColor"/>
</svg>
